<?xml version="1.0" encoding="utf-8"?>
<!-- Generator: Adobe Illustrator 27.9.4, SVG Export Plug-In . SVG Version: 9.03 Build 54784)  -->
<svg version="1.1" xmlns="http://www.w3.org/2000/svg" xmlns:xlink="http://www.w3.org/1999/xlink" x="0px" y="0px"
	 viewBox="0 0 595.28 410.76" style="enable-background:new 0 0 595.28 410.76;" xml:space="preserve">
<style type="text/css">
	.st0{display:none;}
	.st1{display:inline;fill:#FFFFFF;}
	.st2{display:inline;}
	.st3{fill:#4B616A;}
	.st4{fill:#FFFFFF;}
	.st5{fill:#FFFFFF;stroke:#000000;stroke-width:2.5;stroke-miterlimit:10;}
	.st6{stroke:#000000;stroke-width:2.5;stroke-miterlimit:10;}
	.st7{fill:none;stroke:#000000;stroke-width:0.5;stroke-miterlimit:10;}
	.st8{fill:#285758;}
	.st9{fill:#0F8B8D;}
	.st10{fill:none;stroke:#C8C8C8;stroke-width:1.75;stroke-linecap:square;stroke-miterlimit:10;}
	.st11{fill:none;stroke:#C8C8C8;stroke-width:4;stroke-miterlimit:10;}
	.st12{fill:none;stroke:#C8C8C8;stroke-width:1.75;stroke-miterlimit:10;}
	.st13{fill:#0A8B8B;}
	.st14{fill:none;stroke:#0A8B8B;stroke-width:2;stroke-miterlimit:10;}
	.st15{clip-path:url(#SVGID_00000153664775286303697020000004345690846600269219_);fill:#0F8B8D;}
	.st16{clip-path:url(#SVGID_00000031184836062532460620000015983394023519959949_);fill:#0A8B8B;}
	.st17{fill:none;stroke:#0A8B8B;stroke-width:3;stroke-miterlimit:10;}
	.st18{fill:#285758;stroke:#285758;stroke-miterlimit:10;}
	.st19{fill:#000A00;stroke:#285758;stroke-miterlimit:10;}
	.st20{opacity:0;fill:#000A00;stroke:#285758;stroke-miterlimit:10;}
	.st21{fill:#285758;stroke:#285758;stroke-width:2;stroke-miterlimit:10;}
	.st22{fill:#229595;}
	.st23{fill:#1E9393;}
	.st24{fill:#259696;}
</style>
<g id="Ebene_2" class="st0">
</g>
<g id="Ebene_1">
</g>
<g id="Grafiken">
	<path class="st22" d="M291.89,62.46c8.96,0,17.92-0.05,26.87,0.01c8.96,0.06,17.91-0.08,26.85-0.9c3.82-0.35,7.66-0.57,11.49-0.74
		c4.47-0.19,8.95-0.4,13.43-0.35c4.6,0.05,8.64-2.19,13.08-2.78c6.82-0.91,11.74,5.43,11.64,10.03c-0.07,3.31-1.43,6.22-4.07,8.31
		c-3.1,2.45-6.72,4.01-10.65,3.72c-13.43-1-26.86-0.12-40.28-0.26c-13.44-0.14-26.86-0.37-40.27-1.53
		c-12.11-1.05-24.27-1.43-36.43-1.52c-10.88-0.09-21.75-0.44-32.63-0.62c-2.55-0.04-5.11,0.1-7.66,0.19c-2.57,0.09-5,2.29-5.14,4.73
		c-0.24,4.46-0.61,8.93-0.56,13.39c0.12,11.57-0.79,22.97-3.84,34.21c-1.34,4.91-1.85,10.06-2.46,15.13
		c-0.13,1.05,0.69,2.64,1.58,3.25c0.88,0.61,2.42,0.51,3.63,0.35c1.24-0.16,2.48-0.65,3.63-1.2c16.37-7.79,34.06-10.8,51.63-14.24
		c23.13-2.32,45.98-1.67,68.27,5.98c7.88,2.71,15.59,5.8,23.1,9.35c10.66,5.04,19.04,12.87,25.74,22.46c1.8,2.58,3.2,5.59,4.1,8.61
		c2.02,6.75,3.31,13.68,3.16,20.79c-0.09,4.48,0.12,8.97-0.17,13.43c-0.5,7.77-2.53,15.12-6.79,21.75
		c-1.04,1.61-2.11,3.21-3.07,4.87c-9.2,15.75-21.58,28.42-36.64,38.69c-7.48,5.1-15.31,9.24-23.88,12.06
		c-9.75,3.21-19.66,5.52-29.99,6.07c-11.53,0.62-23.02,0.37-34.52-0.53c-1.91-0.15-3.83-0.35-5.72-0.67
		c-9.55-1.6-18.52-4.7-26.9-9.68c-10.59-6.3-19.49-14.48-27.29-23.89c-3.74-4.52-5.6-10.01-6.72-15.72c-0.51-2.61,0.1-5.1,1.26-7.42
		c3.44-6.88,11.85-9.28,17.82-5.1c1.04,0.73,2.19,1.49,2.86,2.51c1.39,2.12,2.68,4.36,3.68,6.69c1.3,3.06,3.33,5.45,5.95,7.35
		c3.62,2.63,7.31,5.16,11.02,7.66c4.33,2.92,9.15,4.45,14.33,5.05c14.01,1.63,28.07,2.51,42.15,1.85
		c17.55-0.82,34.03-5.59,48.91-15.15c5.38-3.46,10.63-7.12,15.84-10.82c4.21-2.99,7.75-6.7,10.42-11.14
		c4.04-6.72,6.41-13.93,5.87-21.89c-0.22-3.19-0.29-6.42-0.85-9.55c-0.44-2.48-1.26-4.97-2.39-7.22
		c-4.05-8.11-9.51-15.15-16.55-20.91c-3.47-2.84-7.12-5.36-11.41-6.95c-8.39-3.12-16.67-6.52-25.05-9.68
		c-4.81-1.81-9.78-2.96-14.96-3.2c-5.11-0.23-10.23-0.53-15.33-0.95c-9.62-0.79-19.17-0.53-28.67,1.29
		c-3.76,0.72-7.58,1.31-11.4,1.56c-9.72,0.63-18.82,3.53-27.71,7.24c-3.54,1.47-6.97,3.24-10.57,4.53
		c-2.37,0.85-4.95,1.18-7.46,1.55c-1.98,0.3-3.69-0.63-5.37-1.61c-1.27-0.74-2.01-1.69-1.8-3.15c1.64-11.36,2.49-22.85,5.6-33.97
		c0.51-1.84,0.65-3.79,1.11-5.65c3.43-13.88,4.07-27.81,1.06-41.85c-0.4-1.85-0.39-3.8-0.57-5.7c-0.25-2.67,2.51-6.53,5.35-7.15
		c2.48-0.54,5.02-1.11,7.53-1.13c18.56-0.15,37.11-0.17,55.67-0.22c7.04-0.02,14.08,0,21.11,0
		C291.89,62.18,291.89,62.32,291.89,62.46z"/>
	<path class="st23" d="M304.39,327.74c34.32-2.48,68.71-2.16,103.09-2.46c1.96-0.02,3.98,0.15,5.88,0.61
		c6.3,1.53,11.15,7.65,7.54,15.23c-0.54,1.13-1.54,2.14-2.54,2.94c-2.09,1.68-4.57,2.71-7.2,3.07c-2.61,0.36-5.27,0.49-7.91,0.55
		c-25.11,0.64-50.2,2.11-75.34,2.09c-6.6-0.01-13.22,0.3-19.81,0.8c-9.25,0.7-18.48,0.73-27.73,0.06
		c-20.48-1.5-40.95-1.25-61.4,0.77c-7.24,0.71-14.48,1.39-21.73,1.93c-5.95,0.44-11.89,0.18-17.79-0.85
		c-3.31-0.57-6.35-1.75-9.17-3.56c-2.3-1.48-3.86-3.51-4.79-6.09c-1.26-3.51,0.36-8.32,3.48-10.49c2.19-1.52,4.51-2.71,7.06-3.5
		c12.14-3.79,24.59-5.01,37.23-4.44c9.25,0.42,18.48,1.15,27.72,1.67c11.88,0.66,23.77,1.26,35.65,1.86
		C285.9,328.43,295.15,328.38,304.39,327.74z"/>
</g>
</svg>
