<?xml version="1.0" encoding="utf-8"?>
<!-- Generator: Adobe Illustrator 27.9.4, SVG Export Plug-In . SVG Version: 9.03 Build 54784)  -->
<svg version="1.1" xmlns="http://www.w3.org/2000/svg" xmlns:xlink="http://www.w3.org/1999/xlink" x="0px" y="0px"
	 viewBox="0 0 595.28 410.76" style="enable-background:new 0 0 595.28 410.76;" xml:space="preserve">
<style type="text/css">
	.st0{display:none;}
	.st1{display:inline;fill:#FFFFFF;}
	.st2{display:inline;}
	.st3{fill:#4B616A;}
	.st4{fill:#FFFFFF;}
	.st5{fill:#FFFFFF;stroke:#000000;stroke-width:2.5;stroke-miterlimit:10;}
	.st6{stroke:#000000;stroke-width:2.5;stroke-miterlimit:10;}
	.st7{fill:none;stroke:#000000;stroke-width:0.5;stroke-miterlimit:10;}
	.st8{fill:#285758;}
	.st9{fill:#0F8B8D;}
	.st10{fill:none;stroke:#C8C8C8;stroke-width:1.75;stroke-linecap:square;stroke-miterlimit:10;}
	.st11{fill:none;stroke:#C8C8C8;stroke-width:4;stroke-miterlimit:10;}
	.st12{fill:none;stroke:#C8C8C8;stroke-width:1.75;stroke-miterlimit:10;}
	.st13{fill:#0A8B8B;}
	.st14{fill:none;stroke:#0A8B8B;stroke-width:2;stroke-miterlimit:10;}
	.st15{clip-path:url(#SVGID_00000026851164525787272990000014256704304108360375_);fill:#0F8B8D;}
	.st16{clip-path:url(#SVGID_00000118388814372589834530000017820131343520092856_);fill:#0A8B8B;}
	.st17{fill:none;stroke:#0A8B8B;stroke-width:3;stroke-miterlimit:10;}
	.st18{fill:#285758;stroke:#285758;stroke-miterlimit:10;}
	.st19{fill:#000A00;stroke:#285758;stroke-miterlimit:10;}
	.st20{opacity:0;fill:#000A00;stroke:#285758;stroke-miterlimit:10;}
	.st21{fill:#285758;stroke:#285758;stroke-width:2;stroke-miterlimit:10;}
	.st22{fill:#229595;}
	.st23{fill:#1E9393;}
	.st24{fill:#259696;}
</style>
<g id="Ebene_2" class="st0">
</g>
<g id="Ebene_1">
</g>
<g id="Grafiken">
	<path class="st22" d="M304.56,114.34c-0.17-2.25-0.27-2.9-0.26-3.55c0.02-2.2-3.69-4.61-5.72-3.7c-1.81,0.81-3.76,1.41-5.41,2.48
		c-6.69,4.3-13.39,8.59-19.89,13.15c-8.15,5.72-16.48,11.1-25.13,16.03c-6.9,3.93-13.85,7.77-20.1,12.8
		c-1.97,1.58-4.76,2.18-7.23,3.1c-1.69,0.63-4.28-0.34-5.33-1.8c-1.23-1.71-1.56-3.65-0.89-5.57c0.42-1.2,1.21-2.39,2.13-3.28
		c1.42-1.36,3-2.6,4.68-3.64c3.38-2.09,6.83-4.07,10.31-5.99c11.05-6.08,21.57-12.98,31.81-20.33
		c10.77-7.73,21.67-15.27,32.49-22.92c5.08-3.59,5.05-3.63,11.62-13.12c0.37-0.53,0.92-0.93,1.35-1.41
		c1.56-1.74,5.06-2.11,7.33-0.77c4,2.36,6.84,7.87,5.08,11.88c-2.77,6.31-3.11,12.76-2.94,19.42c0.22,8.63-0.41,17.22-1.67,25.77
		c-0.48,3.28-1.01,6.57-1.18,9.87c-1.35,26.5-4.97,52.79-7.04,79.23c-1.45,18.54-1.38,37.09-0.6,55.65c0.14,3.3,0.22,6.63-0.09,9.9
		c-0.65,6.76-6.53,10.68-12.39,10.42c-5.91-0.25-11.51-5.85-11.61-11.57c-0.05-2.64,0.04-5.3,0.3-7.92
		c0.86-8.57,1.78-17.14,2.78-25.7c1.78-15.14,3.64-30.27,5.45-45.41c0.63-5.26,1.51-10.52,1.77-15.8c0.81-16.6,3.9-32.89,6.42-49.26
		C302.11,132.48,303.39,122.62,304.56,114.34z"/>
	<path class="st23" d="M295.91,327.74c34.32-2.48,68.71-2.16,103.09-2.46c1.96-0.02,3.98,0.15,5.88,0.61
		c6.3,1.53,11.15,7.65,7.54,15.23c-0.54,1.13-1.54,2.14-2.54,2.94c-2.09,1.68-4.57,2.71-7.2,3.07c-2.61,0.36-5.27,0.49-7.91,0.55
		c-25.11,0.64-50.2,2.11-75.34,2.09c-6.6-0.01-13.22,0.3-19.81,0.8c-9.25,0.7-18.48,0.73-27.73,0.06
		c-20.48-1.5-40.95-1.25-61.4,0.77c-7.24,0.71-14.48,1.39-21.73,1.93c-5.95,0.44-11.89,0.18-17.79-0.85
		c-3.31-0.57-6.35-1.75-9.17-3.56c-2.3-1.48-3.86-3.51-4.79-6.09c-1.26-3.51,0.36-8.32,3.48-10.49c2.19-1.52,4.51-2.71,7.06-3.5
		c12.14-3.79,24.59-5.01,37.23-4.44c9.25,0.42,18.48,1.15,27.72,1.67c11.88,0.66,23.77,1.26,35.65,1.86
		C277.41,328.43,286.66,328.38,295.91,327.74z"/>
</g>
</svg>
