<?xml version="1.0" encoding="utf-8"?>
<!-- Generator: Adobe Illustrator 27.9.4, SVG Export Plug-In . SVG Version: 9.03 Build 54784)  -->
<svg version="1.1" xmlns="http://www.w3.org/2000/svg" xmlns:xlink="http://www.w3.org/1999/xlink" x="0px" y="0px"
	 viewBox="0 0 310 150" style="enable-background:new 0 0 310 150;" xml:space="preserve">
<style type="text/css">
	.st0{display:none;}
	.st1{display:inline;fill:#FFFFFF;}
	.st2{display:inline;}
	.st3{fill:#4B616A;}
	.st4{fill:#FFFFFF;}
	.st5{fill:#FFFFFF;stroke:#000000;stroke-width:2.5;stroke-miterlimit:10;}
	.st6{stroke:#000000;stroke-width:2.5;stroke-miterlimit:10;}
	.st7{fill:none;stroke:#000000;stroke-width:0.5;stroke-miterlimit:10;}
	.st8{fill:none;stroke:#BEBEBE;stroke-miterlimit:10;}
	.st9{fill:#285758;}
	.st10{fill:#0F8B8D;}
	.st11{fill:#BEBEBE;}
	.st12{fill:none;stroke:#C8C8C8;stroke-width:1.75;stroke-linecap:square;stroke-miterlimit:10;}
	.st13{fill:none;stroke:#C8C8C8;stroke-width:4;stroke-miterlimit:10;}
	.st14{fill:none;stroke:#C8C8C8;stroke-width:1.75;stroke-miterlimit:10;}
	.st15{fill:#0A8B8B;}
	.st16{fill:none;stroke:#0A8B8B;stroke-width:2;stroke-miterlimit:10;}
	.st17{clip-path:url(#SVGID_00000152944842320023601870000000029574347424921746_);fill:#0F8B8D;}
	.st18{clip-path:url(#SVGID_00000086663551556226454820000014878434620281782428_);fill:#0A8B8B;}
</style>
<g id="Ebene_2" class="st0">
</g>
<g id="Ebene_1">
</g>
<g id="Grafiken">
	<g>
		<defs>
			<rect id="SVGID_00000046317611448147066580000011937548720247013775_" x="90.87" y="55.72" width="129.65" height="35.91"/>
		</defs>
		<clipPath id="SVGID_00000028316287237900855280000006917832006944536489_">
			<use xlink:href="#SVGID_00000046317611448147066580000011937548720247013775_"  style="overflow:visible;"/>
		</clipPath>
		<path style="clip-path:url(#SVGID_00000028316287237900855280000006917832006944536489_);fill:#0A8B8B;" d="M204.74,76.86
			c0.09-2.42,0.68-4.3,1.76-5.66c1.08-1.35,2.43-2.03,4.07-2.03c0.98,0,1.78,0.23,2.4,0.68c0.62,0.45,1.11,1.03,1.47,1.74
			c0.33,0.66,0.56,1.5,0.71,2.49c0.15,0.99,0.22,1.92,0.22,2.79H204.74z M218.88,84.62c-0.93,1.69-1.9,2.86-2.9,3.5
			c-1,0.65-2.2,0.97-3.58,0.97c-1.35,0-2.51-0.26-3.5-0.78c-0.98-0.52-1.77-1.23-2.37-2.14c-0.62-0.93-1.08-2.02-1.36-3.25
			c-0.29-1.23-0.43-2.6-0.43-4.11h15.22v-1.54c0-1.38-0.18-2.66-0.53-3.84c-0.35-1.18-0.88-2.21-1.59-3.08
			c-0.75-0.91-1.72-1.64-2.92-2.17s-2.63-0.79-4.31-0.79c-1.63,0-3.1,0.34-4.42,1.01s-2.41,1.56-3.3,2.67
			c-0.92,1.15-1.61,2.44-2.09,3.88c-0.47,1.44-0.71,2.9-0.71,4.4c0,1.66,0.22,3.24,0.66,4.73c0.44,1.49,1.11,2.8,2.01,3.92
			c0.9,1.12,2.05,2,3.44,2.66c1.39,0.65,3.01,0.98,4.86,0.98c2.1,0,3.96-0.54,5.57-1.63c1.61-1.09,2.9-2.55,3.87-4.38L218.88,84.62z
			 M194.25,90.03c1.68-1.07,3.03-2.52,4.05-4.36l-1.49-0.98c-0.87,1.47-1.81,2.57-2.83,3.3c-1.01,0.74-2.28,1.1-3.78,1.1
			c-2.08,0-3.76-0.91-5.04-2.74c-1.28-1.83-1.92-4.18-1.92-7.08c0-1.83,0.18-3.41,0.54-4.73c0.35-1.32,0.82-2.37,1.39-3.15
			c0.64-0.86,1.29-1.44,1.96-1.76c0.68-0.32,1.38-0.48,2.13-0.48c0.64,0,1.23,0.08,1.78,0.25s0.97,0.48,1.24,0.96
			c-0.03,0.34-0.14,0.88-0.33,1.61c-0.19,0.74-0.28,1.45-0.28,2.15c0,0.57,0.25,1.09,0.76,1.56c0.51,0.47,1.21,0.7,2.13,0.7
			c0.86,0,1.47-0.3,1.84-0.9s0.56-1.28,0.56-2.06c0-1.87-0.7-3.34-2.12-4.42c-1.41-1.08-3.25-1.62-5.5-1.62
			c-1.63,0-3.14,0.34-4.52,1.01c-1.38,0.68-2.53,1.56-3.45,2.67c-0.97,1.15-1.7,2.43-2.2,3.83c-0.51,1.4-0.76,2.92-0.76,4.53
			c0,3.72,0.94,6.67,2.82,8.88c1.88,2.2,4.48,3.31,7.81,3.31C190.84,91.64,192.57,91.1,194.25,90.03 M167.87,86.36
			c-0.57,0.73-1.28,1.37-2.12,1.91c-0.84,0.54-1.81,0.8-2.91,0.8c-1.04,0-1.9-0.3-2.58-0.91c-0.68-0.61-1.01-1.56-1.01-2.85
			c0-1,0.23-1.86,0.68-2.58s1.07-1.35,1.84-1.88c0.86-0.56,1.78-1.03,2.77-1.4c0.99-0.37,2.15-0.76,3.47-1.15L167.87,86.36z
			 M176.14,89.12c-0.53,0-1.05-0.01-1.55-0.02c-0.51-0.02-0.88-0.09-1.11-0.23c-0.43-0.25-0.76-0.55-0.97-0.91
			c-0.21-0.36-0.31-0.84-0.31-1.44c0-2.04,0.02-3.91,0.07-5.63c0.04-1.72,0.07-3.69,0.07-5.91c0-1.55-0.21-2.82-0.62-3.81
			c-0.41-0.99-1.01-1.77-1.81-2.34c-0.79-0.59-1.67-0.97-2.65-1.15c-0.97-0.18-2.11-0.27-3.42-0.27c-0.95,0-1.92,0.15-2.91,0.45
			c-0.99,0.3-1.84,0.67-2.54,1.11c-0.81,0.51-1.46,1.09-1.97,1.75c-0.51,0.65-0.76,1.34-0.76,2.05c0,0.68,0.18,1.3,0.54,1.85
			c0.37,0.55,0.94,0.83,1.71,0.83c0.87,0,1.55-0.22,2.04-0.68c0.49-0.45,0.73-0.95,0.73-1.49c0-0.51-0.07-1.07-0.22-1.67
			c-0.15-0.61-0.22-1.07-0.22-1.38c0.25-0.26,0.68-0.52,1.29-0.76c0.61-0.24,1.28-0.36,1.99-0.36c1.04,0,1.85,0.21,2.41,0.64
			c0.56,0.43,1,0.93,1.32,1.5c0.28,0.51,0.46,1.05,0.54,1.63c0.09,0.57,0.13,0.96,0.13,1.17v2.31c-0.75,0.41-2.19,0.96-4.32,1.68
			c-2.14,0.72-3.56,1.21-4.26,1.47c-0.56,0.22-1.16,0.51-1.79,0.88c-0.64,0.37-1.15,0.78-1.54,1.24c-0.5,0.56-0.87,1.19-1.12,1.89
			c-0.25,0.7-0.37,1.49-0.37,2.37c0,1.71,0.56,3.09,1.67,4.15c1.11,1.06,2.53,1.59,4.26,1.59c1.63,0,3.02-0.29,4.18-0.89
			c1.16-0.59,2.24-1.44,3.25-2.56h0.14c0.2,1.09,0.66,1.91,1.39,2.48c0.72,0.56,1.69,0.85,2.9,0.85c0.7,0,1.32-0.08,1.88-0.25
			c0.55-0.16,1.19-0.38,1.92-0.64V89.12z M153.37,68.05h-8.79v1.49c0.21,0.03,0.5,0.09,0.84,0.16c0.34,0.08,0.69,0.19,1.05,0.35
			c0.36,0.16,0.66,0.34,0.92,0.54c0.25,0.21,0.39,0.45,0.39,0.71c0,0.37-0.07,0.74-0.21,1.11c-0.14,0.37-0.29,0.76-0.45,1.17
			c-0.98,2.45-1.89,4.67-2.74,6.66c-0.85,1.99-1.55,3.65-2.11,4.98c-0.73-1.74-1.67-4.03-2.84-6.87c-1.16-2.84-2.06-5.05-2.7-6.63
			c-0.08-0.25-0.16-0.47-0.23-0.66c-0.08-0.19-0.12-0.31-0.12-0.36c0-0.31,0.35-0.56,1.05-0.74c0.7-0.18,1.28-0.27,1.75-0.29v-1.63
			h-10.64v1.54c0.7,0.11,1.4,0.36,2.09,0.76c0.69,0.4,1.19,0.95,1.5,1.67c1.34,3.15,2.63,6.23,3.87,9.24
			c1.24,3.01,2.61,6.34,4.08,9.99h1.82c0.29-0.9,0.62-1.84,0.97-2.82s0.68-1.83,0.99-2.54c1.06-2.49,2.07-4.86,3.05-7.12
			c0.98-2.26,1.93-4.43,2.84-6.51c0.45-0.96,0.99-1.63,1.62-2.02c0.63-0.38,1.29-0.63,1.99-0.76V68.05z M124.06,56.62
			c-0.56-0.6-1.29-0.9-2.18-0.9c-0.8,0-1.48,0.32-2.06,0.96c-0.58,0.64-0.88,1.38-0.88,2.24c0,0.81,0.29,1.53,0.88,2.16
			c0.58,0.63,1.27,0.94,2.06,0.94c0.85,0,1.57-0.33,2.16-0.99c0.58-0.66,0.87-1.43,0.87-2.32
			C124.91,57.91,124.63,57.22,124.06,56.62 M127.83,89.49c-0.4-0.03-0.76-0.09-1.09-0.18c-0.32-0.09-0.66-0.2-0.99-0.34
			c-0.45-0.17-0.78-0.44-0.98-0.8c-0.21-0.35-0.31-0.81-0.31-1.35V68.1l-0.33-0.33l-8.11,0.51v1.54c0.47,0.03,0.98,0.12,1.54,0.25
			c0.56,0.13,0.99,0.29,1.28,0.48c0.41,0.28,0.72,0.62,0.94,1.03c0.23,0.41,0.34,0.87,0.34,1.36v14.18c0,0.56-0.1,1.01-0.31,1.36
			s-0.53,0.59-0.97,0.73c-0.28,0.1-0.61,0.16-0.99,0.19c-0.38,0.03-0.75,0.06-1.11,0.1v1.54h11.09V89.49z M115.69,68.05h-8.79v1.49
			c0.22,0.03,0.5,0.09,0.84,0.16c0.34,0.08,0.69,0.19,1.05,0.35c0.36,0.16,0.66,0.34,0.92,0.54c0.26,0.21,0.39,0.45,0.39,0.71
			c0,0.37-0.07,0.74-0.21,1.11c-0.14,0.37-0.29,0.76-0.44,1.17c-0.98,2.45-1.89,4.67-2.74,6.66c-0.85,1.99-1.55,3.65-2.11,4.98
			c-0.73-1.74-1.67-4.03-2.84-6.87c-1.16-2.84-2.06-5.05-2.7-6.63c-0.08-0.25-0.16-0.47-0.23-0.66c-0.08-0.19-0.12-0.31-0.12-0.36
			c0-0.31,0.35-0.56,1.05-0.74c0.7-0.18,1.28-0.27,1.75-0.29v-1.63H90.87v1.54c0.7,0.11,1.39,0.36,2.08,0.76
			c0.69,0.4,1.19,0.95,1.5,1.67c1.34,3.15,2.63,6.23,3.87,9.24c1.24,3.01,2.6,6.34,4.08,9.99h1.82c0.29-0.9,0.62-1.84,0.97-2.82
			s0.68-1.83,0.99-2.54c1.06-2.49,2.08-4.86,3.05-7.12c0.98-2.26,1.93-4.43,2.84-6.51c0.45-0.96,0.99-1.63,1.62-2.02
			c0.63-0.38,1.29-0.63,1.99-0.76V68.05z"/>
	</g>
</g>
</svg>
