<?xml version="1.0" encoding="utf-8"?>
<!-- Generator: Adobe Illustrator 27.9.4, SVG Export Plug-In . SVG Version: 9.03 Build 54784)  -->
<svg version="1.1" xmlns="http://www.w3.org/2000/svg" xmlns:xlink="http://www.w3.org/1999/xlink" x="0px" y="0px"
	 viewBox="0 0 595.28 410.76" style="enable-background:new 0 0 595.28 410.76;" xml:space="preserve">
<style type="text/css">
	.st0{display:none;}
	.st1{display:inline;fill:#FFFFFF;}
	.st2{display:inline;}
	.st3{fill:#4B616A;}
	.st4{fill:#FFFFFF;}
	.st5{fill:#FFFFFF;stroke:#000000;stroke-width:2.5;stroke-miterlimit:10;}
	.st6{stroke:#000000;stroke-width:2.5;stroke-miterlimit:10;}
	.st7{fill:none;stroke:#000000;stroke-width:0.5;stroke-miterlimit:10;}
	.st8{fill:#285758;}
	.st9{fill:#0F8B8D;}
	.st10{fill:none;stroke:#C8C8C8;stroke-width:1.75;stroke-linecap:square;stroke-miterlimit:10;}
	.st11{fill:none;stroke:#C8C8C8;stroke-width:4;stroke-miterlimit:10;}
	.st12{fill:none;stroke:#C8C8C8;stroke-width:1.75;stroke-miterlimit:10;}
	.st13{fill:#0A8B8B;}
	.st14{fill:#0F8B8D;stroke:#285758;stroke-miterlimit:10;}
	.st15{fill:none;stroke:#0A8B8B;stroke-width:2;stroke-miterlimit:10;}
	.st16{clip-path:url(#SVGID_00000002373416787800988030000006211322141316726958_);fill:#0F8B8D;}
	.st17{clip-path:url(#SVGID_00000044891203390946084860000013677379957347046828_);fill:#0A8B8B;}
	.st18{fill:none;stroke:#0A8B8B;stroke-width:3;stroke-miterlimit:10;}
	.st19{fill:#285758;stroke:#285758;stroke-miterlimit:10;}
	.st20{fill:#000A00;stroke:#285758;stroke-miterlimit:10;}
	.st21{opacity:0;fill:#000A00;stroke:#285758;stroke-miterlimit:10;}
	.st22{fill:#285758;stroke:#285758;stroke-width:2;stroke-miterlimit:10;}
	.st23{fill:#229595;}
	.st24{fill:#1E9393;}
	.st25{fill:#259696;}
</style>
<g id="Ebene_2" class="st0">
</g>
<g id="Ebene_1">
</g>
<g id="Grafiken">
	<g>
		<path class="st9" d="M439.64,159.13c-0.14-0.04-0.77-0.16-1.36-0.36c-4.56-1.58-6.06-7.47-2.88-10.93
			c1.76-1.91,3.71-3.65,6.11-4.47c6.71-2.28,12.71-5.86,18.71-9.49c20.21-12.21,40.39-24.46,60.69-36.51
			c4.5-2.67,8.32-5.83,11.14-10.23c0.33-0.51,0.99-0.8,1.47-1.22c1.6-1.39,5.19-1.76,7.21-0.81c4.33,2.04,6.94,5.47,8.2,10
			c0.99,3.53-0.75,8.28-3.71,10.17c-1.61,1.02-3.2,2.09-4.91,2.93c-5.14,2.55-10.36,4.96-15.5,7.51
			c-16.58,8.23-32.92,16.89-48.88,26.27c-7.15,4.2-14.36,8.3-21.64,12.27c-3.35,1.83-6.88,3.35-10.42,4.77
			C442.78,159.5,441.37,159.13,439.64,159.13z"/>
		<path class="st9" d="M561.29,354.09c-0.17,5.96-7.67,10.18-12.71,7.13c-1.63-0.99-3.31-1.93-4.8-3.11
			c-7.04-5.54-14.01-11.15-21.01-16.73c-9.52-7.59-19.44-14.56-30.66-19.49c-1.75-0.77-3.39-1.78-5.07-2.71
			c-13.43-7.43-26.98-14.59-41.25-20.33c-2.31-0.93-4.45-2.54-6.35-4.2c-1.42-1.24-2.11-3.26-1.88-5.19
			c0.4-3.42,6.03-6.29,9.09-4.71c5.09,2.64,10.08,5.49,15.21,8.04c10.3,5.12,20.67,10.1,31.01,15.14
			c13.23,6.45,25.94,13.83,38.41,21.63c7.57,4.74,14.96,9.77,23.06,13.68c3.55,1.71,5.58,5.15,6.75,8.94
			C561.26,352.79,561.23,353.46,561.29,354.09z"/>
		<path class="st9" d="M67.42,86.01c1.35,0.56,3.08,1.27,4.81,1.98c2.34,3.93,6.04,6.37,9.58,9.08c3.52,2.7,6.64,5.93,9.79,9.08
			c8.12,8.11,16.04,16.4,24.25,24.42c6.82,6.67,13.77,13.22,22.61,17.33c2.55,1.19,4.24,5.97,3.46,8.34
			c-0.85,2.56-2.23,4.57-4.79,5.49c-1.16,0.42-2.56,0.81-3.68,0.53c-2.46-0.61-4.92-1.43-7.18-2.55
			c-7.44-3.7-14.39-8.16-20.76-13.54c-9.27-7.83-17.87-16.35-26.01-25.33c-5.98-6.6-11.73-13.36-18.64-19.13
			c-5.17-4.31-2.41-13.15,4.19-15.38C65.65,86.14,66.31,86.16,67.42,86.01z"/>
		<path class="st9" d="M55.4,304.78c-3.93,0.28-10.1-3.28-11.25-8.61c-1.32-6.12,1.56-11.74,7.23-13.85
			c1.79-0.67,3.54-1.45,5.38-1.95c14.71-4,29.35-8.25,44.4-10.92c6.27-1.11,12.53-2.16,18.87-2.59c6.33-0.43,12.64-0.64,18.81-2.51
			c1.74-0.53,3.64,0.69,4.88,2.28c1.81,2.3,2.07,4.89,0.75,7.03c-1.01,1.65-2.2,3.22-4.13,3.71c-5.53,1.41-11.07,2.8-16.65,3.97
			c-16.87,3.53-33.03,9.14-48.76,16.13c-5.22,2.32-10.51,4.5-15.81,6.64C57.97,304.57,56.64,304.57,55.4,304.78z"/>
		<path class="st9" d="M284.5,53.91c0.42-9.89,0.78-18.14,1.11-26.39c0.22-5.7,0.38-11.39,0.59-17.09c0.11-2.8,3.36-6.07,6.22-6.33
			c3.74-0.34,6.52,1.05,7.73,4.08c0.46,1.14,0.99,2.6,0.66,3.66c-4.02,12.88-4.64,26.21-5.28,39.51
			c-0.67,13.95-1.71,27.89-1.18,41.88c0.08,2.19-1.33,3.41-2.69,4.72c-1.58,1.53-5.6,0.14-6.14-2.06c-0.44-1.81-0.98-3.67-0.99-5.51
			C284.46,77.69,284.5,64.99,284.5,53.91z"/>
	</g>
	<path class="st24" d="M415.2,224.13c-0.13,8.75-2.38,21.89-6.78,34.69c-7.02,20.41-19.06,37.44-34.67,52.11
		c-4.21,3.96-8.8,7.42-13.91,10.11c-5.08,2.68-10.19,5.31-15.4,7.74c-7.94,3.69-16.22,3.53-24.31,0.87
		c-6.66-2.18-13.12-5.07-19.11-8.78c-2.7-1.66-5.25-3.66-7.57-5.82c-8.58-8-14.48-17.82-18.61-28.69
		c-3.41-8.99-5.43-18.36-6.27-27.96c-0.11-1.27-0.27-2.56-0.18-3.83c0.66-9.55,0.5-19.18,2.17-28.64
		c3.01-17.1,7.85-33.57,17.06-48.49c0.34-0.54,0.63-1.11,0.93-1.67c10.7-19.8,14.28-25.01,29.89-39.43c4.2-3.88,7.29-8.9,12.4-11.85
		c1.61-0.93,3.92-0.34,4.85,1.56c1.76,3.58,1.24,6.73-1.8,8.25c-2.88,1.44-5.52,2.94-7.68,5.44c-11.79,13.69-20.64,29.2-27.82,45.64
		c-4.87,11.15-8.09,22.87-9.06,35.1c-0.3,3.82-0.52,7.66-1.05,11.45c-1.15,8.29-0.7,16.54-0.24,24.86
		c0.58,10.42,3.45,20.03,8.18,29.27c2.33,4.56,4.67,9.08,7.63,13.26c2.61,3.69,5.77,6.8,9.5,9.36c4.91,3.38,10.25,5.09,16.26,4.3
		c2.53-0.34,5.07-0.65,7.59-1.06c7.87-1.28,14.6-4.95,19.79-10.83c5.06-5.73,9.77-11.83,14.07-18.15
		c8.73-12.83,14.38-27.02,17.32-42.26c1.21-6.27,2.23-12.58,3.21-18.89c0.89-5.72,0.89-11.47-0.25-17.16
		c-1.74-8.76-2.64-17.74-6.49-25.95c-1.35-2.87-2.87-5.7-4.59-8.36c-2.19-3.39-5.54-5.33-9.5-5.79c-3.15-0.36-6.36-0.19-9.53-0.33
		c-1.9-0.08-3.81-0.22-5.69-0.48c-3.01-0.41-6.86-4.99-7.04-8.23c-0.18-3.22,3.18-7.94,6.21-8.91c4.93-1.57,9.97-2.22,15.12-1.92
		c2.54,0.15,5.09,0.48,7.6,0.89c12.26,2,21,8.89,26.61,19.76c3.24,6.26,5.44,13.01,6.89,19.87
		C413.33,196.44,415.24,207.79,415.2,224.13z"/>
	<path class="st23" d="M249.86,151.9c-0.17-2.25-0.27-2.9-0.26-3.55c0.02-2.2-3.69-4.61-5.72-3.7c-1.81,0.81-3.76,1.41-5.41,2.48
		c-6.69,4.3-13.39,8.59-19.89,13.15c-8.15,5.72-16.48,11.1-25.13,16.03c-6.9,3.93-13.85,7.77-20.1,12.8
		c-1.97,1.58-4.76,2.18-7.23,3.1c-1.69,0.63-4.28-0.34-5.33-1.8c-1.23-1.71-1.56-3.65-0.89-5.57c0.42-1.2,1.21-2.39,2.13-3.28
		c1.42-1.36,3-2.6,4.68-3.64c3.38-2.09,6.83-4.07,10.31-5.99c11.05-6.08,21.57-12.98,31.81-20.33
		c10.77-7.73,21.67-15.27,32.49-22.92c5.08-3.59,5.05-3.63,11.62-13.12c0.37-0.53,0.92-0.93,1.35-1.41
		c1.56-1.74,5.06-2.11,7.33-0.77c4,2.36,6.84,7.87,5.08,11.88c-2.77,6.31-3.11,12.76-2.94,19.42c0.22,8.63-0.41,17.22-1.67,25.77
		c-0.48,3.28-1.01,6.57-1.18,9.87c-1.35,26.5-4.97,52.79-7.04,79.23c-1.45,18.54-1.38,37.09-0.6,55.65c0.14,3.3,0.22,6.63-0.09,9.9
		c-0.65,6.76-6.53,10.68-12.39,10.42c-5.91-0.25-11.51-5.85-11.61-11.57c-0.05-2.64,0.04-5.3,0.3-7.92
		c0.86-8.57,1.78-17.14,2.78-25.7c1.78-15.14,3.64-30.27,5.45-45.41c0.63-5.26,1.51-10.52,1.77-15.8c0.81-16.6,3.9-32.89,6.42-49.26
		C247.41,170.04,248.7,160.19,249.86,151.9z"/>
	<path class="st24" d="M307.79,348.1c34.32-2.48,68.71-2.16,103.09-2.46c1.96-0.02,3.98,0.15,5.88,0.61
		c6.3,1.53,11.15,7.65,7.54,15.23c-0.54,1.13-1.54,2.14-2.54,2.94c-2.09,1.68-4.57,2.71-7.2,3.07c-2.61,0.36-5.27,0.49-7.91,0.55
		c-25.11,0.64-50.2,2.11-75.34,2.09c-6.6-0.01-13.22,0.3-19.81,0.8c-9.25,0.7-18.48,0.73-27.73,0.06
		c-20.48-1.5-40.95-1.25-61.4,0.77c-7.24,0.71-14.48,1.39-21.73,1.93c-5.95,0.44-11.89,0.18-17.79-0.85
		c-3.31-0.57-6.35-1.75-9.17-3.56c-2.3-1.48-3.86-3.51-4.79-6.09c-1.26-3.51,0.36-8.32,3.48-10.49c2.19-1.52,4.51-2.71,7.06-3.5
		c12.14-3.79,24.59-5.01,37.23-4.44c9.25,0.42,18.48,1.15,27.72,1.67c11.88,0.66,23.77,1.26,35.65,1.86
		C289.29,348.79,298.54,348.75,307.79,348.1z"/>
</g>
</svg>
