<?xml version="1.0" encoding="utf-8"?>
<!-- Generator: Adobe Illustrator 27.9.4, SVG Export Plug-In . SVG Version: 9.03 Build 54784)  -->
<svg version="1.1" xmlns="http://www.w3.org/2000/svg" xmlns:xlink="http://www.w3.org/1999/xlink" x="0px" y="0px"
	 viewBox="0 0 310 150" style="enable-background:new 0 0 310 150;" xml:space="preserve">
<style type="text/css">
	.st0{display:none;}
	.st1{display:inline;fill:#FFFFFF;}
	.st2{display:inline;}
	.st3{fill:#4B616A;}
	.st4{fill:#FFFFFF;}
	.st5{fill:#FFFFFF;stroke:#000000;stroke-width:2.5;stroke-miterlimit:10;}
	.st6{stroke:#000000;stroke-width:2.5;stroke-miterlimit:10;}
	.st7{fill:none;stroke:#000000;stroke-width:0.5;stroke-miterlimit:10;}
	.st8{fill:none;stroke:#BEBEBE;stroke-miterlimit:10;}
	.st9{fill:#285758;}
	.st10{fill:#0F8B8D;}
	.st11{fill:#BEBEBE;}
	.st12{fill:none;stroke:#C8C8C8;stroke-width:1.75;stroke-linecap:square;stroke-miterlimit:10;}
	.st13{fill:none;stroke:#C8C8C8;stroke-width:4;stroke-miterlimit:10;}
	.st14{fill:none;stroke:#C8C8C8;stroke-width:1.75;stroke-miterlimit:10;}
	.st15{fill:#0A8B8B;}
	.st16{fill:none;stroke:#0A8B8B;stroke-width:2;stroke-miterlimit:10;}
</style>
<g id="Ebene_2" class="st0">
</g>
<g id="Ebene_1">
	<g>
		<line class="st12" x1="12.7" y1="35.08" x2="295.24" y2="35.08"/>
		<line class="st12" x1="12.7" y1="55.37" x2="295.24" y2="55.37"/>
		<line class="st12" x1="12.7" y1="75.66" x2="295.24" y2="75.66"/>
		<line class="st12" x1="12.7" y1="95.95" x2="295.24" y2="95.95"/>
		<line class="st12" x1="12.7" y1="116.25" x2="295.24" y2="116.25"/>
		<line class="st12" x1="12.7" y1="35.08" x2="12.7" y2="116.25"/>
		<line class="st13" x1="295.35" y1="34.18" x2="295.35" y2="117.04"/>
		<line class="st14" x1="288.64" y1="34.37" x2="288.64" y2="115.65"/>
	</g>
</g>
<g id="Violinschl.">
	<path class="st15" d="M79.96,88.86c-1.36-4.43-3.01-6.1-5.45-7.93c-1.15-0.86-3.08-1.81-5.68-2.34c-4.04-0.84-7.96-0.32-7.96-0.32
		l-3.93-16.64c0,0,4.65-4.93,7.91-9.36c2.92-3.98,5.55-9.8,6.81-15.38c0.71-3.17,1.37-8.03,0.29-13.51
		c-1.11-5.66-3.38-9.75-7.59-11.61c-1.19-0.53-5.53-0.14-8.2,2.59c-1.73,1.77-4.54,5.77-5.38,11.38
		c-0.84,5.62-1.08,16.05-0.25,20.53c0.83,4.48,1.4,7.89,1.4,7.89s-7.66,7.15-11.41,11.66c-3.75,4.51-8.94,10.65-10.97,18.68
		c-1.37,5.41,0.06,10.89,0.91,13.42c2.91,8.6,11.92,13.12,17.43,14.82c5.98,1.85,11.3,1.22,13.77,0.72
		c2.31-0.47,4.67-1.27,4.67-1.27l4.12,17.35c0.63,3.13,0.23,5.55-2.85,8.36c-2.25,2.05-4.41,3.84-9.29,3.82
		c-2.37-0.01-2.66-2.04-2.66-2.04s3.99-1.57,3.81-6.08c-0.19-4.5-1.1-6.49-3.95-7.88c-2.85-1.39-7.35-2-11.14,0.67
		c-2.98,2.1-4.19,6.57-3.69,9.6c0.57,3.41,1.93,9.13,9.83,10.09c7.75,0.94,10.61-0.28,13.3-1.16c3.92-1.29,6.51-3.49,8.51-7.22
		c1.99-3.73,1.67-6.3,0.85-10.77s-3.65-15.74-3.65-15.74s6.72-3.71,8.71-7.45C80.23,100.02,82.04,95.68,79.96,88.86z M55.59,21.18
		c0.68-1.52,3.03-4.67,6.93-4.64c4.47,0.03,5.92,4.13,6.73,11.1c0.49,4.23-2.42,13.6-9.39,19.84c-3.93,3.52-5.42,5.07-5.42,5.07
		s-1.88-3.83-2.24-13.05C51.97,33.55,52.99,26.96,55.59,21.18z M59.65,111.39c-3.22-0.08-5.66-0.29-9.45-1.64
		c-8.85-3.14-12.94-6.91-14.67-13c-1.3-4.55-2.97-12.74,5.41-21.06c4.53-4.49,13.74-12.26,13.74-12.26l3.44,15.6
		c0,0-1.73-0.04-4.74,1.78c-2.14,1.3-5.77,4.22-7.26,9.65c-1.31,4.78,1.05,9.6,2.93,11.79c3.35,3.9,7.43,2.35,7.43,2.35
		s-4.08-2.58-5.3-6.18c-1.22-3.6,0.17-8.52,3.75-10.87c1.55-1.02,4.96-1.94,4.96-1.94l5.52,24.68
		C65.41,110.29,62.88,111.47,59.65,111.39z M68.55,108.78L62.69,85.1c0,0,8.88-1.3,11.23,7.66
		C77.11,104.92,68.55,108.78,68.55,108.78z"/>
</g>
<g id="Bassschl.">
</g>
<g id="_x31_6tel">
</g>
</svg>
