<?xml version="1.0" encoding="utf-8"?>
<!-- Generator: Adobe Illustrator 27.9.4, SVG Export Plug-In . SVG Version: 9.03 Build 54784)  -->
<svg version="1.1" xmlns="http://www.w3.org/2000/svg" xmlns:xlink="http://www.w3.org/1999/xlink" x="0px" y="0px"
	 viewBox="0 0 595.28 410.76" style="enable-background:new 0 0 595.28 410.76;" xml:space="preserve">
<style type="text/css">
	.st0{display:none;}
	.st1{display:inline;fill:#FFFFFF;}
	.st2{display:inline;}
	.st3{fill:#4B616A;}
	.st4{fill:#FFFFFF;}
	.st5{fill:#FFFFFF;stroke:#000000;stroke-width:2.5;stroke-miterlimit:10;}
	.st6{stroke:#000000;stroke-width:2.5;stroke-miterlimit:10;}
	.st7{fill:none;stroke:#000000;stroke-width:0.5;stroke-miterlimit:10;}
	.st8{fill:#285758;}
	.st9{fill:#0F8B8D;}
	.st10{fill:none;stroke:#C8C8C8;stroke-width:1.75;stroke-linecap:square;stroke-miterlimit:10;}
	.st11{fill:none;stroke:#C8C8C8;stroke-width:4;stroke-miterlimit:10;}
	.st12{fill:none;stroke:#C8C8C8;stroke-width:1.75;stroke-miterlimit:10;}
	.st13{fill:#0A8B8B;}
	.st14{fill:none;stroke:#0A8B8B;stroke-width:2;stroke-miterlimit:10;}
	.st15{clip-path:url(#SVGID_00000070078927468281495010000010358629637152145024_);fill:#0F8B8D;}
	.st16{clip-path:url(#SVGID_00000086673342143841628540000010480917716930124443_);fill:#0A8B8B;}
	.st17{fill:none;stroke:#0A8B8B;stroke-width:3;stroke-miterlimit:10;}
	.st18{fill:#285758;stroke:#285758;stroke-miterlimit:10;}
	.st19{fill:#000A00;stroke:#285758;stroke-miterlimit:10;}
	.st20{opacity:0;fill:#000A00;stroke:#285758;stroke-miterlimit:10;}
	.st21{fill:#285758;stroke:#285758;stroke-width:2;stroke-miterlimit:10;}
	.st22{fill:#229595;}
	.st23{fill:#1E9393;}
	.st24{fill:#259696;}
</style>
<g id="Ebene_2" class="st0">
</g>
<g id="Ebene_1">
</g>
<g id="Grafiken">
	<path class="st24" d="M322.5,82.57c19.18,1.03,38.36,1.05,57.52-0.44c7.65-0.59,15.28-1.41,22.91-2.12
		c3.82-0.36,7.63-0.77,11.45-1.07c1.27-0.1,2.55,0.07,3.83,0.11c4.57,0.17,8.19,5.61,6.44,9.74c-0.75,1.76-1.71,3.43-2.41,5.2
		c-1.41,3.62-2.99,6.87-6.75,8.87c-3.99,2.13-6.97,5.6-9.53,9.31c-5.83,8.44-12.6,16.1-19.16,23.96
		c-7.78,9.32-15.31,18.86-22.85,28.38c-0.71,0.89-0.83,2.32-1.02,3.53c-0.25,1.56,0.51,2.37,1.83,2.82
		c2.54,0.87,5.06,0.32,7.58,0.08c9.56-0.93,19.12-1.65,28.72-0.68c1.89,0.19,3.82,0.47,5.63,1.05c3.21,1.02,5.65,3.14,6.41,6.49
		c1.11,4.9-0.14,7.37-3.72,9.98c-0.99,0.72-2.29,1.32-3.49,1.4c-3.82,0.23-7.66,0.3-11.49,0.23c-14.72-0.28-29.41,0.22-44.06,1.74
		c-1.9,0.2-3.8,0.53-5.65,1c-1.86,0.47-3.62,1.28-4.9,2.8c-1.64,1.96-3.31,3.9-4.81,5.96c-4.88,6.73-9.63,13.55-14.55,20.25
		c-3.78,5.15-7.53,10.35-11.66,15.22c-6.63,7.81-12.83,15.93-18.68,24.33c-0.73,1.05-1.33,2.22-2.19,3.15
		c-7.92,8.58-13.35,18.65-17.86,29.31c-0.49,1.15-1.28,2.21-2.09,3.19c-4.26,5.19-11.73,6.21-16.41,0.02
		c-2.75-3.64-2.68-9.29,0.07-12.48c1.66-1.93,3.33-3.9,5.23-5.59c7.71-6.85,14.15-14.73,19.62-23.45
		c6.8-10.85,14.46-21.06,22.7-30.88c5.74-6.85,10.88-14.21,16.14-21.44c1.09-1.5,1.85-3.43,2.14-5.26c0.16-0.97-0.76-2.53-1.66-3.14
		c-0.95-0.65-2.45-0.63-3.72-0.67c-10.86-0.38-21.73-0.57-32.58-1.12c-4.52-0.23-8.91,0.61-13.37,0.74
		c-2.78,0.08-4.82-1.38-6.28-3.63c-2.06-3.19-0.85-8.01,3.5-9.17c1.2-0.32,2.52-0.66,3.72-0.49c6.36,0.91,12.76,0.96,19.15,0.67
		c12.77-0.57,25.54-1.47,38.31-1.93c6.2-0.22,10.74-2.67,14.75-7.4c9.51-11.21,19.44-22.08,29.15-33.11
		c10.14-11.51,19.87-23.4,30.94-34.07c0.86-0.83,1.54-2.12,1.72-3.29c0.21-1.37-0.54-2.65-1.58-3.02c-1.17-0.42-2.51-0.69-3.74-0.59
		c-8.28,0.68-16.59,1.18-24.81,2.31c-9.54,1.3-19.08,1.84-28.69,1.59c-6.39-0.17-12.79-0.3-19.18-0.32
		c-7.05-0.03-14.06-0.38-21.04-1.37c-16.54-2.35-33.13-2.53-49.76-1.04c-7.65,0.69-15.32,1-22.99,0.56
		c-3.18-0.18-6.36-0.67-9.49-1.23c-1.21-0.21-2.32-0.99-3.45-1.56c-1.15-0.59-2.81-3.63-2.68-4.82c0.14-1.24,2.55-3.84,3.76-4.08
		c0.62-0.12,1.23-0.38,1.86-0.44c19.09-1.76,38.06-4.7,57.25-5.55c8.32-0.37,16.6-0.61,24.91,0.06
		C308.46,81.72,315.48,82.11,322.5,82.57z"/>
	<path class="st23" d="M304.39,327.74c34.32-2.48,68.71-2.16,103.09-2.46c1.96-0.02,3.98,0.15,5.88,0.61
		c6.3,1.53,11.15,7.65,7.54,15.23c-0.54,1.13-1.54,2.14-2.54,2.94c-2.09,1.68-4.57,2.71-7.2,3.07c-2.61,0.36-5.27,0.49-7.91,0.55
		c-25.11,0.64-50.2,2.11-75.34,2.09c-6.6-0.01-13.22,0.3-19.81,0.8c-9.25,0.7-18.48,0.73-27.73,0.06
		c-20.48-1.5-40.95-1.25-61.4,0.77c-7.24,0.71-14.48,1.39-21.73,1.93c-5.95,0.44-11.89,0.18-17.79-0.85
		c-3.31-0.57-6.35-1.75-9.17-3.56c-2.3-1.48-3.86-3.51-4.79-6.09c-1.26-3.51,0.36-8.32,3.48-10.49c2.19-1.52,4.51-2.71,7.06-3.5
		c12.14-3.79,24.59-5.01,37.23-4.44c9.25,0.42,18.48,1.15,27.72,1.67c11.88,0.66,23.77,1.26,35.65,1.86
		C285.9,328.43,295.15,328.38,304.39,327.74z"/>
</g>
</svg>
