<?xml version="1.0" encoding="utf-8"?>
<!-- Generator: Adobe Illustrator 27.9.4, SVG Export Plug-In . SVG Version: 9.03 Build 54784)  -->
<svg version="1.1" xmlns="http://www.w3.org/2000/svg" xmlns:xlink="http://www.w3.org/1999/xlink" x="0px" y="0px"
	 viewBox="0 0 310 150" style="enable-background:new 0 0 310 150;" xml:space="preserve">
<style type="text/css">
	.st0{display:none;}
	.st1{display:inline;fill:#FFFFFF;}
	.st2{display:inline;}
	.st3{fill:#4B616A;}
	.st4{fill:#FFFFFF;}
	.st5{fill:#FFFFFF;stroke:#000000;stroke-width:2.5;stroke-miterlimit:10;}
	.st6{stroke:#000000;stroke-width:2.5;stroke-miterlimit:10;}
	.st7{fill:none;stroke:#000000;stroke-width:0.5;stroke-miterlimit:10;}
	.st8{fill:none;stroke:#BEBEBE;stroke-miterlimit:10;}
	.st9{fill:#285758;}
	.st10{fill:#0F8B8D;}
	.st11{fill:#BEBEBE;}
	.st12{fill:none;stroke:#C8C8C8;stroke-width:1.75;stroke-linecap:square;stroke-miterlimit:10;}
	.st13{fill:none;stroke:#C8C8C8;stroke-width:4;stroke-miterlimit:10;}
	.st14{fill:none;stroke:#C8C8C8;stroke-width:1.75;stroke-miterlimit:10;}
	.st15{fill:#0A8B8B;}
	.st16{fill:none;stroke:#0A8B8B;stroke-width:2;stroke-miterlimit:10;}
	.st17{clip-path:url(#SVGID_00000152257488495266511330000001840622348061033095_);fill:#0F8B8D;}
	.st18{clip-path:url(#SVGID_00000107566426819154067520000015132543296276763276_);fill:#0A8B8B;}
</style>
<g id="Ebene_2" class="st0">
</g>
<g id="Ebene_1">
	<g>
		<line class="st12" x1="12.7" y1="35.08" x2="295.24" y2="35.08"/>
		<line class="st12" x1="12.7" y1="55.37" x2="295.24" y2="55.37"/>
		<line class="st12" x1="12.7" y1="75.66" x2="295.24" y2="75.66"/>
		<line class="st12" x1="12.7" y1="95.95" x2="295.24" y2="95.95"/>
		<line class="st12" x1="12.7" y1="116.25" x2="295.24" y2="116.25"/>
		<line class="st12" x1="12.7" y1="35.08" x2="12.7" y2="116.25"/>
		<line class="st13" x1="295.35" y1="34.18" x2="295.35" y2="117.04"/>
		<line class="st14" x1="288.64" y1="34.37" x2="288.64" y2="115.65"/>
	</g>
	<path class="st15" d="M145.29,39.44c0.32-0.64,17.79,19.07,17.48,20.34s-2.42,4.01-5.72,7.94c-3.34,3.97-4.37,9.02-2.86,11.76
		c5.88,10.64,8.42,12.71,7.47,13.82c-0.95,1.11-9.21-4.77-12.23,0.48c-2.46,4.28,0,8.9,1.27,11.44c1.27,2.54,3.97,5.08,3.18,5.4
		c-0.79,0.32-9.37-5.88-12.07-10.49c-1.44-2.45-2.22-8.26,1.27-11.76c3.5-3.5,13.19,0.32,13.19,0.32s-11.92-15.73-14.46-18.75
		c-1.54-1.83,8.9-6.36,9.21-13.03S144.98,40.08,145.29,39.44z"/>
</g>
<g id="Grafiken">
</g>
</svg>
