<?xml version="1.0" encoding="utf-8"?>
<!-- Generator: Adobe Illustrator 27.9.4, SVG Export Plug-In . SVG Version: 9.03 Build 54784)  -->
<svg version="1.1" xmlns="http://www.w3.org/2000/svg" xmlns:xlink="http://www.w3.org/1999/xlink" x="0px" y="0px"
	 viewBox="0 0 595.28 410.76" style="enable-background:new 0 0 595.28 410.76;" xml:space="preserve">
<style type="text/css">
	.st0{display:none;}
	.st1{display:inline;fill:#FFFFFF;}
	.st2{display:inline;}
	.st3{fill:#4B616A;}
	.st4{fill:#FFFFFF;}
	.st5{fill:#FFFFFF;stroke:#000000;stroke-width:2.5;stroke-miterlimit:10;}
	.st6{stroke:#000000;stroke-width:2.5;stroke-miterlimit:10;}
	.st7{fill:none;stroke:#000000;stroke-width:0.5;stroke-miterlimit:10;}
	.st8{fill:#285758;}
	.st9{fill:#0F8B8D;}
	.st10{fill:none;stroke:#C8C8C8;stroke-width:1.75;stroke-linecap:square;stroke-miterlimit:10;}
	.st11{fill:none;stroke:#C8C8C8;stroke-width:4;stroke-miterlimit:10;}
	.st12{fill:none;stroke:#C8C8C8;stroke-width:1.75;stroke-miterlimit:10;}
	.st13{fill:#0A8B8B;}
	.st14{fill:none;stroke:#0A8B8B;stroke-width:2;stroke-miterlimit:10;}
	.st15{clip-path:url(#SVGID_00000012443810771727586170000007763673092927802016_);fill:#0F8B8D;}
	.st16{clip-path:url(#SVGID_00000061447270122290812820000000438006182536192182_);fill:#0A8B8B;}
	.st17{fill:none;stroke:#0A8B8B;stroke-width:3;stroke-miterlimit:10;}
	.st18{fill:#285758;stroke:#285758;stroke-miterlimit:10;}
	.st19{fill:#000A00;stroke:#285758;stroke-miterlimit:10;}
	.st20{opacity:0;fill:#000A00;stroke:#285758;stroke-miterlimit:10;}
	.st21{fill:#285758;stroke:#285758;stroke-width:2;stroke-miterlimit:10;}
	.st22{fill:#229595;}
	.st23{fill:#1E9393;}
	.st24{fill:#259696;}
</style>
<g id="Ebene_2" class="st0">
</g>
<g id="Ebene_1">
</g>
<g id="Grafiken">
	<g>
		<path class="st24" d="M373.71,105.67c-1.8-4.77-3.68-9.5-5.14-14.41c-1.08-3.63-3-7.04-4.86-10.38c-1.86-3.35-4.26-6.37-7.17-8.92
			c-3.94-3.44-8.37-5.85-13.68-6.27c-3.18-0.25-6.37-0.51-9.56-0.48c-4.54,0.05-8.86-0.59-12.93-2.74
			c-7.36-3.89-14.85-2.89-22.31-0.34c-2.41,0.82-4.75,1.88-7.08,2.92c-17.11,7.63-31.99,18.52-45.56,31.29
			c-1.85,1.74-3.48,3.74-5.12,5.69c-3.76,4.46-6.45,9.56-8.01,15.13c-2.93,10.43-1.76,20.18,5.31,28.89
			c3.71,4.56,8.14,8.17,13.4,10.59c4.04,1.86,8.26,3.58,12.58,4.53c9.35,2.04,18.78,3.79,28.41,3.99
			c5.13,0.11,10.17-0.31,15.17-1.63c8.04-2.12,15.88-4.78,23.68-7.62c1.76-0.64,3.71-0.76,5.58-1.12c0.47-0.35,0.9-0.91,1.42-1.02
			c1.04-0.21,2.35-0.58,3.14-0.15c1.09,0.59,1.26,2,0.8,3.13c-0.11,0.27-0.23,0.53-0.35,0.78c-0.38,0.77-0.83,1.52-1.23,2.29
			c0,0,0,0,0,0.01c-1.23,2.94-2.33,5.94-3.71,8.81c-2.77,5.75-5.91,11.33-8.51,17.15c-11.45,25.64-22.96,51.25-34.03,77.05
			c-6.04,14.07-11.25,28.48-16.79,42.76c-0.46,1.18-0.72,2.47-0.84,3.73c-0.37,3.9,0.03,7.62,2.78,10.76
			c3.37,3.86,8.89,5.45,13.92,3.83c4.7-1.52,7.26-5.02,8.46-9.59c0.48-1.83,0.74-3.78,0.76-5.67c0.08-9.07,2.19-17.66,5.39-26.11
			c4.51-11.94,8.65-24.01,13.05-35.99c3.08-8.39,6.65-16.61,9.41-25.09c5.75-17.63,12.76-34.76,20.54-51.55
			c8.33-17.97,15.3-36.48,22.54-54.88c0.23-0.59,0.4-1.21,0.55-1.83C374.34,110.69,374.65,108.14,373.71,105.67z M350.3,107.5
			c-0.03,3.19-0.61,6.28-2.14,9.16c-3.64,6.84-8.3,12.8-14.74,17.23c-3.15,2.16-6.27,4.36-9.47,6.45
			c-12.02,7.82-25.35,11.61-39.55,12.58c-2.52,0.17-5.11,0.04-7.61-0.33c-3.77-0.55-7.53-1.31-11.24-2.2
			c-7-1.69-12.86-5.33-17.67-10.69c-6.25-6.95-6.66-14.87-3.59-23.16c2-5.4,5-10.35,9.08-14.46c4.03-4.06,8.27-7.92,12.58-11.68
			c1.4-1.22,3.24-2.43,5-2.66c8.28-1.05,15.94-4.28,23.91-6.42c1.23-0.33,2.52-0.47,3.71-0.89c9.86-3.48,20.02-3.39,30.2-2.43
			c5.97,0.56,10.74,3.58,14.56,8.21C348.45,92.4,350.5,99.56,350.3,107.5z"/>
	</g>
	<path class="st23" d="M307.79,348.1c34.32-2.48,68.71-2.16,103.09-2.46c1.96-0.02,3.98,0.15,5.88,0.61
		c6.3,1.53,11.15,7.65,7.54,15.23c-0.54,1.13-1.54,2.14-2.54,2.94c-2.09,1.68-4.57,2.71-7.2,3.07c-2.61,0.36-5.27,0.49-7.91,0.55
		c-25.11,0.64-50.2,2.11-75.34,2.09c-6.6-0.01-13.22,0.3-19.81,0.8c-9.25,0.7-18.48,0.73-27.73,0.06
		c-20.48-1.5-40.95-1.25-61.4,0.77c-7.24,0.71-14.48,1.39-21.73,1.93c-5.95,0.44-11.89,0.18-17.79-0.85
		c-3.31-0.57-6.35-1.75-9.17-3.56c-2.3-1.48-3.86-3.51-4.79-6.09c-1.26-3.51,0.36-8.32,3.48-10.49c2.19-1.52,4.51-2.71,7.06-3.5
		c12.14-3.79,24.59-5.01,37.23-4.44c9.25,0.42,18.48,1.15,27.72,1.67c11.88,0.66,23.77,1.26,35.65,1.86
		C289.29,348.79,298.54,348.75,307.79,348.1z"/>
</g>
</svg>
