<?xml version="1.0" encoding="UTF-8"?><svg id="Ebene_1" xmlns="http://www.w3.org/2000/svg" viewBox="0 0 194.63 139.18"><defs><style>.cls-1{fill:#000;}.cls-1,.cls-2{stroke:#000;stroke-miterlimit:10;stroke-width:2.5px;}.cls-2,.cls-3{fill:#fff;}.cls-3{stroke-width:0px;}</style></defs><ellipse class="cls-3" cx="91.12" cy="93.51" rx="48.72" ry="33.13" transform="translate(-33.37 54.16) rotate(-28.2)"/><path class="cls-2" d="M71.18,126.09c-3.92.21-7.69-.32-11.45-1.01-2.43-.44-4.7-1.29-6.88-2.44-1.31-.69-2.58-1.42-3.68-2.41-1.46-1.3-2.72-2.78-3.81-4.4-1.46-2.16-2.53-4.49-2.87-7.09-.19-1.43-.27-2.88-.3-4.32-.07-2.92.13-5.84.63-8.72.53-3.09,1.68-5.98,2.84-8.87,1.18-2.94,2.89-5.56,4.89-7.99,1.28-1.56,2.61-3.09,3.97-4.59,1.16-1.29,2.31-2.62,3.6-3.77,1.93-1.71,4-3.28,6-4.91,2.75-2.25,5.82-3.89,9.2-4.96.55-.17,1.09-.36,1.63-.58.36-.14.48-.5.36-.82-.12-.32-.42-.47-.78-.37-1.01.27-2.04.51-3.03.84-2.51.84-4.81,2.1-6.93,3.67-1.5,1.11-2.95,2.3-4.38,3.49-1.93,1.61-3.87,3.19-5.52,5.11-1.3,1.51-2.61,3.02-3.93,4.52-2.81,3.21-5.19,6.68-6.72,10.7-1.07,2.8-2.04,5.63-2.53,8.6-.46,2.77-.61,5.57-.64,8.38-.01,1.5-.03,3,.13,4.49.3,2.79,1.28,5.36,2.85,7.7,2.17,3.24,4.82,5.99,8.2,8,1.88,1.12,3.82,2.08,5.99,2.5,1.9.36,3.79.73,5.69,1.08,3.69.68,7.43.86,11.17.87,2.32,0,4.65-.31,6.97-.47,1.92-.13,3.82-.39,5.68-.9,1.17-.32,2.35-.64,3.51-.99,2.2-.67,4.4-1.37,6.5-2.34,3.26-1.51,6.22-3.49,9.12-5.58,2.7-1.95,5.3-4.03,7.75-6.28,3.66-3.35,7.2-6.8,10.18-10.79,1.39-1.86,2.8-3.7,3.82-5.79.92-1.9,1.83-3.81,2.65-5.75,1.25-2.99,2.35-6.02,2.66-9.3.39-3.97.39-7.89-.83-11.75-.89-2.82-2-5.5-3.84-7.85-1.49-1.9-3.3-3.29-5.67-3.84-1.29-.3-2.61-.5-3.92-.72-.59-.1-1.2-.16-1.8-.15-1.03.01-1.77,1.04-1.48,2.01.21.71.71,1.09,1.44,1.2,1.03.15,2.06.29,3.07.48,1.88.36,3.55,1.08,4.85,2.57,1.79,2.07,2.99,4.41,3.53,7.1.46,2.32.43,4.67.39,7-.05,2.53-.16,5.06-.86,7.53-.97,3.42-2.24,6.69-4.13,9.72-1.49,2.39-3.13,4.68-4.88,6.88-3.13,3.92-6.59,7.53-10.33,10.87-2.51,2.25-5.18,4.3-7.94,6.23-2.65,1.86-5.41,3.52-8.45,4.66-3.65,1.37-7.3,2.67-11.25,2.94-3.5.24-6.97.86-10.41.61ZM127.94,11.77c.46.07.86.15,1.26.18,2.08.18,4.16.36,6.24.53,2.53.2,4.95.81,7.24,1.91,2.35,1.13,3.9,2.97,4.48,5.52.34,1.49.1,2.99-.37,4.43-.57,1.75-1.4,3.38-2.32,4.97-.57.97-1.19,1.91-1.75,2.89-.6,1.03-.32,2.24.63,2.84.96.62,2.17.35,2.87-.64.2-.28.35-.6.51-.9,1.45-2.67,2.69-5.44,3.67-8.32.7-2.04.88-4.13.39-6.24-.51-2.25-1.91-3.95-3.63-5.37-2.22-1.82-4.88-2.7-7.64-3.2-2.19-.4-4.42-.55-6.63-.8-1.34-.15-2.68-.22-4.01-.4-.67-.09-1.37-.32-1.41-1.22,0-.05-.03-.1-.04-.15-.5-1.4-2.28-1.75-3.28-.65-.64.71-.66,1.8.03,2.55.38.42.5.87.54,1.41.09,1.13.24,2.26.4,3.39.23,1.6.55,3.18.71,4.78.36,3.53.64,7.06.98,10.59.38,4.01.83,8.02,1.18,12.04.4,4.55.91,9.06,2.23,13.46.75,2.5,1.76,4.85,3.29,6.98.26.36.58.61,1.01.71.62.13,1.27-.31,1.22-.93-.03-.41-.26-.81-.42-1.2-.07-.17-.23-.3-.3-.48-1.09-2.99-1.86-6.06-2.38-9.2-.5-2.99-.91-6-1.14-9.03-.2-2.58-.45-5.15-.76-7.72-.21-1.74-.61-3.45-.86-5.19-.34-2.37-.67-4.74-.9-7.12-.28-2.92-.34-5.85-.88-8.75-.1-.53-.11-1.09-.17-1.67ZM108.74,86.31c-.02-1.99-.28-2.95-1.1-4.38-.62-1.08-1.48-1.5-2.67-1.21-.51.12-1,.4-1.43.7-1.63,1.17-2.96,2.67-4.35,4.1-2.08,2.14-4.15,4.29-6.46,6.18-3.25,2.66-6.52,5.28-9.85,7.84-2.84,2.18-5.62,4.45-8.67,6.34-1.67,1.03-3.22,2.3-5.23,2.66-.38.07-.6.39-.63.78-.03.4.14.73.51.86.25.09.57.11.82.04.61-.17,1.23-.36,1.8-.65,2.27-1.14,4.37-2.56,6.42-4.04,2.2-1.59,4.36-3.23,6.5-4.89,2.47-1.91,4.89-3.88,7.34-5.82,2.29-1.81,4.47-3.74,6.52-5.83,1.9-1.94,3.8-3.88,5.71-5.8.39-.4.84-.75,1.31-1.06.43-.29.74-.21,1.06.21.54.7.84,1.51,1.01,2.38.34,1.81-.06,3.53-.69,5.19-1.16,3.06-2.84,5.83-4.84,8.42-1.57,2.04-3.48,3.75-5.41,5.43-1.64,1.44-3.42,2.69-5.43,3.58-1.24.55-2.46.84-3.64-.13-.06-.05-.13-.08-.2-.11-1.93-.97-4.2.37-4.28,2.53-.07,1.7,1.24,3.01,3.09,3.09,1.42.06,2.77-.26,3.95-1.05,1.32-.88,2.63-1.79,3.85-2.79,1.07-.88,2.03-1.91,3.02-2.89,1.23-1.21,2.45-2.43,3.65-3.67,3.26-3.35,5.64-7.26,7.33-11.6.59-1.51.98-3.07,1-4.42ZM78.81,40.17c-.02-.08-.05-.26-.12-.43-.33-.76-1.1-1.04-1.97-.69-.68.27-1.35.56-2.01.86-1.79.82-3.57,1.68-5.15,2.88-1.01.77-1.98,1.59-3.02,2.3-3.48,2.38-6.88,4.86-10.12,7.55-3.41,2.83-6.69,5.8-9.59,9.16-.37.43-.74.85-1.08,1.3-.29.4-.24.82.08,1.11.3.27.7.26,1.08-.04.45-.36.91-.71,1.32-1.12.19-.19.26-.5.38-.75.05-.11.06-.25.13-.33.81-.87,1.59-1.77,2.47-2.57,1.82-1.66,3.65-3.33,5.57-4.88,1.94-1.57,3.96-3.04,6-4.47,1.97-1.38,4.02-2.65,6.01-3.99,1.85-1.25,3.75-2.4,5.84-3.2,1.04-.4,2.08-.79,3.12-1.19.7-.27,1.07-.78,1.06-1.49ZM100.46,66.42c-.03-.36-.04-.72-.11-1.07-.27-1.46-1.48-2.2-2.91-1.8-.9.26-1.58.82-2.08,1.6-.13.2-.26.29-.52.29-.64,0-1.14.31-1.33.91-.28.89-.61,1.79-.67,2.71-.11,1.51-.04,3.04,0,4.56.02.68.42,1.21,1.04,1.4.7.21,1.45.33,2.18.3,1.04-.03,1.73-.73,2.23-1.57,1.34-2.26,1.97-4.73,2.19-7.32ZM62.41,81.59c-.02.78.15,1.61.4,2.43.27.86.66,1.19,1.54.99.4-.09.86-.27,1.14-.56.62-.64,1.19-1.34,1.68-2.08,1.35-2.01,1.92-4.3,2.22-6.67.12-.97-.13-1.91-.63-2.76-.4-.68-1.35-1.13-2.11-.94-1.27.31-2.22,1.04-2.65,2.31-.3.87-.53,1.76-.81,2.64-.49,1.48-.79,2.99-.78,4.64ZM92.49,49.14c-1.46,0-2.92,0-4.38,0-.22,0-.44.01-.65.05-.41.07-.71.39-.78.79-.06.39.13.84.48,1.01.2.09.44.14.66.15,2.15.1,4.3.18,6.45.28,2.86.14,5.73.29,8.59.45,1.15.07,2.29.22,3.39.63.32.12.58.25.67.65.09.4.42.63.85.66.44.03.81-.2.98-.6.17-.4.07-.94-.33-1.2-.44-.29-.93-.57-1.43-.71-1.85-.5-3.7-1.03-5.58-1.39-2.94-.57-5.92-.68-8.91-.77Z"/><path class="cls-1" d="M71.18,126.09c3.44.24,6.91-.38,10.41-.61,3.95-.27,7.6-1.57,11.25-2.94,3.04-1.14,5.8-2.81,8.45-4.66,2.76-1.93,5.43-3.98,7.94-6.23,3.74-3.34,7.2-6.95,10.33-10.87,1.75-2.2,3.39-4.49,4.88-6.88,1.89-3.03,3.16-6.3,4.13-9.72.7-2.47.81-5,.86-7.53.05-2.34.08-4.69-.39-7-.54-2.69-1.73-5.03-3.53-7.1-1.3-1.5-2.97-2.22-4.85-2.57-1.02-.19-2.05-.33-3.07-.48-.73-.11-1.24-.49-1.44-1.2-.29-.98.45-2,1.48-2.01.6,0,1.2.06,1.8.15,1.31.21,2.63.41,3.92.72,2.37.56,4.18,1.94,5.67,3.84,1.84,2.35,2.95,5.03,3.84,7.85,1.22,3.86,1.21,7.78.83,11.75-.32,3.28-1.41,6.31-2.66,9.3-.81,1.95-1.72,3.86-2.65,5.75-1.02,2.09-2.43,3.93-3.82,5.79-2.98,3.99-6.52,7.45-10.18,10.79-2.46,2.25-5.05,4.33-7.75,6.28-2.9,2.09-5.87,4.07-9.12,5.58-2.1.97-4.29,1.67-6.5,2.34-1.16.35-2.34.67-3.51.99-1.86.51-3.76.76-5.68.9-2.32.16-4.65.48-6.97.47-3.74,0-7.47-.19-11.17-.87-1.9-.35-3.8-.72-5.69-1.08-2.17-.41-4.11-1.38-5.99-2.5-3.38-2.01-6.03-4.76-8.2-8-1.57-2.34-2.54-4.91-2.85-7.7-.16-1.48-.14-2.99-.13-4.49.03-2.8.18-5.6.64-8.38.49-2.97,1.47-5.79,2.53-8.6,1.53-4.02,3.91-7.49,6.72-10.7,1.32-1.5,2.63-3.01,3.93-4.52,1.65-1.91,3.59-3.5,5.52-5.11,1.43-1.2,2.88-2.38,4.38-3.49,2.12-1.57,4.42-2.83,6.93-3.67.99-.33,2.02-.57,3.03-.84.36-.1.66.06.78.37.13.32,0,.68-.36.82-.53.22-1.08.4-1.63.58-3.38,1.07-6.45,2.71-9.2,4.96-2,1.63-4.06,3.2-6,4.91-1.3,1.15-2.44,2.48-3.6,3.77-1.35,1.5-2.68,3.03-3.97,4.59-2,2.43-3.71,5.05-4.89,7.99-1.16,2.89-2.31,5.78-2.84,8.87-.49,2.88-.7,5.8-.63,8.72.03,1.44.12,2.89.3,4.32.34,2.6,1.41,4.93,2.87,7.09,1.1,1.62,2.36,3.09,3.81,4.4,1.1.99,2.38,1.72,3.68,2.41,2.18,1.15,4.45,1.99,6.88,2.44,3.76.68,7.53,1.22,11.45,1.01Z"/><path class="cls-1" d="M127.94,11.77c.06.59.07,1.14.17,1.67.54,2.89.6,5.83.88,8.75.23,2.38.56,4.75.9,7.12.25,1.74.64,3.45.86,5.19.31,2.57.56,5.14.76,7.72.23,3.03.65,6.03,1.14,9.03.52,3.14,1.29,6.21,2.38,9.2.06.17.22.31.3.48.16.39.39.79.42,1.2.05.62-.6,1.06-1.22.93-.44-.09-.75-.35-1.01-.71-1.53-2.12-2.54-4.48-3.29-6.98-1.32-4.39-1.84-8.91-2.23-13.46-.35-4.02-.8-8.02-1.18-12.04-.34-3.53-.61-7.06-.98-10.59-.16-1.6-.49-3.19-.71-4.78-.16-1.13-.31-2.26-.4-3.39-.04-.55-.16-.99-.54-1.41-.69-.76-.67-1.84-.03-2.55.99-1.1,2.78-.75,3.28.65.02.05.04.1.04.15.04.9.74,1.13,1.41,1.22,1.33.19,2.67.25,4.01.4,2.21.24,4.44.4,6.63.8,2.76.5,5.43,1.38,7.64,3.2,1.73,1.42,3.12,3.12,3.63,5.37.48,2.11.3,4.2-.39,6.24-.98,2.88-2.22,5.64-3.67,8.32-.16.3-.31.62-.51.9-.69.99-1.91,1.25-2.87.64-.94-.61-1.23-1.81-.63-2.84.56-.97,1.18-1.92,1.75-2.89.92-1.59,1.75-3.22,2.32-4.97.47-1.44.71-2.94.37-4.43-.59-2.55-2.13-4.39-4.48-5.52-2.29-1.1-4.71-1.71-7.24-1.91-2.08-.17-4.16-.34-6.24-.53-.4-.04-.8-.11-1.26-.18Z"/><path class="cls-1" d="M108.74,86.31c-.01,1.35-.41,2.91-1,4.42-1.68,4.34-4.07,8.25-7.33,11.6-1.2,1.24-2.43,2.46-3.65,3.67-.99.98-1.95,2.01-3.02,2.89-1.22,1.01-2.53,1.91-3.85,2.79-1.18.78-2.53,1.11-3.95,1.05-1.85-.08-3.15-1.39-3.09-3.09.09-2.16,2.35-3.49,4.28-2.53.07.03.14.06.2.11,1.18.97,2.4.68,3.64.13,2.01-.9,3.78-2.15,5.43-3.58,1.93-1.68,3.84-3.39,5.41-5.43,1.99-2.59,3.68-5.36,4.84-8.42.63-1.66,1.03-3.38.69-5.19-.16-.87-.46-1.68-1.01-2.38-.32-.41-.63-.5-1.06-.21-.46.31-.91.66-1.31,1.06-1.92,1.92-3.81,3.86-5.71,5.8-2.04,2.09-4.23,4.02-6.52,5.83-2.45,1.94-4.87,3.9-7.34,5.82-2.14,1.66-4.3,3.3-6.5,4.89-2.05,1.48-4.15,2.91-6.42,4.04-.57.28-1.19.47-1.8.65-.25.07-.57.05-.82-.04-.36-.14-.54-.47-.51-.86.03-.4.25-.72.63-.78,2.01-.36,3.56-1.63,5.23-2.66,3.05-1.89,5.83-4.16,8.67-6.34,3.33-2.56,6.6-5.18,9.85-7.84,2.31-1.89,4.39-4.03,6.46-6.18,1.39-1.43,2.72-2.93,4.35-4.1.43-.31.92-.58,1.43-.7,1.19-.29,2.05.13,2.67,1.21.82,1.42,1.08,2.39,1.1,4.38Z"/><path class="cls-1" d="M78.81,40.17c.01.72-.37,1.22-1.06,1.49-1.04.4-2.08.79-3.12,1.19-2.09.8-3.99,1.95-5.84,3.2-2,1.34-4.05,2.61-6.01,3.99-2.04,1.43-4.06,2.9-6,4.47-1.92,1.55-3.75,3.22-5.57,4.88-.88.8-1.66,1.71-2.47,2.57-.08.08-.08.22-.13.33-.12.26-.19.56-.38.75-.41.41-.87.75-1.32,1.12-.38.31-.78.32-1.08.04-.32-.29-.37-.71-.08-1.11.33-.45.71-.87,1.08-1.3,2.9-3.36,6.18-6.33,9.59-9.16,3.24-2.69,6.64-5.17,10.12-7.55,1.04-.71,2.01-1.54,3.02-2.3,1.58-1.2,3.36-2.06,5.15-2.88.66-.3,1.33-.59,2.01-.86.87-.35,1.64-.07,1.97.69.07.16.1.34.12.43Z"/><path class="cls-1" d="M100.46,66.42c-.21,2.6-.85,5.07-2.19,7.32-.5.84-1.19,1.54-2.23,1.57-.72.02-1.48-.09-2.18-.3-.61-.19-1.02-.72-1.04-1.4-.04-1.52-.1-3.05,0-4.56.06-.91.39-1.82.67-2.71.19-.6.69-.91,1.33-.91.26,0,.39-.09.52-.29.5-.78,1.18-1.34,2.08-1.6,1.43-.41,2.64.34,2.91,1.8.06.35.07.71.11,1.07Z"/><path class="cls-1" d="M62.41,81.59c0-1.65.3-3.16.78-4.64.29-.87.52-1.77.81-2.64.43-1.27,1.38-2,2.65-2.31.76-.18,1.71.26,2.11.94.5.85.75,1.79.63,2.76-.3,2.36-.87,4.66-2.22,6.67-.5.74-1.07,1.44-1.68,2.08-.28.29-.73.47-1.14.56-.89.2-1.28-.13-1.54-.99-.26-.83-.42-1.65-.4-2.43Z"/><path class="cls-1" d="M92.49,49.14c2.99.09,5.97.2,8.91.77,1.88.36,3.73.89,5.58,1.39.51.14.99.42,1.43.71.4.26.5.8.33,1.2-.17.4-.54.64-.98.6-.43-.03-.76-.26-.85-.66-.09-.4-.35-.53-.67-.65-1.09-.41-2.23-.56-3.39-.63-2.86-.17-5.73-.31-8.59-.45-2.15-.1-4.3-.18-6.45-.28-.22-.01-.46-.06-.66-.15-.36-.17-.55-.61-.48-1.01.07-.4.37-.73.78-.79.21-.04.43-.04.65-.05,1.46,0,2.92,0,4.38,0Z"/></svg>