<?xml version="1.0" encoding="utf-8"?>
<!-- Generator: Adobe Illustrator 27.9.4, SVG Export Plug-In . SVG Version: 9.03 Build 54784)  -->
<svg version="1.1" xmlns="http://www.w3.org/2000/svg" xmlns:xlink="http://www.w3.org/1999/xlink" x="0px" y="0px"
	 viewBox="0 0 595.28 410.76" style="enable-background:new 0 0 595.28 410.76;" xml:space="preserve">
<style type="text/css">
	.st0{display:none;}
	.st1{display:inline;fill:#FFFFFF;}
	.st2{display:inline;}
	.st3{fill:#4B616A;}
	.st4{fill:#FFFFFF;}
	.st5{fill:#FFFFFF;stroke:#000000;stroke-width:2.5;stroke-miterlimit:10;}
	.st6{stroke:#000000;stroke-width:2.5;stroke-miterlimit:10;}
	.st7{fill:none;stroke:#000000;stroke-width:0.5;stroke-miterlimit:10;}
	.st8{fill:#285758;}
	.st9{fill:#0F8B8D;}
	.st10{fill:none;stroke:#C8C8C8;stroke-width:1.75;stroke-linecap:square;stroke-miterlimit:10;}
	.st11{fill:none;stroke:#C8C8C8;stroke-width:4;stroke-miterlimit:10;}
	.st12{fill:none;stroke:#C8C8C8;stroke-width:1.75;stroke-miterlimit:10;}
	.st13{fill:#0A8B8B;}
	.st14{fill:#0F8B8D;stroke:#285758;stroke-miterlimit:10;}
	.st15{fill:none;stroke:#0A8B8B;stroke-width:2;stroke-miterlimit:10;}
	.st16{clip-path:url(#SVGID_00000116955445884285197110000017323228033257583285_);fill:#0F8B8D;}
	.st17{clip-path:url(#SVGID_00000087380901049739677260000017656854970845315005_);fill:#0A8B8B;}
	.st18{fill:none;stroke:#0A8B8B;stroke-width:3;stroke-miterlimit:10;}
	.st19{fill:#285758;stroke:#285758;stroke-miterlimit:10;}
	.st20{fill:#000A00;stroke:#285758;stroke-miterlimit:10;}
	.st21{opacity:0;fill:#000A00;stroke:#285758;stroke-miterlimit:10;}
	.st22{fill:#285758;stroke:#285758;stroke-width:2;stroke-miterlimit:10;}
	.st23{fill:#229595;}
	.st24{fill:#1E9393;}
	.st25{fill:#259696;}
	.st26{fill:#2A9999;}
</style>
<g id="Ebene_2" class="st0">
</g>
<g id="Ebene_1">
</g>
<g id="Grafiken">
	<path class="st24" d="M372.77,185.1c-0.13,8.75-2.38,21.89-6.78,34.69c-7.02,20.41-19.06,37.44-34.67,52.11
		c-4.21,3.96-8.8,7.42-13.91,10.11c-5.08,2.68-10.19,5.31-15.4,7.74c-7.94,3.69-16.22,3.53-24.31,0.87
		c-6.66-2.18-13.12-5.07-19.11-8.78c-2.7-1.66-5.25-3.66-7.57-5.82c-8.58-8-14.48-17.82-18.61-28.69
		c-3.41-8.99-5.43-18.36-6.27-27.96c-0.11-1.27-0.27-2.56-0.18-3.83c0.66-9.55,0.5-19.18,2.17-28.64
		c3.01-17.1,7.85-33.57,17.06-48.49c0.34-0.54,0.63-1.11,0.93-1.67c10.7-19.8,14.28-25.01,29.89-39.43c4.2-3.88,7.29-8.9,12.4-11.85
		c1.61-0.93,3.92-0.34,4.85,1.56c1.76,3.58,1.24,6.73-1.8,8.25c-2.88,1.44-5.52,2.94-7.68,5.44c-11.79,13.69-20.64,29.2-27.82,45.64
		c-4.87,11.15-8.09,22.87-9.06,35.1c-0.3,3.82-0.52,7.66-1.05,11.45c-1.15,8.29-0.7,16.54-0.24,24.86
		c0.58,10.42,3.45,20.03,8.18,29.27c2.33,4.56,4.67,9.08,7.63,13.26c2.61,3.69,5.77,6.8,9.5,9.36c4.91,3.38,10.25,5.09,16.26,4.3
		c2.53-0.34,5.07-0.65,7.59-1.06c7.87-1.28,14.6-4.95,19.79-10.83c5.06-5.73,9.77-11.83,14.07-18.15
		c8.73-12.83,14.38-27.02,17.32-42.26c1.21-6.27,2.23-12.58,3.21-18.89c0.89-5.72,0.89-11.47-0.25-17.16
		c-1.74-8.76-2.64-17.74-6.49-25.95c-1.35-2.87-2.87-5.7-4.59-8.36c-2.19-3.39-5.54-5.33-9.5-5.79c-3.15-0.36-6.36-0.19-9.53-0.33
		c-1.9-0.08-3.81-0.22-5.69-0.48c-3.01-0.41-6.86-4.99-7.04-8.23c-0.18-3.22,3.18-7.94,6.21-8.91c4.93-1.57,9.97-2.22,15.12-1.92
		c2.54,0.15,5.09,0.48,7.6,0.89c12.26,2,21,8.89,26.61,19.76c3.24,6.26,5.44,13.01,6.89,19.87
		C370.9,157.4,372.81,168.75,372.77,185.1z"/>
	<path class="st24" d="M300.77,334.7c34.32-2.48,68.71-2.16,103.09-2.46c1.96-0.02,3.98,0.15,5.88,0.61
		c6.3,1.53,11.15,7.65,7.54,15.23c-0.54,1.13-1.54,2.14-2.54,2.94c-2.09,1.68-4.57,2.71-7.2,3.07c-2.61,0.36-5.27,0.49-7.91,0.55
		c-25.11,0.64-50.2,2.11-75.34,2.09c-6.6-0.01-13.22,0.3-19.81,0.8c-9.25,0.7-18.48,0.73-27.73,0.06
		c-20.48-1.5-40.95-1.25-61.4,0.77c-7.24,0.71-14.48,1.39-21.73,1.93c-5.95,0.44-11.89,0.18-17.79-0.85
		c-3.31-0.57-6.35-1.75-9.17-3.56c-2.3-1.48-3.86-3.51-4.79-6.09c-1.26-3.51,0.36-8.32,3.48-10.49c2.19-1.52,4.51-2.71,7.06-3.5
		c12.14-3.79,24.59-5.01,37.23-4.44c9.25,0.42,18.48,1.15,27.72,1.67c11.88,0.66,23.77,1.26,35.65,1.86
		C282.27,335.39,291.53,335.34,300.77,334.7z"/>
</g>
</svg>
