<?xml version="1.0" encoding="utf-8"?>
<!-- Generator: Adobe Illustrator 27.9.4, SVG Export Plug-In . SVG Version: 9.03 Build 54784)  -->
<svg version="1.1" xmlns="http://www.w3.org/2000/svg" xmlns:xlink="http://www.w3.org/1999/xlink" x="0px" y="0px"
	 viewBox="0 0 310 150" style="enable-background:new 0 0 310 150;" xml:space="preserve">
<style type="text/css">
	.st0{display:none;}
	.st1{display:inline;fill:#FFFFFF;}
	.st2{display:inline;}
	.st3{fill:#4B616A;}
	.st4{fill:#FFFFFF;}
	.st5{fill:#FFFFFF;stroke:#000000;stroke-width:2.5;stroke-miterlimit:10;}
	.st6{stroke:#000000;stroke-width:2.5;stroke-miterlimit:10;}
	.st7{fill:none;stroke:#000000;stroke-width:0.5;stroke-miterlimit:10;}
	.st8{fill:none;stroke:#BEBEBE;stroke-miterlimit:10;}
	.st9{fill:#285758;}
	.st10{fill:#0F8B8D;}
	.st11{fill:#BEBEBE;}
	.st12{fill:none;stroke:#C8C8C8;stroke-width:1.75;stroke-linecap:square;stroke-miterlimit:10;}
	.st13{fill:none;stroke:#C8C8C8;stroke-width:4;stroke-miterlimit:10;}
	.st14{fill:none;stroke:#C8C8C8;stroke-width:1.75;stroke-miterlimit:10;}
	.st15{fill:#0A8B8B;}
	.st16{fill:none;stroke:#0A8B8B;stroke-width:2;stroke-miterlimit:10;}
	.st17{clip-path:url(#SVGID_00000075852443672616581630000009342441413766004399_);fill:#0F8B8D;}
	.st18{clip-path:url(#SVGID_00000028311837346199100340000000591285398872432003_);fill:#0A8B8B;}
</style>
<g id="Ebene_2" class="st0">
</g>
<g id="Ebene_1">
</g>
<g id="Grafiken">
	<path class="st15" d="M174.96,83.58c-1.36-4.43-3.01-6.1-5.45-7.93c-1.15-0.86-3.08-1.81-5.68-2.34c-4.04-0.84-7.96-0.32-7.96-0.32
		l-3.93-16.64c0,0,4.65-4.93,7.91-9.36c2.92-3.98,5.55-9.8,6.81-15.38c0.71-3.17,1.37-8.03,0.29-13.51
		c-1.11-5.66-3.38-9.75-7.59-11.61c-1.19-0.53-5.53-0.14-8.2,2.59c-1.73,1.77-4.54,5.77-5.38,11.38
		c-0.84,5.62-1.08,16.05-0.25,20.53s1.4,7.89,1.4,7.89s-7.66,7.15-11.41,11.66s-8.94,10.65-10.97,18.68
		c-1.37,5.41,0.06,10.89,0.91,13.42c2.91,8.6,11.92,13.12,17.43,14.82c5.98,1.85,11.3,1.22,13.77,0.72
		c2.31-0.47,4.67-1.27,4.67-1.27l4.12,17.35c0.63,3.13,0.23,5.55-2.85,8.36c-2.25,2.05-4.41,3.84-9.29,3.82
		c-2.37-0.01-2.66-2.04-2.66-2.04s3.99-1.57,3.81-6.08c-0.19-4.5-1.1-6.49-3.95-7.88c-2.85-1.39-7.35-2-11.14,0.67
		c-2.98,2.1-4.19,6.57-3.69,9.6c0.57,3.41,1.93,9.13,9.83,10.09c7.75,0.94,10.61-0.28,13.3-1.16c3.92-1.29,6.51-3.49,8.51-7.22
		c1.99-3.73,1.67-6.3,0.85-10.77c-0.83-4.48-3.65-15.74-3.65-15.74s6.72-3.71,8.71-7.45C175.23,94.74,177.05,90.4,174.96,83.58z
		 M150.59,15.9c0.68-1.52,3.03-4.67,6.93-4.64c4.47,0.03,5.92,4.13,6.73,11.1c0.49,4.23-2.42,13.6-9.39,19.84
		c-3.93,3.52-5.42,5.07-5.42,5.07s-1.88-3.83-2.24-13.05C146.97,28.27,148,21.68,150.59,15.9z M154.65,106.11
		c-3.22-0.08-5.66-0.29-9.45-1.64c-8.85-3.14-12.94-6.91-14.67-13c-1.3-4.55-2.97-12.74,5.41-21.06
		c4.53-4.49,13.74-12.26,13.74-12.26l3.44,15.6c0,0-1.73-0.04-4.74,1.78c-2.14,1.3-5.77,4.22-7.26,9.65
		c-1.31,4.78,1.05,9.6,2.93,11.79c3.35,3.9,7.43,2.35,7.43,2.35s-4.08-2.58-5.3-6.18c-1.22-3.6,0.17-8.52,3.75-10.87
		c1.55-1.02,4.96-1.94,4.96-1.94l5.52,24.68C160.41,105.01,157.88,106.19,154.65,106.11z M163.55,103.5l-5.86-23.68
		c0,0,8.88-1.3,11.23,7.66C172.11,99.64,163.55,103.5,163.55,103.5z"/>
</g>
</svg>
