<?xml version="1.0" encoding="utf-8"?>
<!-- Generator: Adobe Illustrator 27.9.4, SVG Export Plug-In . SVG Version: 9.03 Build 54784)  -->
<svg version="1.1" xmlns="http://www.w3.org/2000/svg" xmlns:xlink="http://www.w3.org/1999/xlink" x="0px" y="0px"
	 viewBox="0 0 310 150" style="enable-background:new 0 0 310 150;" xml:space="preserve">
<style type="text/css">
	.st0{display:none;}
	.st1{display:inline;fill:#FFFFFF;}
	.st2{display:inline;}
	.st3{fill:#4B616A;}
	.st4{fill:#FFFFFF;}
	.st5{fill:#FFFFFF;stroke:#000000;stroke-width:2.5;stroke-miterlimit:10;}
	.st6{stroke:#000000;stroke-width:2.5;stroke-miterlimit:10;}
	.st7{fill:none;stroke:#000000;stroke-width:0.5;stroke-miterlimit:10;}
	.st8{fill:none;stroke:#BEBEBE;stroke-miterlimit:10;}
	.st9{fill:#285758;}
	.st10{fill:#0F8B8D;}
	.st11{fill:#BEBEBE;}
	.st12{fill:none;stroke:#C8C8C8;stroke-width:1.75;stroke-linecap:square;stroke-miterlimit:10;}
	.st13{fill:none;stroke:#C8C8C8;stroke-width:4;stroke-miterlimit:10;}
	.st14{fill:none;stroke:#C8C8C8;stroke-width:1.75;stroke-miterlimit:10;}
	.st15{fill:#0A8B8B;}
	.st16{fill:none;stroke:#0A8B8B;stroke-width:2;stroke-miterlimit:10;}
	.st17{clip-path:url(#SVGID_00000081642186556310363130000007073620669019668655_);fill:#0F8B8D;}
	.st18{clip-path:url(#SVGID_00000036935262804191353060000014719311921713591939_);fill:#0A8B8B;}
</style>
<g id="Ebene_2" class="st0">
</g>
<g id="Ebene_1">
</g>
<g id="Grafiken">
	<g>
		<defs>
			<rect id="SVGID_1_" x="118.97" y="59.56" width="85.87" height="31.78"/>
		</defs>
		<clipPath id="SVGID_00000053503639200140411560000018434969704707104178_">
			<use xlink:href="#SVGID_1_"  style="overflow:visible;"/>
		</clipPath>
		<path style="clip-path:url(#SVGID_00000053503639200140411560000018434969704707104178_);fill:#0F8B8D;" d="M193.01,79.34
			c-0.83,0.7-1.7,1.04-2.6,1.04c-1.09,0-1.92-0.33-2.5-0.99c-0.58-0.66-0.87-1.49-0.87-2.49l2.7-11.96
			c0.35-0.42,0.89-0.87,1.63-1.35c0.74-0.48,1.49-0.72,2.26-0.72c0.67,0,1.22,0.12,1.67,0.37c0.44,0.25,0.79,0.59,1.05,1.04
			c0.26,0.43,0.44,0.96,0.54,1.56s0.15,1.26,0.15,1.97c0,1.73-0.16,3.29-0.48,4.68c-0.32,1.39-0.79,2.72-1.41,3.99
			C194.55,77.69,193.84,78.65,193.01,79.34 M202.93,61.8c-1.27-1.49-3.16-2.23-5.68-2.23c-1.16,0-2.37,0.28-3.63,0.83
			c-1.26,0.55-2.56,1.41-3.89,2.57h-0.17c-0.17-0.41-0.39-0.8-0.64-1.2c-0.26-0.39-0.58-0.72-0.97-1c-0.46-0.33-1-0.58-1.62-0.73
			c-0.61-0.15-1.32-0.23-2.12-0.23c-0.96,0-1.98,0.17-3.06,0.51c-1.08,0.34-2.21,0.75-3.39,1.23l-0.48,1.96
			c0.33-0.13,0.75-0.27,1.27-0.41c0.51-0.14,0.98-0.22,1.42-0.22c0.94,0,1.58,0.17,1.9,0.51c0.32,0.34,0.48,0.9,0.48,1.67
			c0,0.42-0.07,0.96-0.21,1.61c-0.14,0.65-0.25,1.19-0.34,1.61l-4.33,19.01c-0.12,0.58-0.3,1.04-0.57,1.38s-0.64,0.59-1.13,0.75
			c-0.29,0.09-0.72,0.17-1.28,0.25c-0.57,0.08-1.04,0.13-1.42,0.16l-0.35,1.5h15.74l0.35-1.5c-0.46-0.03-1.05-0.11-1.77-0.25
			c-0.71-0.14-1.23-0.28-1.55-0.42c-0.29-0.13-0.51-0.33-0.65-0.61c-0.15-0.28-0.22-0.58-0.22-0.91c0-0.1,0.02-0.28,0.06-0.51
			c0.04-0.24,0.09-0.45,0.13-0.62l1.32-5.81c0.62,0.49,1.36,0.87,2.21,1.14c0.85,0.27,1.97,0.4,3.36,0.4c1.86,0,3.56-0.36,5.1-1.09
			c1.54-0.72,2.93-1.76,4.16-3.09c1.19-1.29,2.13-2.82,2.82-4.58c0.69-1.77,1.04-3.62,1.04-5.57
			C204.84,65.32,204.2,63.29,202.93,61.8 M166.12,79.34c-0.83,0.7-1.7,1.04-2.6,1.04c-1.09,0-1.92-0.33-2.5-0.99
			c-0.58-0.66-0.87-1.49-0.87-2.49l2.7-11.96c0.35-0.42,0.89-0.87,1.63-1.35c0.74-0.48,1.49-0.72,2.26-0.72
			c0.67,0,1.22,0.12,1.66,0.37c0.44,0.25,0.8,0.59,1.06,1.04c0.26,0.43,0.44,0.96,0.54,1.56s0.15,1.26,0.15,1.97
			c0,1.73-0.16,3.29-0.48,4.68s-0.79,2.72-1.41,3.99C167.67,77.69,166.96,78.65,166.12,79.34 M176.05,61.8
			c-1.27-1.49-3.16-2.23-5.68-2.23c-1.16,0-2.37,0.28-3.63,0.83c-1.26,0.55-2.56,1.41-3.89,2.57h-0.17c-0.17-0.41-0.39-0.8-0.65-1.2
			c-0.25-0.39-0.58-0.72-0.97-1c-0.47-0.33-1.01-0.58-1.62-0.73c-0.61-0.15-1.32-0.23-2.12-0.23c-0.96,0-1.98,0.17-3.06,0.51
			c-1.08,0.34-2.21,0.75-3.39,1.23l-0.48,1.96c0.34-0.13,0.76-0.27,1.27-0.41c0.51-0.14,0.99-0.22,1.42-0.22
			c0.95,0,1.58,0.17,1.9,0.51c0.32,0.34,0.48,0.9,0.48,1.67c0,0.42-0.07,0.96-0.21,1.61c-0.14,0.65-0.25,1.19-0.34,1.61l-4.33,19.01
			c-0.12,0.58-0.3,1.04-0.57,1.38s-0.64,0.59-1.13,0.75c-0.29,0.09-0.72,0.17-1.29,0.25c-0.57,0.08-1.04,0.13-1.41,0.16l-0.35,1.5
			h15.74l0.35-1.5c-0.46-0.03-1.05-0.11-1.77-0.25c-0.71-0.14-1.23-0.28-1.55-0.42c-0.29-0.13-0.51-0.33-0.65-0.61
			c-0.14-0.28-0.22-0.58-0.22-0.91c0-0.1,0.02-0.28,0.06-0.51c0.04-0.24,0.09-0.45,0.13-0.62l1.32-5.81
			c0.62,0.49,1.36,0.87,2.21,1.14c0.85,0.27,1.97,0.4,3.36,0.4c1.86,0,3.56-0.36,5.1-1.09c1.54-0.72,2.93-1.76,4.16-3.09
			c1.19-1.29,2.13-2.82,2.82-4.58c0.69-1.77,1.04-3.62,1.04-5.57C177.96,65.32,177.32,63.29,176.05,61.8 M139.24,79.34
			c-0.84,0.7-1.7,1.04-2.6,1.04c-1.09,0-1.92-0.33-2.5-0.99c-0.58-0.66-0.87-1.49-0.87-2.49l2.7-11.96
			c0.35-0.42,0.89-0.87,1.63-1.35c0.74-0.48,1.49-0.72,2.26-0.72c0.67,0,1.22,0.12,1.66,0.37c0.44,0.25,0.79,0.59,1.06,1.04
			c0.26,0.43,0.44,0.96,0.54,1.56s0.15,1.26,0.15,1.97c0,1.73-0.16,3.29-0.48,4.68s-0.79,2.72-1.41,3.99
			C140.79,77.69,140.08,78.65,139.24,79.34 M149.17,61.8c-1.27-1.49-3.16-2.23-5.68-2.23c-1.16,0-2.37,0.28-3.63,0.83
			c-1.26,0.55-2.56,1.41-3.89,2.57h-0.17c-0.17-0.41-0.39-0.8-0.65-1.2c-0.25-0.39-0.58-0.72-0.97-1c-0.47-0.33-1.01-0.58-1.62-0.73
			c-0.61-0.15-1.32-0.23-2.12-0.23c-0.96,0-1.98,0.17-3.06,0.51c-1.08,0.34-2.21,0.75-3.39,1.23l-0.48,1.96
			c0.33-0.13,0.76-0.27,1.27-0.41c0.51-0.14,0.99-0.22,1.42-0.22c0.95,0,1.58,0.17,1.9,0.51c0.32,0.34,0.48,0.9,0.48,1.67
			c0,0.42-0.07,0.96-0.21,1.61c-0.14,0.65-0.25,1.19-0.34,1.61l-4.33,19.01c-0.12,0.58-0.3,1.04-0.57,1.38
			c-0.26,0.34-0.64,0.59-1.13,0.75c-0.29,0.09-0.72,0.17-1.29,0.25c-0.57,0.08-1.04,0.13-1.42,0.16l-0.35,1.5h15.74l0.35-1.5
			c-0.46-0.03-1.06-0.11-1.77-0.25c-0.71-0.14-1.23-0.28-1.55-0.42c-0.29-0.13-0.51-0.33-0.65-0.61c-0.14-0.28-0.22-0.58-0.22-0.91
			c0-0.1,0.02-0.28,0.06-0.51c0.04-0.24,0.09-0.45,0.13-0.62l1.32-5.81c0.62,0.49,1.36,0.87,2.21,1.14c0.85,0.27,1.97,0.4,3.36,0.4
			c1.86,0,3.56-0.36,5.1-1.09c1.54-0.72,2.93-1.76,4.16-3.09c1.19-1.29,2.13-2.82,2.82-4.58c0.69-1.77,1.03-3.62,1.03-5.57
			C151.07,65.32,150.44,63.29,149.17,61.8"/>
	</g>
</g>
</svg>
