<?xml version="1.0" encoding="utf-8"?>
<!-- Generator: Adobe Illustrator 27.9.4, SVG Export Plug-In . SVG Version: 9.03 Build 54784)  -->
<svg version="1.1" xmlns="http://www.w3.org/2000/svg" xmlns:xlink="http://www.w3.org/1999/xlink" x="0px" y="0px"
	 viewBox="0 0 310 150" style="enable-background:new 0 0 310 150;" xml:space="preserve">
<style type="text/css">
	.st0{display:none;}
	.st1{display:inline;fill:#FFFFFF;}
	.st2{display:inline;}
	.st3{fill:#4B616A;}
	.st4{fill:#FFFFFF;}
	.st5{fill:#FFFFFF;stroke:#000000;stroke-width:2.5;stroke-miterlimit:10;}
	.st6{stroke:#000000;stroke-width:2.5;stroke-miterlimit:10;}
	.st7{fill:none;stroke:#000000;stroke-width:0.5;stroke-miterlimit:10;}
	.st8{fill:none;stroke:#BEBEBE;stroke-miterlimit:10;}
	.st9{fill:#285758;}
	.st10{fill:#0F8B8D;}
	.st11{fill:#BEBEBE;}
	.st12{fill:none;stroke:#C8C8C8;stroke-width:1.75;stroke-linecap:square;stroke-miterlimit:10;}
	.st13{fill:none;stroke:#C8C8C8;stroke-width:4;stroke-miterlimit:10;}
	.st14{fill:none;stroke:#C8C8C8;stroke-width:1.75;stroke-miterlimit:10;}
	.st15{fill:#0A8B8B;}
	.st16{fill:none;stroke:#0A8B8B;stroke-width:2;stroke-miterlimit:10;}
</style>
<g id="Ebene_2" class="st0">
</g>
<g id="Ebene_1">
	<g>
		<line class="st12" x1="12.7" y1="35.08" x2="295.24" y2="35.08"/>
		<line class="st12" x1="12.7" y1="55.37" x2="295.24" y2="55.37"/>
		<line class="st12" x1="12.7" y1="75.66" x2="295.24" y2="75.66"/>
		<line class="st12" x1="12.7" y1="95.95" x2="295.24" y2="95.95"/>
		<line class="st12" x1="12.7" y1="116.25" x2="295.24" y2="116.25"/>
		<line class="st12" x1="12.7" y1="35.08" x2="12.7" y2="116.25"/>
		<line class="st13" x1="295.35" y1="34.18" x2="295.35" y2="117.04"/>
		<line class="st14" x1="288.64" y1="34.37" x2="288.64" y2="115.65"/>
	</g>
</g>
<g id="Violinschl.">
</g>
<g id="Bassschl.">
	<g>
		<circle class="st15" cx="84.2" cy="45.56" r="5.3"/>
		<circle class="st15" cx="84.64" cy="65.29" r="5.3"/>
		<path class="st15" d="M71.4,48.98c-5.66-13.7-23.14-14.33-29.43-11.83c-2.54,1.01-10.58,4.05-12,11.63
			c-0.15,0.82-0.56,3.59,0.54,5.85c1.1,2.26,2.12,3.49,3.43,4.5c1.38,1.06,3.03,1.78,4.56,2.04c5.68,0.94,11.07-2.44,12.07-7.82
			c0.8-4.27-1.41-8.43-5.18-10.5c1.82-4.62,25.19,2.54,22.52,25.61c-2.4,20.73-13.47,27.27-19.59,30.49
			c-4.54,2.38-13.21,3.74-11.45,4.54c0,0,5.71,0.67,12.57-2.19c7.63-3.18,15.58-9.27,20.61-18.54C73.76,75.92,76.41,61.1,71.4,48.98
			z"/>
	</g>
</g>
<g id="_x31_6tel">
</g>
</svg>
