<?xml version="1.0" encoding="utf-8"?>
<!-- Generator: Adobe Illustrator 27.9.4, SVG Export Plug-In . SVG Version: 9.03 Build 54784)  -->
<svg version="1.1" xmlns="http://www.w3.org/2000/svg" xmlns:xlink="http://www.w3.org/1999/xlink" x="0px" y="0px"
	 viewBox="0 0 310 150" style="enable-background:new 0 0 310 150;" xml:space="preserve">
<style type="text/css">
	.st0{display:none;}
	.st1{display:inline;fill:#FFFFFF;}
	.st2{display:inline;}
	.st3{fill:#4B616A;}
	.st4{fill:#FFFFFF;}
	.st5{fill:#FFFFFF;stroke:#000000;stroke-width:2.5;stroke-miterlimit:10;}
	.st6{stroke:#000000;stroke-width:2.5;stroke-miterlimit:10;}
	.st7{fill:none;stroke:#000000;stroke-width:0.5;stroke-miterlimit:10;}
	.st8{fill:none;stroke:#BEBEBE;stroke-miterlimit:10;}
	.st9{fill:#285758;}
	.st10{fill:#0F8B8D;}
	.st11{fill:#BEBEBE;}
	.st12{fill:none;stroke:#C8C8C8;stroke-width:1.75;stroke-linecap:square;stroke-miterlimit:10;}
	.st13{fill:none;stroke:#C8C8C8;stroke-width:4;stroke-miterlimit:10;}
	.st14{fill:none;stroke:#C8C8C8;stroke-width:1.75;stroke-miterlimit:10;}
	.st15{fill:#0A8B8B;}
	.st16{fill:none;stroke:#0A8B8B;stroke-width:2;stroke-miterlimit:10;}
</style>
<g id="Ebene_2" class="st0">
</g>
<g id="Ebene_1">
	<g>
		<line class="st12" x1="12.7" y1="35.08" x2="295.24" y2="35.08"/>
		<line class="st12" x1="12.7" y1="55.37" x2="295.24" y2="55.37"/>
		<line class="st12" x1="12.7" y1="75.66" x2="295.24" y2="75.66"/>
		<line class="st12" x1="12.7" y1="95.95" x2="295.24" y2="95.95"/>
		<line class="st12" x1="12.7" y1="116.25" x2="295.24" y2="116.25"/>
		<line class="st12" x1="12.7" y1="35.08" x2="12.7" y2="116.25"/>
		<line class="st13" x1="295.35" y1="34.18" x2="295.35" y2="117.04"/>
		<line class="st14" x1="288.64" y1="34.37" x2="288.64" y2="115.65"/>
	</g>
</g>
<g id="Violinschl.">
</g>
<g id="Bassschl.">
</g>
<g id="_x31_6tel">
	<g>
		<line class="st16" x1="153.84" y1="83.57" x2="153.84" y2="15.43"/>
		<ellipse transform="matrix(0.866 -0.5 0.5 0.866 -24.1883 82.7106)" class="st15" cx="142.25" cy="86.49" rx="14.18" ry="9.06"/>
		<path class="st15" d="M154.09,14.41c0,0,4.05,9.37,7.09,12.41s12.41,9.88,13.43,15.2s0,12.92-1.01,14.95
			c-1.01,2.03,2.28-11.4-4.56-17.23s-14.95-9.63-14.95-9.63V14.41z"/>
		<path class="st15" d="M153.84,27.33c0,0,4.05,9.37,7.09,12.41c3.04,3.04,12.41,9.88,13.43,15.2s0,12.92-1.01,14.95
			s2.28-11.4-4.56-17.23s-14.95-9.63-14.95-9.63V27.33z"/>
	</g>
</g>
</svg>
