<?xml version="1.0" encoding="utf-8"?>
<!-- Generator: Adobe Illustrator 27.9.4, SVG Export Plug-In . SVG Version: 9.03 Build 54784)  -->
<svg version="1.1" xmlns="http://www.w3.org/2000/svg" xmlns:xlink="http://www.w3.org/1999/xlink" x="0px" y="0px"
	 viewBox="0 0 595.28 410.76" style="enable-background:new 0 0 595.28 410.76;" xml:space="preserve">
<style type="text/css">
	.st0{display:none;}
	.st1{display:inline;fill:#FFFFFF;}
	.st2{display:inline;}
	.st3{fill:#4B616A;}
	.st4{fill:#FFFFFF;}
	.st5{fill:#FFFFFF;stroke:#000000;stroke-width:2.5;stroke-miterlimit:10;}
	.st6{stroke:#000000;stroke-width:2.5;stroke-miterlimit:10;}
	.st7{fill:none;stroke:#000000;stroke-width:0.5;stroke-miterlimit:10;}
	.st8{fill:#285758;}
	.st9{fill:#0F8B8D;}
	.st10{fill:none;stroke:#C8C8C8;stroke-width:1.75;stroke-linecap:square;stroke-miterlimit:10;}
	.st11{fill:none;stroke:#C8C8C8;stroke-width:4;stroke-miterlimit:10;}
	.st12{fill:none;stroke:#C8C8C8;stroke-width:1.75;stroke-miterlimit:10;}
	.st13{fill:#0A8B8B;}
	.st14{fill:none;stroke:#0A8B8B;stroke-width:2;stroke-miterlimit:10;}
	.st15{clip-path:url(#SVGID_00000020384563404741121650000015897130944231778483_);fill:#0F8B8D;}
	.st16{clip-path:url(#SVGID_00000014594037374946025820000006537788547722611615_);fill:#0A8B8B;}
	.st17{fill:none;stroke:#0A8B8B;stroke-width:3;stroke-miterlimit:10;}
	.st18{fill:#285758;stroke:#285758;stroke-miterlimit:10;}
	.st19{fill:#000A00;stroke:#285758;stroke-miterlimit:10;}
	.st20{opacity:0;fill:#000A00;stroke:#285758;stroke-miterlimit:10;}
	.st21{fill:#285758;stroke:#285758;stroke-width:2;stroke-miterlimit:10;}
	.st22{fill:#229595;}
	.st23{fill:#1E9393;}
	.st24{fill:#259696;}
</style>
<g id="Ebene_2" class="st0">
</g>
<g id="Ebene_1">
</g>
<g id="Grafiken">
	<path class="st23" d="M203.4,227.21c0.42-13.27,0.48-23.48,2.7-33.56c1.38-6.27,3.16-12.37,5.45-18.34
		c1.37-3.58,2.93-7.09,4.52-10.57c6.71-14.7,15.9-27.54,27.71-38.7c22.77-21.5,30.7-27.95,57.45-44.48
		c4.89-3.02,9.93-5.81,14.81-8.85c7.71-4.79,16.18-7.56,24.91-9.64c5.66-1.35,11.39-1.42,17.14-0.6c2.6,0.37,4.84,1.51,6.92,3.05
		c1.68,1.25,2.13,2.99,2.09,4.97c-0.03,1.53-2.3,3.62-3.91,3.64c-1.26,0.02-2.57,0.23-3.78-0.01c-4.49-0.91-8.86-0.58-13.25,0.69
		c-11.11,3.21-21.69,7.58-31.51,13.75c-3.25,2.04-6.49,4.09-9.82,5.98c-18,10.17-33.31,23.62-47.4,38.58
		c-3.08,3.28-5.77,6.8-7.83,10.83c-3.2,6.26-6.74,12.33-10.69,18.16c-7.65,11.28-12.03,24-15.17,37.06
		c-2.54,10.55-4.06,21.34-4.52,32.24c-0.19,4.6,0.82,8.71,3.63,12.58c6.82,9.41,15.08,17.35,24.18,24.44
		c2.49,1.94,5.4,3.39,8.26,4.76c7.56,3.61,15.61,5.7,23.9,6.65c10.18,1.17,20.44,1.44,30.62,0.27c9.52-1.09,18.86-3.27,27.86-6.75
		c3.62-1.4,6.89-3.32,10.13-5.37c9.48-6.01,13.52-15.02,13.94-25.85c0.3-7.7-0.58-15.32-2.5-22.79c-0.48-1.86-1.12-3.67-1.6-5.53
		c-1.46-5.69-4.5-10.48-8.03-15.11c-7.94-10.41-18.21-17.83-29.68-23.76c-2.24-1.16-4.73-1.92-7.17-2.61
		c-11.58-3.29-22.77-1.81-33.65,2.96c-4.68,2.05-9.31,4.22-13.99,6.26c-1.75,0.76-3.58,1.35-5.41,1.92c-0.58,0.18-1.27,0.08-1.9,0
		c-4.07-0.51-7.18-2.44-8.94-6.25c-1.79-3.88-0.94-7.47,1.41-10.79c0.72-1.02,1.7-1.95,2.74-2.65c6.89-4.66,14.17-8.69,21.77-12.04
		c10.03-4.42,20.61-6.77,31.55-7.36c6.45-0.35,12.79,0.65,18.92,2.53c5.48,1.68,11.02,3.41,15.99,6.39
		c7.12,4.26,14.32,8.43,21.18,13.08c8.13,5.52,13.75,13.19,17.59,22.25c3.27,7.74,5.05,15.81,5.9,24.11
		c0.19,1.89,0.3,3.86,0.01,5.73c-1.62,10.73-2.37,21.61-5.24,32.14c-0.5,1.85-0.75,3.81-1.53,5.53
		c-7.55,16.75-17.63,31.09-35.77,37.94c-9.64,3.64-19.5,6.1-29.76,6.88c-18.61,1.42-37.01,0.04-55.18-4.33
		c-0.62-0.15-1.24-0.3-1.87-0.44c-14.45-3.21-37.84-20.75-44.82-31.43c-4.3-6.57-6.94-13.7-7.65-21.44
		C203.54,236.96,203.54,230.56,203.4,227.21z"/>
	<path class="st23" d="M304.39,327.74c34.32-2.48,68.71-2.16,103.09-2.46c1.96-0.02,3.98,0.15,5.88,0.61
		c6.3,1.53,11.15,7.65,7.54,15.23c-0.54,1.13-1.54,2.14-2.54,2.94c-2.09,1.68-4.57,2.71-7.2,3.07c-2.61,0.36-5.27,0.49-7.91,0.55
		c-25.11,0.64-50.2,2.11-75.34,2.09c-6.6-0.01-13.22,0.3-19.81,0.8c-9.25,0.7-18.48,0.73-27.73,0.06
		c-20.48-1.5-40.95-1.25-61.4,0.77c-7.24,0.71-14.48,1.39-21.73,1.93c-5.95,0.44-11.89,0.18-17.79-0.85
		c-3.31-0.57-6.35-1.75-9.17-3.56c-2.3-1.48-3.86-3.51-4.79-6.09c-1.26-3.51,0.36-8.32,3.48-10.49c2.19-1.52,4.51-2.71,7.06-3.5
		c12.14-3.79,24.59-5.01,37.23-4.44c9.25,0.42,18.48,1.15,27.72,1.67c11.88,0.66,23.77,1.26,35.65,1.86
		C285.9,328.43,295.15,328.38,304.39,327.74z"/>
</g>
</svg>
