<?xml version="1.0" encoding="utf-8"?>
<!-- Generator: Adobe Illustrator 27.9.4, SVG Export Plug-In . SVG Version: 9.03 Build 54784)  -->
<svg version="1.1" xmlns="http://www.w3.org/2000/svg" xmlns:xlink="http://www.w3.org/1999/xlink" x="0px" y="0px"
	 viewBox="0 0 595.28 410.76" style="enable-background:new 0 0 595.28 410.76;" xml:space="preserve">
<style type="text/css">
	.st0{display:none;}
	.st1{display:inline;fill:#FFFFFF;}
	.st2{display:inline;}
	.st3{fill:#4B616A;}
	.st4{fill:#FFFFFF;}
	.st5{fill:#FFFFFF;stroke:#000000;stroke-width:2.5;stroke-miterlimit:10;}
	.st6{stroke:#000000;stroke-width:2.5;stroke-miterlimit:10;}
	.st7{fill:none;stroke:#000000;stroke-width:0.5;stroke-miterlimit:10;}
	.st8{fill:#285758;}
	.st9{fill:#0F8B8D;}
	.st10{fill:none;stroke:#C8C8C8;stroke-width:1.75;stroke-linecap:square;stroke-miterlimit:10;}
	.st11{fill:none;stroke:#C8C8C8;stroke-width:4;stroke-miterlimit:10;}
	.st12{fill:none;stroke:#C8C8C8;stroke-width:1.75;stroke-miterlimit:10;}
	.st13{fill:#0A8B8B;}
	.st14{fill:#0F8B8D;stroke:#285758;stroke-miterlimit:10;}
	.st15{fill:none;stroke:#0A8B8B;stroke-width:2;stroke-miterlimit:10;}
	.st16{clip-path:url(#SVGID_00000126309817707870552670000006902650633768349366_);fill:#0F8B8D;}
	.st17{clip-path:url(#SVGID_00000137123991420706557940000009018312364464614529_);fill:#0A8B8B;}
	.st18{fill:none;stroke:#0A8B8B;stroke-width:3;stroke-miterlimit:10;}
	.st19{fill:#285758;stroke:#285758;stroke-miterlimit:10;}
	.st20{fill:#000A00;stroke:#285758;stroke-miterlimit:10;}
	.st21{opacity:0;fill:#000A00;stroke:#285758;stroke-miterlimit:10;}
	.st22{fill:#285758;stroke:#285758;stroke-width:2;stroke-miterlimit:10;}
	.st23{fill:#229595;}
	.st24{fill:#1E9393;}
	.st25{fill:#259696;}
	.st26{fill:#2A9999;}
</style>
<g id="Ebene_2" class="st0">
</g>
<g id="Ebene_1">
</g>
<g id="Grafiken">
	<path class="st24" d="M311.18,332.83c34.32-2.48,68.71-2.16,103.09-2.46c1.96-0.02,3.98,0.15,5.88,0.61
		c6.3,1.53,11.15,7.65,7.54,15.23c-0.54,1.13-1.54,2.14-2.54,2.94c-2.09,1.68-4.57,2.71-7.2,3.07c-2.61,0.36-5.27,0.49-7.91,0.55
		c-25.11,0.64-50.2,2.11-75.34,2.09c-6.6-0.01-13.22,0.3-19.81,0.8c-9.25,0.7-18.48,0.73-27.73,0.06
		c-20.48-1.5-40.95-1.25-61.4,0.77c-7.24,0.71-14.48,1.39-21.73,1.93c-5.95,0.44-11.89,0.18-17.79-0.85
		c-3.31-0.57-6.35-1.75-9.17-3.56c-2.3-1.48-3.86-3.51-4.79-6.09c-1.26-3.51,0.36-8.32,3.48-10.49c2.19-1.52,4.51-2.71,7.06-3.5
		c12.14-3.79,24.59-5.01,37.23-4.44c9.25,0.42,18.48,1.15,27.72,1.67c11.88,0.66,23.77,1.26,35.65,1.86
		C292.69,333.52,301.94,333.47,311.18,332.83z"/>
	<path class="st26" d="M299.71,270.71c-0.46-11.24,1.15-22.22-0.4-33.17c-0.19-1.35-1.27-2.64-2.15-3.79c-0.38-0.49-1.3-0.61-2-0.79
		c-1.4-0.37-2.81-0.86-4.24-0.95c-3.65-0.24-7.31-0.34-10.97-0.39c-11.79-0.15-23.38-1.97-34.62-5.32
		c-9.18-2.74-18.32-5.05-27.95-4.99c-0.7,0-1.39-0.47-2.1-0.6c-4.09-0.77-6.92-6.59-5.31-10.48c2.81-6.8,6.68-13.02,10.56-19.2
		c7-11.17,13.22-22.77,19.47-34.37c12.5-23.19,25.1-46.32,36.63-70.01c1.28-2.62,2.91-5.06,5.19-7c1.78-1.51,3.79-2.02,6.04-1.58
		c2.47,0.48,3.46,2.36,4.17,4.49c0.48,1.44,0.53,2.93-0.22,4.28c-6.37,11.54-11.65,23.6-17.35,35.46
		c-8.56,17.8-17.41,35.46-26.17,53.17c-4.23,8.55-9.51,16.47-14.72,24.43c-0.8,1.22-1.62,2.48-2.07,3.84
		c-0.44,1.35-0.89,3.01-0.47,4.24c0.41,1.21,1.73,2.47,2.96,2.98c17.12,7.13,34.87,10.88,53.51,9.28c2.18-0.19,4.34-0.62,6.51-0.96
		c3.75-0.6,6.69-3.65,7.17-7.17c1.3-9.47,1.63-18.94,0.44-28.46c-0.45-3.61-0.5-7.27-0.64-10.92c-0.08-2.11,3.42-5.43,5.91-5.75
		c3.44-0.44,7.87,2.97,7.75,6.12c-0.2,5.11-0.53,10.21-0.83,15.31c-0.42,7.3-1.1,14.59,0.42,21.85c0.34,1.63,3.13,3.85,4.85,3.63
		c2.17-0.28,4.41-0.33,6.48-0.95c4.2-1.26,8.41-2.58,12.42-4.34c7.36-3.24,14.57-6.83,21.86-10.23c1.98-0.92,4.03-1.72,6.08-2.47
		c5.21-1.9,12.03,2.16,13.42,8.16c0.7,3.04-0.53,5.8-2.45,8.09c-1.9,2.26-4.38,3.87-7.12,4.99c-14.28,5.84-28.76,10.82-44.41,11.4
		c-2.14,0.08-4.25,0.94-6.37,1.47c-1.72,0.42-3.9,3.06-3.88,4.8c0.19,12.44,0.36,24.87,0.63,37.31c0.13,5.91,1.83,11.55,3.33,17.21
		c0.94,3.53,2.12,7,3.07,10.52c1.46,5.39-1.98,12.07-7.59,14.28c-3.58,1.41-7.15,1.07-10.28-1.53c-3.59-2.98-5.43-6.85-5.56-11.44
		c-0.1-3.65,0.11-7.32,0.24-10.97C299.17,283.61,299.45,277.03,299.71,270.71z"/>
</g>
</svg>
