<?xml version="1.0" encoding="utf-8"?>
<!-- Generator: Adobe Illustrator 27.9.4, SVG Export Plug-In . SVG Version: 9.03 Build 54784)  -->
<svg version="1.1" xmlns="http://www.w3.org/2000/svg" xmlns:xlink="http://www.w3.org/1999/xlink" x="0px" y="0px"
	 viewBox="0 0 595.28 410.76" style="enable-background:new 0 0 595.28 410.76;" xml:space="preserve">
<style type="text/css">
	.st0{display:none;}
	.st1{display:inline;fill:#FFFFFF;}
	.st2{display:inline;}
	.st3{fill:#4B616A;}
	.st4{fill:#FFFFFF;}
	.st5{fill:#FFFFFF;stroke:#000000;stroke-width:2.5;stroke-miterlimit:10;}
	.st6{stroke:#000000;stroke-width:2.5;stroke-miterlimit:10;}
	.st7{fill:none;stroke:#000000;stroke-width:0.5;stroke-miterlimit:10;}
	.st8{fill:#285758;}
	.st9{fill:#0F8B8D;}
	.st10{fill:none;stroke:#C8C8C8;stroke-width:1.75;stroke-linecap:square;stroke-miterlimit:10;}
	.st11{fill:none;stroke:#C8C8C8;stroke-width:4;stroke-miterlimit:10;}
	.st12{fill:none;stroke:#C8C8C8;stroke-width:1.75;stroke-miterlimit:10;}
	.st13{fill:#0A8B8B;}
	.st14{fill:none;stroke:#0A8B8B;stroke-width:2;stroke-miterlimit:10;}
	.st15{clip-path:url(#SVGID_00000015353244682340418910000017409553589326331564_);fill:#0F8B8D;}
	.st16{clip-path:url(#SVGID_00000044875169907543058170000001546164406684017298_);fill:#0A8B8B;}
	.st17{fill:none;stroke:#0A8B8B;stroke-width:3;stroke-miterlimit:10;}
	.st18{fill:#285758;stroke:#285758;stroke-miterlimit:10;}
	.st19{fill:#000A00;stroke:#285758;stroke-miterlimit:10;}
	.st20{opacity:0;fill:#000A00;stroke:#285758;stroke-miterlimit:10;}
	.st21{fill:#285758;stroke:#285758;stroke-width:2;stroke-miterlimit:10;}
</style>
<g id="Ebene_2" class="st0">
</g>
<g id="Ebene_1">
</g>
<g id="Grafiken">
	<path class="st18" d="M291.97,158.32c-0.33,0.14-1.73,0.55-4.84,1.27c-3.11,0.71-6.52,2.02-9.57,3.56c-3.05,1.53-5.9,3.11-8.09,4.5
		c-2.19,1.38-4.18,2.8-5.69,4.01c-1.5,1.21-3.2,2.53-5.09,4.06c-1.89,1.53-4.41,3.59-7.37,6.12c-2.95,2.53-5.31,4.6-6.93,6.1
		c-1.63,1.49-3.93,3.95-6.63,7.08c-2.7,3.13-4.81,5.56-6.3,7.29c-1.49,1.73-2.94,3.4-4.34,5c-1.4,1.61-3.43,4.25-5.88,7.63
		c-2.44,3.38-4.58,6.85-6.09,9.86c-1.51,3.01-2.72,5.67-3.46,7.6c-0.74,1.93-1.64,4.26-2.66,7.02c-1.03,2.76-2.17,6.49-3.24,10.79
		c-1.07,4.3-1.89,9.47-2.31,14.88c-0.42,5.42-0.63,10.1-0.67,13.76c-0.06,3.66,0.05,6.85,0.17,9.31c0.12,2.46,0.45,4.73,0.82,6.04
		c0.36,1.3,0.77,2.87,1.19,4.79c0.42,1.92,1.86,5.17,3.84,8.71c1.98,3.54,4.52,7.18,7.13,10.19c2.6,3.01,4.86,5.37,6.29,6.63
		c1.43,1.26,2.92,2.47,4.19,3.57c1.26,1.1,3.57,2.53,6.18,4.14c2.6,1.62,5.28,2.97,7.57,4.05c2.29,1.08,6.7,2.31,11.9,3.33
		c5.2,1.02,9.31,1.74,12.06,2.24c2.76,0.5,5.78,0.84,8.61,1.16c2.82,0.33,5.76,0.45,8.35,0.57c2.59,0.13,4.94,0.21,7.44,0.48
		c2.5,0.28,7.29,0.06,13.17-0.41c5.88-0.48,10.31-0.88,13.39-1.14c3.09-0.26,7.01-0.95,10.39-1.76c3.38-0.82,6.33-1.65,8.5-2.3
		c2.17-0.65,5.35-1.71,9.37-2.94c4.03-1.2,8.97-3.39,13.65-5.68c4.68-2.3,10.42-5.93,16.27-9.96c5.87-4,11.42-8.3,16.2-12.16
		c4.78-3.87,9.66-8.35,14.16-12.57c4.51-4.21,8.15-7.97,10.83-10.76c2.68-2.79,5.88-6.62,8.98-10.53c3.1-3.91,5.73-7.51,7.56-10.21
		c1.82-2.7,4.07-6.45,5.83-10.21c1.77-3.76,3.85-8.25,5.56-12.35c1.71-4.1,3.02-7.76,3.75-9.91c0.73-2.16,1.27-3.96,1.77-5.47
		c0.5-1.51,1.19-5.83,1.74-10.54c0.55-4.7,0.75-9.68,0.59-13.38c-0.15-3.7-0.4-7.35-1.02-9.63c-0.61-2.28-1.31-5.73-2.35-8.89
		c-1.04-3.15-2.58-7.29-4.1-10.42c-1.52-3.13-3.83-6.79-5.62-8.94c-1.79-2.15-3.87-4.38-5.2-5.53c-1.33-1.16-5.03-3.29-8.15-4.29
		c-3.11-1.02-9.48-2.3-16.74-2.97c-2.51-0.26-4.75,1.56-5.01,4.07c-0.26,2.51,1.56,4.75,4.07,5.01c7.24,0.83,11.15,1.51,14.11,2.89
		c2.95,1.41,3.6,1.66,4.89,2.87c1.29,1.21,2.3,2.32,4.07,4.49c1.76,2.17,2.76,3.8,4.29,6.93c1.53,3.13,2.35,5.33,2.98,8.59
		c0.63,3.26,1.06,5.34,1.06,7.7c-0.01,2.36,0.13,4.74,0.18,8.45c0.04,3.71-0.11,7.15-0.45,11.88c-0.35,4.72-0.56,6.64-0.99,8.17
		c-0.43,1.53-0.99,3.43-1.55,5.64c-0.56,2.21-1.52,4.87-3.08,9.03c-1.56,4.16-3.08,7.47-5.22,11.03c-2.15,3.56-3.7,6.17-5.56,8.85
		c-1.86,2.68-4.1,5.74-7.07,9.75c-2.97,4.01-5.44,6.99-8.02,9.88c-2.58,2.89-5.92,6.34-10.12,10.86c-4.2,4.52-8.38,8.36-13.01,12.41
		c-4.63,4.05-9.55,7.85-15.22,12.12c-5.69,4.24-10.32,7.19-14.85,9.79c-4.52,2.59-8.16,4.22-12.07,5.76
		c-3.92,1.51-6.88,2.5-9.03,3.21c-2.15,0.72-4.73,1.45-8.07,2.41c-3.34,0.96-5.87,1.42-8.96,1.67c-3.09,0.25-7.62,0.67-13.48,1.32
		c-5.86,0.66-9.46,0.85-11.97,0.83c-2.52-0.02-5.26-0.12-7.84-0.02c-2.59,0.08-5.07-0.02-7.91-0.12c-2.84-0.1-5.41-0.39-8.2-0.72
		c-2.78-0.33-6.65-1.01-11.86-1.97c-5.21-0.96-8.31-1.78-10.63-2.79c-2.32-1.01-4.62-2.17-7.39-3.49c-2.76-1.33-4.46-2.37-5.87-3.29
		c-1.4-0.91-2.69-1.95-4.15-3.16c-1.47-1.21-3.26-3.11-5.87-6.11c-2.61-3.01-4.64-5.92-6.61-9.46c-1.97-3.54-2.98-5.73-3.52-7.62
		c-0.53-1.89-0.96-3.53-1.3-4.84c-0.34-1.31-0.54-2.8-0.8-5.25c-0.25-2.45-0.35-5.37-0.46-9.03c-0.09-3.65,0.11-8.04,0.53-13.45
		c0.42-5.42,1.14-9.96,2.27-14.24c1.14-4.28,2.16-7.59,3.25-10.33c1.09-2.73,1.99-5.08,2.72-7.02c0.73-1.94,1.77-4.23,3.29-7.23
		c1.52-3.01,3.33-5.94,5.77-9.33c2.43-3.39,4.24-5.75,5.65-7.36c1.4-1.61,2.86-3.28,4.35-5.01c1.5-1.73,3.6-4.15,6.33-7.25
		c2.73-3.11,4.75-5.27,6.35-6.8c1.6-1.53,3.81-3.48,6.78-5.99c2.97-2.51,5.33-4.44,7.31-5.86c1.97-1.42,3.72-2.78,5.25-3.96
		c1.53-1.18,3.21-2.38,5.36-3.83c2.15-1.45,4.53-2.77,7.63-4.2c3.1-1.43,5.83-2.48,8.84-3.54c3.01-1.05,5-1.68,5.31-1.86
		c0.89-0.44,1.27-1.51,0.83-2.41C293.94,158.26,292.86,157.89,291.97,158.32z"/>
	<path class="st18" d="M425.06,29.86c0,0,1.3,0.67,1.78,0.85c0.48,0.18,0.89,0.43,1.21,0.7c0.31,0.27,0.67,0.48,0.84,0.61
		c0.16,0.12,0.6,0.34,0.79,0.46c0.19,0.11-0.19-0.08,0.37,0.46c0.56,0.54,5.56,1.81,10.73,2.16c5.17,0.34,9.54,0.71,13.32,1.12
		c3.78,0.4,6.44,0.85,9.17,1.72c2.73,0.86,4.82,1.53,6.99,2.48c2.17,0.95,3.43,1.6,5.28,2.98c1.83,1.41,2.49,1.93,3.52,3.33
		c1.03,1.4,1.75,2.36,2.78,4.24c0.99,1.9,1.09,2.13,1.55,4.2c0.47,2.07,0.51,2.78,0.34,5.1c-0.17,2.32-0.33,3.38-0.75,5.34
		c-0.42,1.96-1.34,4.31-3.27,8.36c-1.93,4.05-4.36,8.61-8.46,14.61c-1.66,2.79-0.74,6.39,2.05,8.05c2.79,1.66,6.39,0.74,8.05-2.05
		c3.3-6.48,6.36-12.27,7.98-16.46c1.62-4.18,3.01-7.88,3.65-9.77c0.63-1.9,1.15-5.09,1.27-7.42c0.12-2.33-0.16-6.02-0.64-8.09
		c-0.47-2.07-2.01-5.69-3.36-7.37c-1.3-1.7-2.91-3.82-4.18-5c-1.28-1.18-3.7-3.23-5.72-4.36c-2-1.16-4.87-2.64-7.11-3.39
		c-2.24-0.76-5.12-1.69-7.92-2.33c-2.8-0.63-6.68-1.31-10.46-1.67c-3.78-0.36-8.36-0.75-13.52-1.16c-5.16-0.41-5.93-0.01-6.58-0.44
		c-0.65-0.43-1.84-1.21-2.05-1.28c-0.21-0.07-0.15-0.04-0.34-0.11c-0.19-0.07-0.35-0.16-0.74-0.31"/>
	<path class="st18" d="M425.06,29.86c0.03,1.79,0.14,3.38,0.27,4.9c0.12,1.51,0.49,4.13,1.07,6.76c0.57,2.63,0.91,4.89,1.3,7.39
		c0.39,2.5,0.64,5.6,0.93,9.68c0.29,4.08,0.86,9.76,1.48,16.6c0.61,6.84,1.27,11.81,1.55,14.6c0.28,2.79,0.65,5.62,0.96,9.03
		c0.3,3.41,0.69,7.78,1.17,13.44c0.48,5.65,0.87,9.95,1.17,12.49c0.29,2.53,0.84,6.22,1.63,10.63s1.42,7.71,1.86,8.96
		c0.43,1.24,0.86,2.9,1.51,5.05c0.63,2.16,1.51,5.03,2.73,7.7c1.25,2.67,2.22,5,2.65,5.45c0.43,0.45,0.62,0.85,1.25,1.77
		c0.63,0.93,1.18,2.09,1.88,3.06c0.35,0.48,1.23,1.67,1.47,1.77c0.04,0.05,0.84,0.55,0.87,0.58c0.04,0.03,1.68,0.21,1.72,0.21
		c0.04,0.01,1.58-0.83,1.62-0.85c0.04-0.03,0.63-0.91,0.66-0.95c-0.16-2.72-0.27-3.03-0.35-3.25c-0.04-0.11,0.04,0.19,0.04,0.16
		c0,0.01,0.04,0.93,0.04,0.92c-0.03,0.17-4.91,1.66-4.91,1.66c0.04,0.04-0.47-0.65-0.46-0.62c0.74,1.4,2.48,1.94,3.88,1.2
		c1.4-0.74,1.94-2.48,1.2-3.89c-0.01-0.02-0.54-0.74-0.55-0.75c0.03,0.03-4.85,1.52-4.85,1.52c-0.03,0.18,0.01,1.1,0.01,1.11
		c0.01,0.04,0.14,0.48,0.17,0.59c0.08,0.22,0.25,0.67,0.45,1.21c0.04-2.13,0.57-2.93,0.55-2.89c-0.01,0.03,1.47-0.77,1.44-0.75
		c-0.03,0.02,1.54,0.19,1.5,0.18c-0.04,0,0.67,0.44,0.62,0.41c-0.12-0.22,0.31,0.28,0.12-0.28c-0.37-1.14-0.81-2.03-1.09-3.12
		c-0.28-1.09-0.86-2.21-1.05-2.8c-0.2-0.59-0.51-1.54-1.22-4.39c-0.73-2.85-1.38-4.93-1.84-7.13c-0.44-2.21-0.9-4.01-1.15-5.3
		c-0.25-1.29-0.68-3.68-1.34-8.11c-0.66-4.43-1.15-7.71-1.46-10.24c-0.32-2.53-0.67-6.42-1.07-12.08
		c-0.4-5.66-0.82-10.34-1.25-13.73c-0.43-3.39-0.88-6.72-1.5-9.46c-0.62-2.74-1.24-7.35-2.29-14.14
		c-1.04-6.79-1.57-12.01-1.79-16.09c-0.23-4.08-0.51-7.57-0.68-10.09c-0.17-2.52-0.6-5.41-1.03-8.07c-0.41-2.66-0.64-4.2-0.71-5.72
		c-0.07-1.52-0.19-3.23-0.43-5"/>
	<path class="st18" d="M264.12,200.02c-0.3,0.33-1.06,2.93-1.05,4.66c0,1.73,0.01,3.17,0.03,4.27c0.01,1.1,0.37,2.91,0.7,3.69
		c0.33,0.78,1.95,2.5,2.43,2.7c0.48,0.21,1.68,0.53,2.49,0.66c0.2,0.03,2.02-0.37,2.23-0.5c0.21-0.14,1.04-0.95,1.26-1.25
		c0.44-0.6,1.18-2.1,1.64-3.37c0.93-2.54,1.66-4.78,2.08-6.33c0.42-1.55,0.79-3.68,0.96-5.59c0.17-1.91,0.24-3.67,0.16-4.69
		c-0.08-1.02-0.41-2.62-0.66-3.12c-0.25-0.5-0.52-1.07-0.79-1.51c-0.27-0.44-1.91-1.84-2.65-2.07c-0.74-0.24-3.22-0.06-4.23,0.41
		c-1.02,0.46-3.19,3.09-4.57,5.87c-1.39,2.77-2.55,5.72-3.32,8.16c-0.76,2.44-1.3,5.38-1.52,7.79c-0.22,2.41,0.14,5.54,0.27,7.78
		c2.09,2.32,4.37,2.51,4.84,2.72c0.47,0.21,2.68-0.92,3.26-1.03c0.79-0.64,2.63-3.52,3.31-5.21c1.37-3.38,2.42-6.55,2.83-8.76
		c0.42-2.21,0.88-4.64,0.93-5.74c0.05-1.1,0.1-2.36,0.13-3.42c0.02-1.06-0.74-4.04-1.05-4.66c-0.32-0.61-2.84-2.72-3.44-2.78
		c-0.15-0.01-2.77-0.11-2.91-0.01c-0.14,0.09-1.65,0.89-1.8,1.07c-0.25,0.4-1.41,1.75-1.71,2.5c-0.61,1.48-1.86,4.8-2.55,8.29
		c-0.7,3.49-1.4,6.64-1.84,9.15c-0.44,2.51-0.27,6.82,0.92,10.74c3.2,1.92,4.82,1.54,5.45,1.49c0.64-0.02,2.97-2.73,5.14-5.27
		c2.19-2.53,3.82-6.42,4.76-9.3c0.96-2.88,1.63-6.1,2.12-8.48c0.49-2.38-0.32-7.43-1.9-9.41c-4.89-2.08-7.5-0.41-7.63,0.04
		c-0.13,0.45-0.84,1.62-0.98,2.33c-0.54,1.3-1.4,3.63-2.08,6.09c-1.37,4.92-2.36,11.46-2.31,17.95c5.39,1.87,6.14,0.58,6.33,0.23
		c0.1-0.17,0.21-0.54,0.27-0.63c0.01-0.05,0.1-0.53,0.09-0.55c0-0.01-0.01-0.76-0.01-0.77c0,0.02-1.44-2.24-1.44-2.24
		c0,0,1.32,1.75,1.32,1.74c0.01,0.03,0.12,0.81,0.12,0.8c-0.01-0.02-0.04,0.5-0.04,0.47c0.16-0.05,0.12,0.16,0.3,0.06
		c0.4-0.19,1.19-4.49,2.94-12.09c-3.72,3.37-3.79,3.37-3.55,3.41c2.26,0.2,4.25-1.48,4.45-3.74c0.2-2.26-1.48-4.25-3.74-4.45
		c-0.24,0-0.87-0.03-1.2-0.05c-5.03,11.13-5.67,14.78-5.43,15.14c0.11,0.18,0.01,0.61,0.15,0.71c-0.01,0.04-0.05,0.62-0.06,0.64
		c0,0.01,0.11,0.81,0.11,0.82c0.01,0.04,1.34,1.8,1.34,1.8c0,0-1.43-2.25-1.43-2.24c0,0.04,0-0.69-0.01-0.68
		c-0.01,0.03,0.07-0.38,0.05-0.33c0.01,0.11,0.03,0.02,0.01,0.22c-0.06,0.39,0.38-0.33,0.18-0.16c5.69-4.39,6.39-9.21,8.04-14.04
		c0.83-2.42,1.32-3.8,2-5.03c0.46-0.56,0.32-0.36,0.72-0.6c0.4-0.24-1.71,1.05-1.45,1.17c-4.13,0.17-4.19-0.26-4.36,2.16
		c-0.17,2.42-0.61,4.53-1.23,7.5c-0.64,2.97-1.44,4.86-2.54,8.02c-1.13,3.15-0.96,3.54-1.37,4.03c-0.43,0.46-0.07,0.36-0.81,0.35
		c2.06-2.12,1.9-4.3,2.36-6.8c0.47-2.5,1.09-5.29,2.11-8.7c1.03-3.4,1.49-4.87,2.55-6.06c0.55-0.59,0.15-0.18,0.59-0.35
		c0.2-0.1-0.98,0.51-0.81,0.51c0.17,0-2.15-0.09-2.03,0.01c0.49,0.35-1.13-0.96-0.73-0.4c0.4,0.56-0.02-0.78-0.03,0.28
		c-0.02,1.06-0.05,1.95-0.14,3.04c-0.09,1.1-0.29,1.93-1.04,4.05c-0.76,2.12-1.57,4.53-2.73,7.98c-0.58,1.73-0.14,1.24-0.86,1.97
		c-0.18,0.57,1.24-0.14,0.89,0.25c-0.35,0.38,1.07,0.49,0.52,0.61c0.55-0.03,0.41-1.37,0.5-3.79c0.09-2.42,0.44-4.34,1.15-6.8
		c0.7-2.46,1.62-4.76,2.92-7.57c1.3-2.82,1.48-3.46,2.48-3.96c1-0.5,0.25-0.53,0.97-0.23c0.72,0.3,0.03-0.37,0.23,0.1
		c0.2,0.47,0.38,0.86,0.6,1.37c0.21,0.51,0.15,0.44,0.15,1.46c0.01,1.02-0.05,2.18-0.22,4.09c-0.17,1.91-0.39,3.23-0.81,4.79
		c-0.42,1.55-1.03,3.42-1.95,5.97c-0.46,1.27-0.61,1.66-1.04,2.26c-0.22,0.3,0.19-0.07-0.02,0.06c-0.21,0.14,1.2-0.16,1-0.19
		c-0.81-0.12-0.89-0.13-1.36-0.33c-0.48-0.21,0.33,0.52,0-0.26c-0.33-0.78-0.32-0.85-0.34-1.94c-0.01-1.1-0.02-2.49-0.03-4.22
		c0-1.73-0.46-1.19-0.16-1.52c0.86-0.94,0.8-2.41-0.14-3.27C266.45,199.02,264.99,199.08,264.12,200.02z"/>
	<path class="st18" d="M348.1,176.76c0,0-6.85-3.04-6.85-3.04c0-0.11,0.09-0.71,0.08-0.7c-0.01,0.03,0.04-0.17,0.03-0.11
		c-0.03,0.12-0.05,0.18-0.12,0.42c-0.14,0.46-0.34,1.11-0.64,2.05c-0.6,1.88-1.08,5.25-1.08,7.63c0.01,2.38,0.06,4.42,0.13,5.63
		c0.08,1.21,0.92,4.04,1.88,4.67c0.94,0.64,3.51,2.62,4.26,3.01c0.75,0.39,4.31-0.26,5.41-0.6c1.09-0.36,3.59-3.47,4.74-5.84
		c1.16-2.37,2.35-5.69,3.03-8.33c0.68-2.64,1.16-5.49,1.33-7.01c0.17-1.51,0.01-3.93-0.09-4.98c-0.03-0.53-1.18-2.89-1.39-3.27
		c-0.47-0.16-2.82-1.73-3.34-1.63c-1.04,0.23-4.73,0.61-5.69,1.25c-0.97,0.63-3.44,3.24-4.66,5.6c-1.22,2.36-2.57,5.27-3.29,7.57
		c-0.72,2.3-1.32,4.57-1.55,6.03c-0.23,1.46-0.42,3.1-0.46,4.05c-0.05,0.94-0.06,1.69-0.05,2.21c0.01,0.26,0.34,1.79,0.45,1.97
		c0.02,0.22,1.27,1.59,1.42,1.77c0.29,0.36,2.87,0.87,3.29,0.95c0.42,0.09,3.19-1.83,3.98-2.55c0.78-0.71,1.78-2.5,2.46-4.18
		c0.68-1.67,1.56-3.99,1.91-5.96c0.37-1.97,0.85-3.94,1.36-5.17c0.52-1.22,0.67-3.31,1.01-4.63c-1.98-3.55-5.24-4.19-5.31-4.22
		c-0.07-0.03-2.26,1.06-2.35,1.08c-0.19,0.05-1.37,1.62-1.6,1.89c-0.46,0.53-1.13,2.33-1.68,3.64c0.23,3-0.81,7.53-0.91,13.43
		c1.16,3.04,1.78,3.49,2.03,3.74c1.43,0.89,3.31,0.46,4.2-0.97c0.89-1.43,0.46-3.31-0.97-4.2c-0.34-0.12-0.26-0.07-0.56-0.21
		c3.14-2.71,4.02-6.59,5.81-9c0.23-1.4,0.25-1.56,0.4-2.24c0.07-0.34-0.82,0.81-0.75,0.63c0.03-0.09-2.03,0.93-1.98,0.88
		c0.05-0.05-3.1-0.68-3.02-0.68c-1.52-2.18-1.56-1.68-1.48-0.36c0.06,1.33-0.24,2.54-1.01,4.4c-0.78,1.85-1.24,3.08-2.11,4.66
		c-0.87,1.59-1.23,2.28-1.62,3.26c-0.39,0.99,1.41-0.01,1.04,0.21c-0.37,0.22,1.45,0.56,0.99,0.46c-0.23-0.05,0.74,1.02,0.58,0.87
		c-0.08-0.19,0.17,0.89,0.18,0.63c0.03-0.52,0.04-1.23,0.03-2.18c-0.01-0.95,0.09-1.71,0.37-3.16c0.29-1.45,0.69-2.94,1.45-5.23
		c0.77-2.29,1.54-3.94,3.07-6.11c1.54-2.17,1.46-2.37,2.53-2.82c1.07-0.44-0.73-0.33-0.01,0.46c0.36,0.38-1.28-0.72-1.2-0.23
		c0.34,0.27-0.42-1.24-0.23-0.75c0.35,1,0.33,1.13,0.34,2.65c0.01,1.53-0.24,2.85-0.86,5.5c-0.62,2.66-1.23,4.35-2.39,6.72
		c-1.16,2.37-0.75,2.22-1.54,3.06c-0.77,0.86,1.06,0.61,0.21,0.61c-0.85,0,0.41,0.89,0.31-0.24c-0.07-1.15,0.17-0.41,0.1-1.62
		c-0.08-1.21-0.11-2.76-0.12-5.14c-0.01-2.38,0.1-3.28,0.7-5.16c0.3-0.94,0.53-1.69,0.67-2.15c0.07-0.23,0.15-0.51,0.18-0.62
		c0.01-0.05,0.08-0.33,0.09-0.35c0-0.01,0.09-0.64,0.09-0.64c0.01-0.12-6.85-3.16-6.85-3.16c-1.62,1.54-1.68,4.11-0.13,5.73
		C343.91,178.25,346.48,178.31,348.1,176.76z"/>
	<path class="st18" d="M299.27,107.25c-10.59-3.75-17.98-0.13-21.53,2.95c-3.56,3.06-6.96,5.44-10.18,7.64
		c-3.22,2.2-5.75,3.91-7.39,5.13c-1.64,1.22-4.16,3.03-7.42,5.55c-3.27,2.5-8.26,6.49-14.57,11.9c-6.31,5.42-12,10.8-16.6,15.86
		c-2.3,2.53-4.06,4.49-5.16,5.79c-0.57,0.64-1.07,1.24-1.34,1.57c-0.14,0.17-0.38,0.52-0.44,0.62c-0.03,0.05-0.24,0.53-0.25,0.55
		c-0.01,0.03,0.5,2.2,0.51,2.21c5.44-1.95,6.74-3.05,7.05-3.29c0.95-0.73,1.13-2.11,0.39-3.06c-0.73-0.95-2.1-1.13-3.06-0.39
		c-0.31,0.24-1.77,1.47-4.23,3.56c2.97,0.14,2.96,0.17,2.97,0.14c0-0.03,0.03,0.04,0,0c-0.71-0.88-1.21-0.63-0.36,0.8
		c0.22,0.37,1.42,0.69,1.96,0.03c1.13-1.29,2.79-3.15,5.11-5.65c4.64-5.02,9.92-10.01,16.36-15.28c6.43-5.27,11.15-9.04,14.56-11.36
		c3.42-2.3,5.9-4.08,7.59-5.21c1.7-1.13,4.09-2.74,7.38-4.83c3.29-2.08,6.93-4.63,10.92-7.11"/>
	<path class="st18" d="M380.31,134.81c-2.55-1.56-6.83-3.44-12.49-5c-7.94-2.67-22.23-3.55-41.58-3.1
		c-1.55-0.02-2.82,1.22-2.85,2.76c-0.02,1.55,1.22,2.82,2.76,2.85c19.33,1.01,32.55,1.79,40.92,1.88"/>
	<path class="st19" d="M425.62,251.66c1.68,0,3.37,0,5.05,0c0.18,0,0.32-0.14,0.32-0.32s-0.14-0.32-0.32-0.32c-1.68,0-3.37,0-5.05,0
		c-0.18,0-0.32,0.14-0.32,0.32S425.45,251.66,425.62,251.66z"/>
	<path class="st18" d="M272.12,294.68c0.01,0.01-0.25-1.95-0.26-1.94c0-0.01,1.32-1.8,1.31-1.79c-0.02,0.01,1.31-0.37,1.26-0.37
		c-0.12,0,0.24,0.02-0.02-0.02c-0.52-0.09-1.11-0.23-2.2-0.51c-2.24,2.11-2.45,4.36-2.51,5.43c-0.06,1.06,2.26,3.27,4.15,4.37
		c1.88,1.12,5.2,2.03,7.78,2.28c2.58,0.25,5.12,0.39,7.35,0.48c2.23,0.09,6.57-0.62,11.36-1.83c4.79-1.21,10.37-3.34,15.75-5.79
		c5.39-2.45,10.44-5.24,14.57-7.77c4.14-2.53,8.05-5.26,11.34-7.66c3.3-2.4,6.68-5.02,10.28-7.66c3.6-2.63,6.79-5.3,9.19-7.37
		c2.4-2.08,4.22-3.77,5.53-4.86c1.3-1.09,3.66-3.94,6.33-6.99c2.66-3.06,5.22-7.16,7.38-10.86c2.18-3.69,3.96-12.99,4.86-22.8
		c0.08-3.42-2.64-6.26-6.06-6.33c-3.42-0.08-6.25,2.64-6.33,6.06c0.45,9.84-0.01,14.15-1.9,18c-1.9,3.84-3.74,6.79-5.8,10.27
		c-2.05,3.49-3.29,5.08-4.46,6.31c-1.17,1.24-2.92,2.86-5.18,5.09c-2.26,2.23-4.94,4.45-8.37,7.3c-3.44,2.85-6.8,5.46-9.95,8.04
		c-3.15,2.58-6.55,4.96-10.57,7.66c-4.03,2.7-8.38,5.1-13.64,7.81c-5.26,2.71-9.77,4.44-14.51,5.81c-4.74,1.37-7.39,1.88-9.62,1.83
		c-2.23-0.05-4.5-0.18-7.09-0.34c-2.59-0.16-3.8-0.46-5.8-1.35c-1.99-0.91-1.98-0.59-2.78-1.29c-0.8-0.7-1.07,0.31,0.2,0.74
		c-1.8,1.22-0.77,1.45-0.25,1.54c0.26,0.05,1,0.11,1.11,0.11c0.06,0,1.48-0.4,1.5-0.41c0.01-0.01,1.35-1.81,1.35-1.82
		c0.01-0.03-0.26-2.02-0.26-2.03c-0.74-1.39-2.46-1.91-3.85-1.17C271.9,291.57,271.38,293.29,272.12,294.68z"/>
	<path class="st21" d="M89.2,319.83c-0.19,0.04-0.39,0.15-0.46,0.14c-0.01,0.01-0.2,0.17-0.2,0.18c0,0.01-0.23,0.65-0.23,0.65
		c0.01,0.05,0.67,0.78,0.67,0.78c0.01-0.01,0.43-0.02,0.47-0.05c0.02-0.01,0.37-0.2,0.37-0.21c-0.01,0.01-0.57-1.4-0.57-1.39
		c0,0-0.08,0.01-0.09,0.02c-0.03,0.02-0.14,0.04-0.24,0.07c-0.25-0.15-0.62-0.08-1.16-0.18c0.97,0.25,1.37,1.07,1.38,1.04
		c0.01-0.03,0.01,0.05,0.03,0c0.03-0.1,0.04-0.18,0.1-0.38c0.08-0.39,0.17-0.94,0.33-1.71c0.32-1.55,2.46-3.93,7.3-8.57
		c4.85-4.64,8.65-8.14,11.67-10.6c3.02-2.46,6.19-4.75,9.84-7.08c3.65-2.33,6.71-4.12,9.46-5.51c2.74-1.39,5.46-2.39,8.83-3.18
		c3.37-0.79,5.86-1.21,8.18-1.24c2.32-0.03,3.56,0.03,4.78,0.35c1.22,0.32,1.94,0.66,3.17,1.46c1.23,0.8,1.19,0.86,1.44,2.67
		c0.26,1.81,0.34,3.18,0.39,4.61c0.04,1.43-0.79,3.24-2.74,6.87c-1.95,3.64-3.5,6.16-4.73,7.89c-1.24,1.73-2.96,3.96-5.26,6.81
		c-2.3,2.86-4.13,4.93-5.71,6.47c-1.58,1.54-2.42,2.3-3.03,2.65c-0.61,0.35-0.88,0.5-1.1,0.6c-0.22,0.09-0.31,0.08-1.03,0.12
		c1.49,0.85,1.53,0.85,1.51,0.25c-0.01-0.61,0.3-0.6,1.86-1.96c1.56-1.37,3.23-2.83,5.32-4.39c2.09-1.56,4.28-3.12,6.99-4.91
		c2.71-1.79,4.92-2.96,7.17-3.85c2.26-0.89,3.41-1.25,4.6-1.3c1.18-0.05,1.82,0,2.88,0.28c1.06,0.28,0.91,0.67,2.03,3.34
		c0.56,1.33,0.57,1.74,0.28,3.53c-0.22,1.8-0.69,3.21-1.75,5.51c-2.13,4.59-5.12,8.91-9.51,14.13c3.79,0.91,5.16,0.31,8.98-1.2
		c3.83-1.51,7.02-2.32,10.5-2.66c3.48-0.33,6-0.5,7.95-0.4c1.96,0.1,3.18,0.29,4.87,1.02c1.7,0.7,2.9,1.29,4.55,2.4
		c1.65,1.11,2.4,1.98,3.58,4.24c1.17,2.26,1.41,3.1,1.49,5.49c0.07,2.38-0.13,4.03-0.4,5.93c-0.25,1.91-1.18,3.77-2.95,6.88
		c-1.79,3.11-4.55,6.2-8.66,10.08c-4.12,3.88-8.47,7.25-13.4,10.45c-4.93,3.2-9.02,5.49-12.73,7.11c-3.71,1.62-6.58,2.74-8.93,3.44
		c-2.34,0.7-5.16,1.21-9.11,1.52c-3.95,0.31-7.37,0.18-11.29-0.71c-3.93-0.88-7.49-1.76-11.15-2.99
		c-3.66-1.23-7.14-4.09-12.06-10.41c-1.11-1.22-3.01-1.31-4.23-0.19c-1.22,1.11-1.31,3.01-0.19,4.23
		c5.84,5.48,11.42,9.67,15.13,10.73c3.71,1.06,7.78,2.06,11.77,2.63c3.99,0.56,8.47,0.73,12.4,0.18c3.93-0.55,7.38-1.2,9.69-1.98
		c2.31-0.78,5.48-2.01,9.2-3.61c3.72-1.6,8.27-4.13,13.18-7.37c4.91-3.23,9.66-6.91,13.87-10.68c4.21-3.78,7.53-7.54,9.57-10.49
		c2.04-2.95,3.47-5.98,4.12-7.79c0.62-1.82,0.94-4.41,1.16-6.79c0.23-2.37-0.76-6.09-2.2-8.19c-1.43-2.1-3.65-4.49-5.33-5.55
		c-1.68-1.05-3.9-2.14-5.68-2.61c-1.79-0.45-4.27-0.86-6.23-0.78c-1.96,0.07-4.87,0.26-8.35,0.65c-3.47,0.39-7.59,1.42-11.43,2.88
		c-3.85,1.46-7.07,3.63-7.91,4.88c7.79-2.7,11.46-8.06,13.6-12.64c1.07-2.29,1.9-4.97,2.12-6.77c0.16-1.81-0.22-4.5-0.89-5.78
		c-1.35-2.56-3.79-5.01-4.87-5.2c-1.08-0.19-2.69-0.32-3.87-0.24c-1.18,0.08-3.46,0.69-5.7,1.61c-2.24,0.92-5.02,2.39-7.79,4.09
		c-2.77,1.7-5.32,3.53-7.25,5.28c-1.93,1.75-3.77,3.37-5.21,4.86c-1.44,1.49-2.62,3.54-2.63,4.14c-0.01,0.61,0.06,1.33,0.16,1.43
		c2.16,0.87,2.99,0.69,3.21,0.59c0.22-0.09,0.77-0.39,1.38-0.74c0.61-0.35,1.97-1.49,3.56-3.02c1.59-1.53,3.65-3.84,5.96-6.68
		c2.31-2.84,4.13-5.19,5.38-6.9c1.25-1.72,2.97-4.51,5.05-8.07c2.08-3.56,3.3-6.79,3.41-8.21c0.11-1.43,0.01-3.29-0.19-5.11
		c-0.2-1.82-1.7-4.37-2.93-5.18c-1.23-0.81-2.95-1.59-4.16-1.93c-1.21-0.34-3.5-0.52-5.82-0.39c-2.32,0.13-5.51,0.64-8.85,1.54
		c-3.34,0.9-6.72,2.14-9.45,3.56c-2.73,1.41-6.05,3.35-9.71,5.67c-3.65,2.32-7.13,4.84-10.12,7.34c-2.99,2.5-6.98,6.17-11.72,10.91
		c-4.75,4.74-7.67,8.6-7.88,10.17c-0.11,0.78-0.21,1.41-0.24,1.81c0,0.2-0.03,0.43-0.01,0.54c0.01,0.05,0.01,0.22,0.02,0.25
		c0.01,0.03,0.42,0.88,0.43,0.88c1.44-0.02,1.78-0.09,1.96-0.32"/>
	<path class="st21" d="M116.92,266.3c-0.24,0.03,0.28,0.24,0.05,0.15c-0.47-0.17-0.27,0.01-0.65-0.66c-0.4-1.48-0.56-3.29-0.42-6.47
		c0.31-6.36,0.47-11.21,0.76-14.83c0.29-3.62,0.64-5.95,1.18-7.75c0.54-1.8,1.14-4.2,1.71-6.9c0.57-2.7,1.56-5.65,3.22-9.51
		c1.66-3.86,3.21-6.7,5.14-9.29c1.93-2.59,3.53-4.46,5.21-6.05c1.69-1.6,2.69-1.97,5.36-2.14c2.67-0.17,4.34,0.1,6.74,1.11
		c2.41,1.01,3.77,2.17,5.7,4.69c1.92,2.52,2.96,4.38,3.71,6.64c0.75,2.25,1.09,3.96,1.24,6.01c0.15,2.06,0.34,4.56,0.7,7.42
		c0.35,2.85-0.07,5.43-1.24,9.05c-1.17,3.62-2.35,7.14-3.49,10.53c-1.14,3.39-1.88,6.29-2.25,8.18c-0.37,1.89-0.43,3.9-0.38,5.16
		c0.05,1.26,1.17,3.56,2.18,4.88c0.77,0.83,2.06,0.89,2.9,0.12c0.83-0.77,0.89-2.06,0.12-2.9c-1.23-1.12-1.38-1.29-1.63-2.53
		c-0.24-1.24-0.19-2.37-0.03-4.29c0.17-1.91,0.79-4.31,1.85-7.72c1.06-3.41,2.22-6.88,3.54-10.45c1.31-3.57,1.89-7.44,1.74-10.31
		c-0.15-2.87-0.34-5.28-0.43-7.34c-0.1-2.06-0.62-4.67-1.34-6.93c-0.73-2.26-2.32-5.18-4.2-7.74c-1.87-2.55-4.81-4.94-7.21-5.96
		c-2.4-1.02-5.81-1.58-8.48-1.38c-2.67,0.2-6.01,1.6-7.68,3.21c-1.67,1.61-3.69,3.94-5.63,6.52c-1.94,2.58-3.95,6.21-5.54,10.1
		c-1.6,3.89-2.8,7.5-3.36,10.2c-0.56,2.7-1.08,4.79-1.64,6.58c-0.56,1.79-1.06,4.88-1.37,8.5c-0.31,3.62-0.48,8.75-0.23,15.12
		c0.11,3.18,0.45,5.99,1.08,7.37c0.14,0.76,0.98,1.94,1.3,2.32c0.16,0.19,1.1,0.56,1.32,0.66c0.22,0.09,1.2,0.01,1.48-0.01
		c-1.5-3.27-1.96-2.86-1.97-2.85c0,0-0.37,1.41-0.37,1.41c0,0,0.7,1.17,0.7,1.17c0.01,0,0.48,0.26,0.49,0.27
		c0.03,0.01,0.58,0.12,0.65,0.13c0.15,0.01,0.56,0.02,0.9,0.01"/>
</g>
</svg>
