<?xml version="1.0" encoding="UTF-8"?><svg id="Ebene_1" xmlns="http://www.w3.org/2000/svg" viewBox="0 0 184.44 76.95"><defs><style>.cls-1{opacity:.85;}.cls-2{fill:#fff;stroke-width:0px;}</style></defs><path class="cls-2" d="m45.46,13.1c.53.72,1.4,2.61,1.45,3.04.34,1.4-.87,4.05-2.75,4.01-1.21-.05-2.03-1.98-2.75-3.04-.63-.87-1.64-2.46-3.23-2.22-2.41.39-4.35,2.61-4.01,4.35.97,5.02,6.23,4.73,9.17,6.57,2.03,1.3,3.96,4.25,3.62,7.39-.15,1.35-.87,3.62-1.64,4.78-1.21,1.83-3.72,3.86-7.24,4.54-1.98.1-5.07,1.06-6.66-.58-.77-1.01-.72-1.98-.63-2.46.14-1.01,1.01-1.64,2.41-2.03,2.27-.63,4.73.05,6.61-1.3.97-.63,2.08-2.41,1.25-4.1-.68-1.35-3.57-2.22-4.88-2.7-3.28-.97-5.89-3.09-6.95-6.32-1.59-4.73.14-8.74,2.85-11.1,1.16-.97,2.32-1.69,3.91-2.37,2.46-1.26,8.06-.1,9.46,3.57Z"/><path class="cls-2" d="m69.41,20.96c.29,1.3-.29,2.7-1.3,3.24-1.5.77-5.46.43-6.32,1.21-.92.77-1.26,6.23-1.4,7.39-.1.96-.58,4.68-.72,5.65-.34,1.64-.63,7-3.04,7.34-1.06.15-2.61-.29-2.95-.97-.29-.77.77-4.92.87-5.7.14-.87.72-4.54.77-5.41.29-1.83.34-4.06.53-6.86-1.06-1.26-4.44.24-5.84-.43-1.01-.53-1.35-2.03-1.11-2.85.14-.92.97-1.88,1.93-2.27,1.01-.24,4.35-.19,5.12-.72.82-.58,1.06-3.48,1.26-4.59.43-2.8.05-5.99,3.86-6.18,2.41-.14,2.12,1.11,1.69,2.8-.34,2.56-1.21,3.86-.68,7.14,1.16,1.11,6.86-1.06,7.34,1.21Z"/><path class="cls-2" d="m73.94,23.04c-.24-1.93,1.59-2.85,3.14-3.52,3.04-1.54,5.41-2.56,8.45-1.88,1.74.63,3.38,2.95,3.77,5.46.53,3.09-.19,6.57-.58,9.03-.53,2.8-1.01,5.46-1.79,8.06-.34.97-1.59,2.7-2.75,2.85-.82.15-2.8-.19-3.62-.53-2.85-1.11-5.02-1.98-7.15-4.25-.87-.77-1.83-1.79-1.98-2.9-.53-2.56.72-4.25,1.79-5.31.68-.68,2.37-1.69,3.72-2.12,2.37-.72,6.52-.43,7.29-1.4,1.21-1.64-.43-4.15-1.54-4.3-3.62.58-5.65,2.75-7.44,2.61-.92-.34-1.16-.92-1.3-1.79Zm2.37,10.14c.05,2.8,3.62,3.81,5.94,4.15,1.5-.39,1.64-3.77,1.64-5.46-.63-.53-2.46-.29-3.38-.24-1.83.1-3.48.58-4.2,1.54Z"/><path class="cls-2" d="m98.9,23.91c1.21.39,2.85-1.16,4.06-1.64,1.3-.48,3.28-1.25,5.02-1.01,1.01.1,2.17.72,2.37,1.64.29,1.93-1.5,3.04-2.46,3.28-1.01.24-3.09.77-3.91,1.06-1.98.58-5.26,2.8-5.26,3.62-.15,2.27-.1,7.72-.68,9.75-.48,1.64-1.4,1.74-3.23,1.64-.72-.05-1.74-.63-1.98-1.21-.19-.58,0-1.69.15-2.7.34-3.96.48-10.48.92-14.39.43-3.57.34-5.31,2.94-5.41.72-.05,1.5.24,1.93.72.53,1.64.24,3.04.15,4.63Z"/><path class="cls-2" d="m131.97,20.96c.29,1.3-.29,2.7-1.3,3.24-1.5.77-5.46.43-6.32,1.21-.92.77-1.26,6.23-1.4,7.39-.1.96-.58,4.68-.72,5.65-.34,1.64-.63,7-3.04,7.34-1.06.15-2.61-.29-2.95-.97-.29-.77.77-4.92.87-5.7.14-.87.72-4.54.77-5.41.29-1.83.34-4.06.53-6.86-1.06-1.26-4.44.24-5.84-.43-1.01-.53-1.35-2.03-1.11-2.85.14-.92.97-1.88,1.93-2.27,1.01-.24,4.35-.19,5.12-.72.82-.58,1.06-3.48,1.26-4.59.43-2.8.05-5.99,3.86-6.18,2.41-.14,2.12,1.11,1.69,2.8-.34,2.56-1.21,3.86-.68,7.14,1.16,1.11,6.86-1.06,7.34,1.21Z"/><g class="cls-1"><path class="cls-2" d="m150.83,55.9c-.5-.09-1-.17-1.5-.26.24.1.48.24.71.45.31.16.51-.03.79-.19Z"/><path class="cls-2" d="m147.95,55.39c-.09-.02-.18-.03-.27-.05-.08.02-.17.04-.24.05h.51Z"/><path class="cls-2" d="m145.29,55.26c.46.12.9.15,1.34.15-.37-.13-.81-.19-1.34-.15Z"/><path class="cls-2" d="m147.35,55.79c-.14-.16-.2-.32.08-.39h.01c-.27,0-.53,0-.81.02.28.1.52.23.72.38Z"/><path class="cls-2" d="m147.35,55.79c.14.16.37.32.44.41-.12-.15-.27-.28-.44-.41Z"/><path class="cls-2" d="m146.24,59.06c-.28.07-.09-.87-.63-.73-1.25.08-2.34.39-3.48.27-.54.16-1.24-.99-1.78-.84-1.26.13-4.5,1.07-2.66,1.21,2.77.18,4.6.09,7.09.23,2.05-.1,4.05-.28,6.16-.33.58.04,1.11.19,1.64.33-.69-.25-1.39-.5-2.17-.75-1.02-.41-2.48.63-4.15.61Z"/><path class="cls-2" d="m161.79,58.27c-.28.06-.84.18-.84.18-1.04-.88-2.31-.82-3.57-.76.15.19.31.38.46.56.71.06.83-.19.25-.5,1.32.82,2.64,1.13,4.03,1.27-.04-.27.03-.56-.33-.76Z"/><path class="cls-2" d="m162.94,59.09c-.27-.02-.55-.04-.82-.06,0,.03,0,.06.01.09.28,0,.56,0,.83,0l-.02-.03Z"/><path class="cls-2" d="m139.62,55.49c-3.49-.37-6.78-.72-9.99-1.06-.26.17-.45.37-.78.23-.24-.19-.48-.31-.73-.4-.47-.06-.94-.11-1.4-.17-.16.01-.33.02-.5.03h-.01c-.27.09-.2.24-.05.4.17.12.33.25.47.39-.09-.09-.32-.24-.47-.39-.21-.14-.45-.26-.74-.33-.43.04-.88.05-1.34-.03.52-.09.97-.06,1.34.03.27-.02.54-.05.8-.07.08-.02.15-.04.23-.07-1.07-.14-2.14-.22-3.2-.33-.25.01-.48.02-.68.04-.78.09-1.56.17-2.02-.32-.19-.02-.38-.04-.57-.06l.11.09c-.08-.03-.15-.07-.21-.1-.81-.08-1.62-.17-2.43-.25-.53.16-1.08.34-1.63.47,0,0-.35-.33-.53-.49-.23.23-.55.39-.92.46.43.3.82.62,1.18.83.53.49,1.25-.92,1.86.02-.61-.94-1.33.46-1.86-.02-.36-.21-.75-.53-1.18-.83-.77.15-1.76-.04-2.55-.53,1.01-.38,1.84.03,2.55.53.37-.07.69-.22.92-.46.18.16.53.49.53.49.55-.13,1.1-.31,1.63-.47-1.59-.19-3.19-.26-4.84-.4-10.57-.91-20.36-.63-31.37-.32-2.99,0-5.91.16-8.81.2-2.9.02-5.75.12-8.58.19-1.41.03-2.81.09-4.19.18-1.38.11-2.74.27-4.09.43-2.7.35-5.39.66-8.05,1.1-2.67.42-5.35.77-8.09,1.05-2.73.32-5.53.52-8.46.51-2.23.06-5.31.71-8.34,1.44-3.04.72-5.98,1.72-8.01,2.29-5.06,2.99-1.09,6.2-.79,6.36,2.12,1.25,3.69,1.24,5.64.94.97-.15,2.04-.37,3.32-.54,1.28-.14,2.77-.22,4.57-.11-2.43-.03-1.72-.78.22-1.36,1.94-.58,5.1-1,7.53-.25,3.53,1.14,7.34.51,11.32-.31,1.99-.42,4-.99,6.03-1.37,2.03-.39,4.06-.7,6.04-.76,1.98-.08,4.04-.47,6.39-.68,12.25-.2,23.44-2.52,36.32-2.35,1.7-.01,3.3-.25,4.84-.54,1.54-.29,3.01-.57,4.45-.79,2.11-.11,4.34.4,6.04.46,2.68.14,5.01-.08,7.25-.38-2.49.04-4.31.2-7.07.2-1.84-.04,1.33-1.16,2.57-1.37.53-.19,1.3.92,1.83.73,1.14.06,2.2-.32,3.44-.52.54-.19.41.77.68.68,1.67-.09,3.05-1.21,4.09-.86.8.21,1.51.42,2.21.62.44.09.89.17,1.36.17.3-.05.61-.11.93-.17-.21-.31-.27-.68-.32-1.04.44.09,1.04.35,1.47.45-.43-.1-1.04-.35-1.47-.45.05.37.1.73.32,1.04,2.24-.37,4.82-.55,7.22-.71,0-.03-.01-.06-.02-.09-1.39-.06-2.72-.29-4.09-1.03.6.28.49.54-.22.51l-.49-.54c1.26-.13,2.52-.26,3.6.55,0,0,.55-.16.82-.23.37.18.32.47.37.74.27.01.55.02.82.02-.52-.54-2.26-1.35-2.26-1.35Z"/><path class="cls-2" d="m125.39,54.16c.19-.02.42-.03.67-.03-.89-.11-1.79-.19-2.69-.29.45.49,1.23.4,2.02.31Z"/></g></svg>