<?xml version="1.0" encoding="UTF-8"?><svg id="Ebene_1" xmlns="http://www.w3.org/2000/svg" viewBox="0 0 595.28 595.78"><defs><style>.cls-1,.cls-2{stroke-width:0px;}.cls-2{fill:#fff;}</style></defs><ellipse class="cls-2" cx="282.23" cy="408.87" rx="217.65" ry="148.03" transform="translate(-159.71 181.9) rotate(-28.2)"/><path class="cls-2" d="m193.13,554.42c-17.52.94-34.36-1.45-51.18-4.5-10.87-1.97-21-5.75-30.73-10.88-5.84-3.08-11.53-6.35-16.46-10.77-6.5-5.82-12.15-12.41-17.04-19.64-6.52-9.64-11.31-20.04-12.83-31.66-.83-6.39-1.2-12.87-1.35-19.32-.3-13.06.6-26.07,2.8-38.96,2.36-13.78,7.5-26.71,12.67-39.61,5.26-13.12,12.93-24.83,21.85-35.7,5.73-6.98,11.67-13.79,17.72-20.5,5.2-5.77,10.31-11.7,16.1-16.84,8.63-7.65,17.85-14.63,26.79-21.93,12.28-10.03,26.01-17.37,41.12-22.15,2.45-.78,4.89-1.61,7.26-2.58,1.59-.65,2.16-2.25,1.6-3.68-.55-1.41-1.89-2.1-3.5-1.67-4.53,1.21-9.11,2.27-13.55,3.75-11.21,3.73-21.49,9.38-30.96,16.38-6.71,4.96-13.18,10.26-19.58,15.6-8.6,7.18-17.29,14.27-24.64,22.81-5.82,6.76-11.67,13.49-17.55,20.19-12.57,14.33-23.18,29.85-30.02,47.8-4.77,12.53-9.11,25.15-11.32,38.41-2.06,12.39-2.74,24.89-2.85,37.43-.06,6.69-.14,13.42.59,20.05,1.36,12.46,5.7,23.96,12.71,34.41,9.71,14.47,21.53,26.76,36.64,35.72,8.41,4.99,17.06,9.31,26.76,11.15,8.48,1.61,16.95,3.26,25.44,4.82,16.49,3.04,33.19,3.84,49.88,3.88,10.38.02,20.76-1.4,31.14-2.12,8.58-.59,17.07-1.72,25.38-4.01,5.24-1.44,10.48-2.86,15.67-4.44,9.84-3,19.65-6.1,29.02-10.45,14.55-6.75,27.8-15.6,40.76-24.93,12.07-8.7,23.67-17.99,34.65-28.04,16.34-14.96,32.16-30.39,45.46-48.22,6.19-8.3,12.51-16.53,17.06-25.88,4.13-8.48,8.18-17.01,11.82-25.7,5.59-13.36,10.48-26.9,11.9-41.55,1.72-17.75,1.74-35.25-3.7-52.49-3.97-12.58-8.92-24.56-17.16-35.06-6.65-8.48-14.76-14.68-25.32-17.16-5.78-1.36-11.67-2.24-17.53-3.2-2.64-.43-5.35-.73-8.02-.69-4.6.07-7.91,4.63-6.62,9,.93,3.16,3.18,4.89,6.45,5.37,4.58.67,9.18,1.28,13.73,2.14,8.38,1.59,15.86,4.81,21.67,11.5,8.02,9.25,13.37,19.7,15.76,31.71,2.06,10.36,1.94,20.84,1.72,31.29-.23,11.31-.72,22.61-3.84,33.65-4.32,15.27-10.01,29.89-18.44,43.42-6.66,10.7-13.98,20.92-21.82,30.75-13.97,17.51-29.44,33.64-46.13,48.57-11.21,10.03-23.13,19.2-35.46,27.83-11.85,8.29-24.17,15.74-37.75,20.82-16.28,6.1-32.63,11.94-50.26,13.13-15.62,1.05-31.13,3.82-46.51,2.74ZM446.74,43.68c2.06.3,3.84.65,5.64.81,9.28.81,18.57,1.61,27.86,2.35,11.29.9,22.12,3.62,32.33,8.52,10.52,5.05,17.41,13.26,20.03,24.66,1.53,6.67.44,13.36-1.65,19.79-2.54,7.8-6.24,15.11-10.35,22.19-2.53,4.35-5.3,8.55-7.82,12.91-2.67,4.62-1.41,9.99,2.81,12.7,4.29,2.75,9.72,1.58,12.8-2.85.88-1.26,1.54-2.67,2.28-4.02,6.47-11.94,12.01-24.29,16.39-37.15,3.11-9.13,3.91-18.45,1.76-27.89-2.3-10.06-8.51-17.64-16.23-23.99-9.9-8.15-21.79-12.08-34.13-14.31-9.77-1.77-19.73-2.48-29.61-3.57-5.97-.66-11.98-.96-17.92-1.8-3.01-.42-6.1-1.45-6.3-5.46-.01-.22-.12-.44-.19-.66-2.23-6.25-10.2-7.83-14.64-2.9-2.87,3.18-2.96,8.04.12,11.41,1.71,1.88,2.24,3.88,2.43,6.32.4,5.06,1.08,10.11,1.8,15.14,1.01,7.13,2.46,14.21,3.19,21.36,1.62,15.75,2.86,31.55,4.36,47.32,1.71,17.93,3.71,35.84,5.27,53.78,1.77,20.31,4.08,40.49,9.97,60.12,3.35,11.16,7.86,21.68,14.69,31.17,1.16,1.61,2.57,2.74,4.52,3.15,2.79.59,5.66-1.38,5.46-4.15-.13-1.82-1.16-3.6-1.89-5.36-.32-.76-1.04-1.36-1.32-2.12-4.88-13.36-8.32-27.09-10.65-41.11-2.22-13.38-4.06-26.79-5.11-40.32-.89-11.51-2-23.02-3.39-34.48-.94-7.77-2.72-15.43-3.83-23.18-1.51-10.58-2.98-21.18-4-31.82-1.25-13.03-1.54-26.15-3.93-39.07-.44-2.39-.5-4.85-.75-7.48Zm-85.79,333.03c-.08-8.88-1.24-13.2-4.92-19.55-2.78-4.8-6.6-6.71-11.93-5.4-2.26.56-4.48,1.77-6.39,3.15-7.27,5.24-13.24,11.93-19.44,18.33-9.28,9.57-18.56,19.15-28.87,27.59-14.51,11.88-29.15,23.6-44.01,35.03-12.68,9.75-25.11,19.89-38.74,28.32-7.44,4.6-14.37,10.26-23.37,11.87-1.71.31-2.67,1.73-2.81,3.51-.14,1.78.64,3.26,2.26,3.86,1.1.41,2.53.5,3.66.17,2.74-.78,5.51-1.63,8.04-2.9,10.15-5.09,19.53-11.44,28.7-18.07,9.82-7.09,19.47-14.43,29.05-21.86,11.02-8.55,21.87-17.32,32.8-25.98,10.23-8.1,19.99-16.72,29.12-26.05,8.47-8.66,16.96-17.32,25.51-25.9,1.76-1.77,3.76-3.34,5.84-4.73,1.93-1.3,3.31-.92,4.73.93,2.43,3.14,3.76,6.76,4.49,10.63,1.53,8.07-.27,15.75-3.08,23.17-5.17,13.68-12.7,26.05-21.61,37.63-7.02,9.13-15.54,16.75-24.15,24.28-7.35,6.42-15.27,12-24.24,16-5.55,2.47-10.98,3.77-16.25-.58-.26-.21-.59-.34-.9-.5-8.64-4.32-18.75,1.65-19.13,11.29-.3,7.58,5.53,13.45,13.79,13.79,6.35.27,12.36-1.17,17.63-4.68,5.9-3.92,11.74-7.98,17.21-12.47,4.79-3.94,9.06-8.53,13.49-12.91,5.48-5.42,10.94-10.87,16.32-16.39,14.57-14.96,25.21-32.42,32.74-51.83,2.62-6.75,4.4-13.72,4.45-19.77Zm-133.71-206.13c-.1-.37-.22-1.18-.53-1.9-1.48-3.4-4.93-4.64-8.82-3.1-3.03,1.2-6.03,2.49-8.99,3.84-8.01,3.67-15.94,7.49-23,12.86-4.51,3.42-8.83,7.1-13.5,10.29-15.53,10.62-30.72,21.69-45.21,33.72-15.24,12.65-29.89,25.91-42.87,40.93-1.64,1.9-3.32,3.79-4.81,5.81-1.32,1.78-1.07,3.67.35,4.95,1.36,1.22,3.14,1.18,4.83-.19,2-1.62,4.07-3.17,5.88-4.98.84-.84,1.16-2.22,1.69-3.37.23-.49.26-1.12.6-1.49,3.64-3.87,7.12-7.93,11.04-11.5,8.15-7.43,16.31-14.88,24.88-21.8,8.66-7,17.68-13.57,26.8-19.97,8.79-6.17,17.95-11.82,26.86-17.82,8.27-5.57,16.76-10.72,26.11-14.3,4.64-1.78,9.3-3.52,13.94-5.32,3.11-1.2,4.79-3.47,4.75-6.68Zm96.73,117.25c-.15-1.62-.18-3.23-.47-4.8-1.21-6.52-6.62-9.85-13.01-8.04-4.04,1.15-7.06,3.66-9.31,7.14-.58.9-1.17,1.3-2.32,1.29-2.86-.02-5.1,1.37-5.95,4.06-1.26,3.96-2.71,8-3,12.09-.47,6.76-.17,13.59-.01,20.38.07,3.02,1.89,5.42,4.63,6.24,3.11.94,6.49,1.46,9.73,1.36,4.63-.14,7.73-3.26,9.96-7.02,5.97-10.08,8.82-21.12,9.76-32.72Zm-170.01,67.79c-.08,3.48.66,7.17,1.81,10.87,1.19,3.83,2.93,5.31,6.88,4.43,1.81-.4,3.84-1.21,5.07-2.5,2.75-2.86,5.3-5.99,7.52-9.29,6.04-8.98,8.59-19.23,9.94-29.79.55-4.34-.58-8.53-2.82-12.33-1.79-3.04-6.01-5.03-9.42-4.2-5.68,1.38-9.9,4.63-11.84,10.31-1.32,3.89-2.36,7.88-3.64,11.78-2.17,6.61-3.51,13.36-3.5,20.72Zm134.4-145c-6.52,0-13.04,0-19.56,0-.97,0-1.95.05-2.9.2-1.83.3-3.19,1.74-3.49,3.54-.29,1.76.56,3.76,2.15,4.5.9.42,1.97.62,2.97.67,9.6.45,19.2.8,28.8,1.27,12.8.63,25.59,1.28,38.38,2.02,5.14.3,10.24,1,15.12,2.82,1.42.53,2.58,1.13,2.98,2.9.41,1.8,1.89,2.81,3.8,2.95,1.95.14,3.6-.9,4.36-2.7.76-1.79.31-4.21-1.48-5.38-1.98-1.3-4.14-2.54-6.4-3.16-8.26-2.25-16.53-4.59-24.93-6.22-13.12-2.54-26.46-3.05-39.79-3.43Z"/><path class="cls-1" d="m193.13,554.42c15.37,1.08,30.89-1.68,46.51-2.74,17.63-1.19,33.97-7.03,50.26-13.13,13.58-5.09,25.91-12.53,37.75-20.82,12.33-8.63,24.25-17.8,35.46-27.83,16.69-14.93,32.17-31.06,46.13-48.57,7.84-9.83,15.16-20.06,21.82-30.75,8.43-13.53,14.12-28.15,18.44-43.42,3.12-11.04,3.61-22.34,3.84-33.65.21-10.45.34-20.93-1.72-31.29-2.39-12.02-7.74-22.47-15.76-31.71-5.8-6.69-13.28-9.9-21.67-11.5-4.55-.86-9.15-1.47-13.73-2.14-3.27-.48-5.52-2.21-6.45-5.37-1.28-4.36,2.03-8.93,6.62-9,2.67-.04,5.38.26,8.02.69,5.86.95,11.76,1.84,17.53,3.2,10.57,2.48,18.67,8.68,25.32,17.16,8.24,10.5,13.19,22.48,17.16,35.06,5.44,17.24,5.42,34.74,3.7,52.49-1.42,14.64-6.31,28.19-11.9,41.55-3.64,8.69-7.69,17.23-11.82,25.7-4.55,9.35-10.87,17.58-17.06,25.88-13.3,17.83-29.13,33.26-45.46,48.22-10.98,10.05-22.58,19.34-34.65,28.04-12.95,9.34-26.21,18.18-40.76,24.93-9.37,4.35-19.18,7.45-29.02,10.45-5.19,1.58-10.44,3-15.67,4.44-8.31,2.29-16.8,3.41-25.38,4.01-10.38.72-20.76,2.14-31.14,2.12-16.69-.04-33.39-.84-49.88-3.88-8.49-1.56-16.96-3.2-25.44-4.82-9.7-1.85-18.35-6.17-26.76-11.15-15.11-8.96-26.93-21.25-36.64-35.72-7.01-10.45-11.35-21.95-12.71-34.41-.72-6.63-.65-13.37-.59-20.05.11-12.53.79-25.04,2.85-37.43,2.2-13.27,6.55-25.89,11.32-38.41,6.84-17.95,17.45-33.48,30.02-47.8,5.88-6.7,11.74-13.44,17.55-20.19,7.35-8.54,16.04-15.63,24.64-22.81,6.41-5.35,12.87-10.64,19.58-15.6,9.47-7,19.74-12.64,30.96-16.38,4.44-1.48,9.02-2.54,13.55-3.75,1.61-.43,2.95.26,3.5,1.67.56,1.43-.02,3.03-1.6,3.68-2.38.97-4.82,1.8-7.26,2.58-15.11,4.79-28.84,12.12-41.12,22.15-8.94,7.3-18.16,14.29-26.79,21.93-5.79,5.13-10.91,11.06-16.1,16.84-6.04,6.71-11.99,13.52-17.72,20.5-8.92,10.88-16.59,22.58-21.85,35.7-5.17,12.9-10.31,25.82-12.67,39.61-2.21,12.89-3.11,25.9-2.8,38.96.15,6.45.52,12.93,1.35,19.32,1.51,11.62,6.3,22.02,12.83,31.66,4.89,7.23,10.54,13.82,17.04,19.64,4.93,4.41,10.62,7.68,16.46,10.77,9.73,5.13,19.86,8.91,30.73,10.88,16.81,3.05,33.65,5.44,51.18,4.5Z"/><path class="cls-1" d="m446.74,43.68c.25,2.63.31,5.09.75,7.48,2.39,12.92,2.68,26.04,3.93,39.07,1.02,10.64,2.49,21.24,4,31.82,1.1,7.75,2.88,15.41,3.83,23.18,1.39,11.46,2.5,22.97,3.39,34.48,1.05,13.53,2.89,26.95,5.11,40.32,2.33,14.02,5.77,27.75,10.65,41.11.28.77,1,1.36,1.32,2.12.73,1.76,1.76,3.53,1.89,5.36.2,2.77-2.67,4.74-5.46,4.15-1.95-.41-3.37-1.55-4.52-3.15-6.82-9.49-11.34-20.01-14.69-31.17-5.89-19.63-8.2-39.81-9.97-60.12-1.56-17.94-3.56-35.85-5.27-53.78-1.5-15.77-2.74-31.56-4.36-47.32-.74-7.15-2.18-14.23-3.19-21.36-.72-5.03-1.4-10.08-1.8-15.14-.19-2.44-.72-4.44-2.43-6.32-3.07-3.37-2.98-8.23-.12-11.41,4.44-4.93,12.41-3.35,14.64,2.9.08.22.18.43.19.66.2,4.01,3.29,5.03,6.3,5.46,5.94.84,11.95,1.14,17.92,1.8,9.88,1.09,19.84,1.81,29.61,3.57,12.34,2.23,24.24,6.16,34.13,14.31,7.72,6.35,13.93,13.93,16.23,23.99,2.16,9.44,1.35,18.77-1.76,27.89-4.38,12.86-9.92,25.21-16.39,37.15-.73,1.35-1.4,2.76-2.28,4.02-3.09,4.43-8.51,5.6-12.8,2.85-4.22-2.71-5.48-8.08-2.81-12.7,2.52-4.35,5.29-8.56,7.82-12.91,4.11-7.08,7.81-14.39,10.35-22.19,2.09-6.43,3.18-13.12,1.65-19.79-2.62-11.41-9.51-19.62-20.03-24.66-10.21-4.9-21.03-7.62-32.33-8.52-9.29-.74-18.58-1.54-27.86-2.35-1.8-.16-3.58-.51-5.64-.81Z"/><path class="cls-1" d="m360.95,376.71c-.05,6.05-1.83,13.02-4.45,19.77-7.53,19.4-18.17,36.87-32.74,51.83-5.38,5.52-10.84,10.97-16.32,16.39-4.43,4.38-8.7,8.96-13.49,12.91-5.46,4.49-11.31,8.55-17.21,12.47-5.27,3.51-11.28,4.94-17.63,4.68-8.25-.34-14.09-6.21-13.79-13.79.38-9.64,10.49-15.61,19.13-11.29.31.15.64.28.9.5,5.27,4.35,10.7,3.05,16.25.58,8.97-4,16.89-9.59,24.24-16,8.61-7.52,17.13-15.15,24.15-24.28,8.9-11.58,16.43-23.95,21.61-37.63,2.81-7.42,4.61-15.1,3.08-23.17-.74-3.87-2.06-7.49-4.49-10.63-1.43-1.84-2.8-2.22-4.73-.93-2.08,1.39-4.08,2.97-5.84,4.73-8.56,8.58-17.04,17.23-25.51,25.9-9.13,9.33-18.89,17.95-29.12,26.05-10.93,8.66-21.78,17.43-32.8,25.98-9.57,7.43-19.22,14.76-29.05,21.86-9.17,6.62-18.55,12.98-28.7,18.07-2.53,1.27-5.31,2.12-8.04,2.9-1.13.32-2.56.24-3.66-.17-1.62-.6-2.41-2.08-2.26-3.86.14-1.77,1.1-3.2,2.81-3.51,9-1.61,15.93-7.26,23.37-11.87,13.64-8.44,26.06-18.58,38.74-28.32,14.86-11.42,29.5-23.15,44.01-35.03,10.31-8.44,19.6-18.02,28.87-27.59,6.2-6.4,12.16-13.09,19.44-18.33,1.91-1.38,4.13-2.59,6.39-3.15,5.33-1.31,9.15.6,11.93,5.4,3.68,6.35,4.84,10.67,4.92,19.55Z"/><path class="cls-1" d="m227.24,170.58c.05,3.2-1.64,5.47-4.75,6.68-4.64,1.8-9.29,3.54-13.94,5.32-9.35,3.58-17.84,8.73-26.11,14.3-8.91,6-18.07,11.65-26.86,17.82-9.12,6.4-18.14,12.97-26.8,19.97-8.57,6.93-16.73,14.37-24.88,21.8-3.92,3.57-7.4,7.63-11.04,11.5-.34.36-.37,1-.6,1.49-.53,1.15-.85,2.52-1.69,3.37-1.81,1.81-3.88,3.36-5.88,4.98-1.69,1.37-3.47,1.41-4.83.19-1.43-1.28-1.67-3.17-.35-4.95,1.49-2.02,3.17-3.9,4.81-5.81,12.97-15.02,27.62-28.28,42.87-40.93,14.49-12.03,29.68-23.09,45.21-33.72,4.66-3.19,8.99-6.87,13.5-10.29,7.06-5.37,15-9.19,23-12.86,2.96-1.36,5.96-2.64,8.99-3.84,3.89-1.55,7.34-.31,8.82,3.1.31.72.43,1.53.53,1.9Z"/><path class="cls-1" d="m323.97,287.83c-.94,11.6-3.79,22.64-9.76,32.72-2.23,3.76-5.33,6.88-9.96,7.02-3.24.1-6.62-.42-9.73-1.36-2.74-.83-4.56-3.22-4.63-6.24-.16-6.79-.46-13.62.01-20.38.29-4.08,1.74-8.13,3-12.09.85-2.69,3.1-4.09,5.95-4.06,1.15,0,1.74-.4,2.32-1.29,2.24-3.48,5.27-6,9.31-7.14,6.39-1.81,11.81,1.51,13.01,8.04.29,1.56.32,3.18.47,4.8Z"/><path class="cls-1" d="m153.96,355.62c0-7.36,1.33-14.11,3.5-20.72,1.28-3.91,2.31-7.89,3.64-11.78,1.94-5.68,6.16-8.93,11.84-10.31,3.41-.82,7.63,1.17,9.42,4.2,2.24,3.8,3.37,7.99,2.82,12.33-1.34,10.56-3.89,20.81-9.94,29.79-2.22,3.3-4.77,6.43-7.52,9.29-1.24,1.29-3.26,2.09-5.07,2.5-3.96.88-5.7-.6-6.88-4.43-1.14-3.7-1.89-7.39-1.81-10.87Z"/><path class="cls-1" d="m288.36,210.62c13.34.38,26.68.89,39.79,3.43,8.4,1.62,16.66,3.97,24.93,6.22,2.26.62,4.42,1.86,6.4,3.16,1.79,1.17,2.25,3.59,1.48,5.38-.76,1.8-2.41,2.84-4.36,2.7-1.91-.14-3.39-1.15-3.8-2.95-.41-1.78-1.56-2.37-2.98-2.9-4.88-1.81-9.98-2.52-15.12-2.82-12.79-.74-25.58-1.4-38.38-2.02-9.6-.47-19.2-.82-28.8-1.27-1-.05-2.07-.25-2.97-.67-1.59-.74-2.44-2.74-2.15-4.5.3-1.8,1.66-3.24,3.49-3.54.95-.16,1.93-.2,2.9-.2,6.52-.02,13.04,0,19.56,0Z"/></svg>