<?xml version="1.0" encoding="utf-8"?>
<!-- Generator: Adobe Illustrator 27.9.4, SVG Export Plug-In . SVG Version: 9.03 Build 54784)  -->
<svg version="1.1" xmlns="http://www.w3.org/2000/svg" xmlns:xlink="http://www.w3.org/1999/xlink" x="0px" y="0px"
	 viewBox="0 0 595.28 410.76" style="enable-background:new 0 0 595.28 410.76;" xml:space="preserve">
<style type="text/css">
	.st0{display:none;}
	.st1{display:inline;fill:#FFFFFF;}
	.st2{display:inline;}
	.st3{fill:#4B616A;}
	.st4{fill:#FFFFFF;}
	.st5{fill:#FFFFFF;stroke:#000000;stroke-width:2.5;stroke-miterlimit:10;}
	.st6{stroke:#000000;stroke-width:2.5;stroke-miterlimit:10;}
	.st7{fill:none;stroke:#000000;stroke-width:0.5;stroke-miterlimit:10;}
	.st8{fill:#285758;}
	.st9{fill:#0F8B8D;}
	.st10{fill:none;stroke:#C8C8C8;stroke-width:1.75;stroke-linecap:square;stroke-miterlimit:10;}
	.st11{fill:none;stroke:#C8C8C8;stroke-width:4;stroke-miterlimit:10;}
	.st12{fill:none;stroke:#C8C8C8;stroke-width:1.75;stroke-miterlimit:10;}
	.st13{fill:#0A8B8B;}
	.st14{fill:none;stroke:#0A8B8B;stroke-width:2;stroke-miterlimit:10;}
	.st15{clip-path:url(#SVGID_00000040572642203909727660000002367783672186326191_);fill:#0F8B8D;}
	.st16{clip-path:url(#SVGID_00000072995914968506167440000015902222181086208405_);fill:#0A8B8B;}
	.st17{fill:none;stroke:#0A8B8B;stroke-width:3;stroke-miterlimit:10;}
	.st18{fill:#285758;stroke:#285758;stroke-miterlimit:10;}
	.st19{fill:#000A00;stroke:#285758;stroke-miterlimit:10;}
	.st20{opacity:0;fill:#000A00;stroke:#285758;stroke-miterlimit:10;}
	.st21{fill:#285758;stroke:#285758;stroke-width:2;stroke-miterlimit:10;}
	.st22{fill:#229595;}
	.st23{fill:#1E9393;}
	.st24{fill:#259696;}
</style>
<g id="Ebene_2" class="st0">
</g>
<g id="Ebene_1">
</g>
<g id="Grafiken">
	<path class="st22" d="M374.91,229.57c-0.14-3.19-0.12-6.4-0.43-9.57c-0.8-8.45-3.57-16.24-8.73-23.01
		c-2.7-3.54-5.63-6.99-8.89-10.01c-7.53-6.98-15.82-12.97-25.18-17.33c-4.63-2.16-9.33-4.18-13.94-6.38
		c-1.11-0.53-2.01-1.51-3.01-2.29c-1.34-1.05-1.46-2.15-0.27-3.2c1.42-1.25,2.74-2.73,4.38-3.61c10.4-5.59,18.48-13.57,24.78-23.48
		c1.71-2.69,3.62-5.26,5.39-7.92c0.71-1.06,1.43-2.15,1.89-3.33c1.63-4.18,3.24-8.43,2.79-13c-0.73-7.39-4.05-13.43-10.32-17.56
		c-2.65-1.75-5.48-3.31-8.38-4.61c-7.12-3.2-14.68-4.31-22.12-4.15c-9.99-0.19-19.51,0.84-28.73,3.76
		c-6.08,1.93-12.07,4.17-18.04,6.42c-3.07,1.16-5.5,3.19-6.86,6.3c-1.31,3.01-3.5,5.26-6.08,7.25
		c-8.52,6.57-13.22,15.47-15.15,25.86c-1.64,8.85,1.26,16.52,9.08,21.54c3.21,2.06,6.68,3.78,10.19,5.28
		c4.11,1.75,8.4,3.05,12.59,4.62c2.39,0.9,4.72,1.94,7.06,2.93c1.86,0.79,2.28,3.26,0.98,4.53c-1.86,1.81-3.99,3.16-6.24,4.36
		c-7.33,3.9-14.72,7.71-22.01,11.69c-10.74,5.86-20.42,13.11-28.64,22.24c-4.39,4.87-7.21,10.45-8.4,16.93
		c-1.29,7.03-0.96,13.97,0.3,20.97c1.41,7.85,4.93,14.5,10.76,19.86c7.55,6.94,15.75,13.07,24.5,18.4
		c12.86,7.84,26.82,11.69,41.97,11.35c9.65-0.22,19.16-1.51,28.48-3.68c14.56-3.39,27.38-10.51,38.75-20.15
		c2.42-2.05,4.57-4.49,6.51-7.01c1.94-2.52,3.78-5.21,5.08-8.09C372.71,247.28,375.32,238.75,374.91,229.57z M265.89,149.05
		c-1.86-0.42-3.67-1.08-5.48-1.72c-5.59-1.99-8.77-8.05-7.32-13.99c2.17-8.89,6.12-16.79,13.01-23.01
		c3.36-3.03,7.07-5.48,11.46-6.76c1.84-0.54,3.76-0.87,5.53-1.58c6.06-2.44,12.39-3.01,18.82-3.03c1.28,0,2.56,0,7.51,0
		c-0.48-0.02,2.72,0.1,5.91,0.22c5.91,0.23,11.22,2.26,16.22,5.3c3.75,2.28,5.84,7.08,4.91,11.61c-0.13,0.63-0.18,1.28-0.4,1.88
		c-3.56,9.8-8.86,18.46-17.26,24.84c-5.08,3.86-10.52,7.26-15.79,10.88c-2.78,1.91-5.74,2.4-9.08,1.63
		C284.61,153.14,275.24,151.16,265.89,149.05z M358.92,241.67c-1.27,4.41-3.79,8.05-7.43,10.87c-5.08,3.92-10.69,6.98-16.51,9.63
		c-2.3,1.05-4.77,1.87-7.25,2.37c-9.4,1.92-18.88,3.29-26.96,2.74c-8.61,0.21-15.56-0.34-22.49-1.83
		c-6.36-1.37-12.14-3.86-17.54-7.37c-5.37-3.49-10.28-7.58-14.78-12.13c-3.21-3.24-5.44-7.02-6.17-11.64
		c-0.7-4.41-1.77-8.76-2.42-13.18c-0.58-3.92,0.4-7.6,2.55-10.94c4.21-6.52,9.68-11.86,15.73-16.61c3.51-2.75,7.19-5.33,11-7.64
		c8.18-4.96,16.5-9.7,24.77-14.51c2.92-1.7,5.89-1.84,9.12-0.65c10.21,3.77,19.96,8.53,29.43,13.81
		c12.04,6.72,20.81,16.72,27.07,28.95c0.58,1.13,1.19,2.29,1.47,3.51C360.43,225.23,361.28,233.45,358.92,241.67z"/>
	<path class="st23" d="M304.39,327.74c34.32-2.48,68.71-2.16,103.09-2.46c1.96-0.02,3.98,0.15,5.88,0.61
		c6.3,1.53,11.15,7.65,7.54,15.23c-0.54,1.13-1.54,2.14-2.54,2.94c-2.09,1.68-4.57,2.71-7.2,3.07c-2.61,0.36-5.27,0.49-7.91,0.55
		c-25.11,0.64-50.2,2.11-75.34,2.09c-6.6-0.01-13.22,0.3-19.81,0.8c-9.25,0.7-18.48,0.73-27.73,0.06
		c-20.48-1.5-40.95-1.25-61.4,0.77c-7.24,0.71-14.48,1.39-21.73,1.93c-5.95,0.44-11.89,0.18-17.79-0.85
		c-3.31-0.57-6.35-1.75-9.17-3.56c-2.3-1.48-3.86-3.51-4.79-6.09c-1.26-3.51,0.36-8.32,3.48-10.49c2.19-1.52,4.51-2.71,7.06-3.5
		c12.14-3.79,24.59-5.01,37.23-4.44c9.25,0.42,18.48,1.15,27.72,1.67c11.88,0.66,23.77,1.26,35.65,1.86
		C285.9,328.43,295.15,328.38,304.39,327.74z"/>
</g>
</svg>
