<?xml version="1.0" encoding="utf-8"?>
<!-- Generator: Adobe Illustrator 27.9.4, SVG Export Plug-In . SVG Version: 9.03 Build 54784)  -->
<svg version="1.1" xmlns="http://www.w3.org/2000/svg" xmlns:xlink="http://www.w3.org/1999/xlink" x="0px" y="0px"
	 viewBox="0 0 595.28 410.76" style="enable-background:new 0 0 595.28 410.76;" xml:space="preserve">
<style type="text/css">
	.st0{display:none;}
	.st1{display:inline;fill:#FFFFFF;}
	.st2{display:inline;}
	.st3{fill:#4B616A;}
	.st4{fill:#FFFFFF;}
	.st5{fill:#FFFFFF;stroke:#000000;stroke-width:2.5;stroke-miterlimit:10;}
	.st6{stroke:#000000;stroke-width:2.5;stroke-miterlimit:10;}
	.st7{fill:none;stroke:#000000;stroke-width:0.5;stroke-miterlimit:10;}
	.st8{fill:#285758;}
	.st9{fill:#0F8B8D;}
	.st10{fill:none;stroke:#C8C8C8;stroke-width:1.75;stroke-linecap:square;stroke-miterlimit:10;}
	.st11{fill:none;stroke:#C8C8C8;stroke-width:4;stroke-miterlimit:10;}
	.st12{fill:none;stroke:#C8C8C8;stroke-width:1.75;stroke-miterlimit:10;}
	.st13{fill:#0A8B8B;}
	.st14{fill:none;stroke:#0A8B8B;stroke-width:2;stroke-miterlimit:10;}
	.st15{clip-path:url(#SVGID_00000098924604636274172180000004908948825174772630_);fill:#0F8B8D;}
	.st16{clip-path:url(#SVGID_00000045594910080141270430000016410233682222167957_);fill:#0A8B8B;}
	.st17{fill:none;stroke:#0A8B8B;stroke-width:3;stroke-miterlimit:10;}
	.st18{fill:#285758;stroke:#285758;stroke-miterlimit:10;}
	.st19{fill:#000A00;stroke:#285758;stroke-miterlimit:10;}
	.st20{opacity:0;fill:#000A00;stroke:#285758;stroke-miterlimit:10;}
	.st21{fill:#285758;stroke:#285758;stroke-width:2;stroke-miterlimit:10;}
	.st22{fill:#229595;}
	.st23{fill:#1E9393;}
	.st24{fill:#259696;}
</style>
<g id="Ebene_2" class="st0">
</g>
<g id="Ebene_1">
</g>
<g id="Grafiken">
	<path class="st22" d="M295.91,110.36c-11.51,0.36-23,0.17-34.45-1.18c-3.82-0.45-7.54-1.25-11.08-2.85
		c-1.95-0.89-2.69-2.5-3.19-4.4c-0.53-1.98,2-5.63,3.91-5.81c1.26-0.12,2.54-0.45,3.78-0.34c15.31,1.44,30.63,1.23,45.93-0.02
		c15.31-1.25,30.61-1.76,45.96-0.86c5.1,0.3,10.22,0.34,15.32,0.54c6.44,0.25,12.72-0.33,18.78-2.81c3.81-1.56,7.56-0.63,10.96,1.46
		c4.69,2.89,6.13,8.84,3.42,13.38c-1.32,2.22-2.87,4.23-4.94,5.79c-1.53,1.15-3.05,2.39-4.76,3.2
		c-9.88,4.72-18.53,11.25-27.08,17.99c-13.05,10.29-26.54,19.97-40.23,29.39c-1.57,1.08-3.15,2.26-4.36,3.7
		c-0.65,0.78-0.68,2.22-0.68,3.36c0,0.43,0.81,0.97,1.36,1.26c2.88,1.52,6.12,1.64,9.22,2.27c19.86,3.98,35.14,14.79,46.11,31.59
		c6.06,9.27,9.19,19.63,8.98,30.83c-0.05,2.55-0.26,5.11-0.51,7.65c-1.22,12.12-6.81,21.79-16.5,29.09
		c-6.15,4.63-12.83,8.38-20,11.21c-13.13,5.18-26.59,8.94-40.72,10.31c-10.3,0.99-20.45,0.38-30.46-1.96
		c-11.23-2.63-22.04-6.59-32.43-11.56c-6.92-3.31-13.53-7.24-19.21-12.51c-2.81-2.61-5.37-5.43-7.53-8.64
		c-2.98-4.43-3.38-13.62,0.65-17.98c4.04-4.38,11.66-4.52,15.07,0.34c1.04,1.48,1.7,3.52,1.73,5.32c0.04,2.51-0.79,5.02-1.02,7.56
		c-0.25,2.7,0.77,5.03,2.97,6.64c2.05,1.5,4.14,3.06,6.43,4.11c3.47,1.59,7.06,3.02,10.73,4.07c8.6,2.45,17.24,4.74,25.92,6.88
		c8.71,2.15,17.59,3.31,26.57,3.26c19.1-0.1,36.4-5.93,52.02-16.86c3.76-2.63,6.52-6.07,8.34-10.27c1.31-3.02,1.67-6.17,0.73-9.34
		c-1.27-4.28-2.49-8.6-4.11-12.76c-3.76-9.64-9.32-18.13-16.8-25.36c-8.06-7.8-17.64-12.57-28.57-14.64
		c-6.33-1.2-12.76-0.99-19.09-0.01c-7.57,1.17-15.1,2.66-22.62,4.14c-3.2,0.63-5.65,2.87-8.36,4.52c-2.91,1.77-6.2,1.18-8.66-1.34
		c-0.44-0.46-0.96-0.92-1.2-1.48c-1.04-2.37-1.52-4.89-1.25-7.47c0.2-1.94,1.04-3.75,2.46-5.05c3.3-3.03,6.93-5.63,10.95-7.67
		c10.25-5.2,20.5-10.41,30.71-15.68c19.39-10,37.29-22.21,53.76-36.51c1.94-1.68,3.75-3.45,4.57-6.01c0.39-1.23,0.17-2.32-0.94-3.33
		c-0.44-0.4-0.89-0.98-1.41-1.08c-6.27-1.22-12.52-2.57-18.83-3.48c-4.41-0.63-8.9-0.85-13.36-0.89
		C311.24,110.03,303.57,110.26,295.91,110.36z"/>
	<path class="st23" d="M304.39,327.74c34.32-2.48,68.71-2.16,103.09-2.46c1.96-0.02,3.98,0.15,5.88,0.61
		c6.3,1.53,11.15,7.65,7.54,15.23c-0.54,1.13-1.54,2.14-2.54,2.94c-2.09,1.68-4.57,2.71-7.2,3.07c-2.61,0.36-5.27,0.49-7.91,0.55
		c-25.11,0.64-50.2,2.11-75.34,2.09c-6.6-0.01-13.22,0.3-19.81,0.8c-9.25,0.7-18.48,0.73-27.73,0.06
		c-20.48-1.5-40.95-1.25-61.4,0.77c-7.24,0.71-14.48,1.39-21.73,1.93c-5.95,0.44-11.89,0.18-17.79-0.85
		c-3.31-0.57-6.35-1.75-9.17-3.56c-2.3-1.48-3.86-3.51-4.79-6.09c-1.26-3.51,0.36-8.32,3.48-10.49c2.19-1.52,4.51-2.71,7.06-3.5
		c12.14-3.79,24.59-5.01,37.23-4.44c9.25,0.42,18.48,1.15,27.72,1.67c11.88,0.66,23.77,1.26,35.65,1.86
		C285.9,328.43,295.15,328.38,304.39,327.74z"/>
</g>
</svg>
